<ttFont>
<head>
    <!-- Most of this table will be recalculated by the compiler -->
    <tableVersion value="1.0"/>
    <fontRevision value="2.004"/>
    <checkSumAdjustment value="0xd5798211"/>
    <magicNumber value="0x5f0f3cf5"/>
    <flags value="00001000 00000011"/>
    <unitsPerEm value="1000"/>
    <created value="Thu Apr 29 08:43:11 2021"/>
    <modified value="Wed Mar 25 22:29:24 2026"/>
    <xMin value="-264"/>
    <yMin value="-250"/>
    <xMax value="1000"/>
    <yMax value="939"/>
    <macStyle value="00000000 00000000"/>
    <lowestRecPPEM value="6"/>
    <fontDirectionHint value="2"/>
    <indexToLocFormat value="0"/>
    <glyphDataFormat value="0"/>
  </head>
    <TTGlyph name="A" xMin="4" yMin="0" xMax="604" yMax="733">
      <contour>
        <pt x="4" y="0" on="1"/>
        <pt x="252" y="733" on="1"/>
        <pt x="355" y="733" on="1"/>
        <pt x="604" y="0" on="1"/>
        <pt x="506" y="0" on="1"/>
        <pt x="378" y="410" on="1"/>
        <pt x="358" y="473" on="0"/>
        <pt x="322" y="594" on="0"/>
        <pt x="304" y="658" on="1"/>
        <pt x="300" y="658" on="1"/>
        <pt x="283" y="594" on="0"/>
        <pt x="246" y="473" on="0"/>
        <pt x="227" y="410" on="1"/>
        <pt x="97" y="0" on="1"/>
      </contour>
      <contour>
        <pt x="133" y="224" on="1"/>
        <pt x="133" y="297" on="1"/>
        <pt x="471" y="297" on="1"/>
        <pt x="471" y="224" on="1"/>
      </contour>
    </TTGlyph>
    <TTGlyph name="B" xMin="101" yMin="0" xMax="612" yMax="733">
      <contour>
        <pt x="101" y="0" on="1"/>
        <pt x="101" y="733" on="1"/>
        <pt x="318" y="733" on="1"/>
        <pt x="393" y="733" on="0"/>
        <pt x="506" y="697" on="0"/>
        <pt x="570" y="619" on="0"/>
        <pt x="570" y="554" on="1"/>
        <pt x="570" y="518" on="0"/>
        <pt x="545" y="453" on="0"/>
        <pt x="497" y="406" on="0"/>
        <pt x="463" y="395" on="1"/>
        <pt x="463" y="390" on="1"/>
        <pt x="528" y="378" on="0"/>
        <pt x="612" y="290" on="0"/>
        <pt x="612" y="215" on="1"/>
        <pt x="612" y="143" on="0"/>
        <pt x="541" y="48" on="0"/>
        <pt x="416" y="0" on="0"/>
        <pt x="334" y="0" on="1"/>
      </contour>
      <contour>
        <pt x="193" y="422" on="1"/>
        <pt x="302" y="422" on="1"/>
        <pt x="397" y="422" on="0"/>
        <pt x="479" y="486" on="0"/>
        <pt x="479" y="542" on="1"/>
        <pt x="479" y="607" on="0"/>
        <pt x="392" y="660" on="0"/>
        <pt x="306" y="660" on="1"/>
        <pt x="193" y="660" on="1"/>
      </contour>
      <contour>
        <pt x="193" y="74" on="1"/>
        <pt x="321" y="74" on="1"/>
        <pt x="415" y="74" on="0"/>
        <pt x="521" y="144" on="0"/>
        <pt x="521" y="218" on="1"/>
        <pt x="521" y="287" on="0"/>
        <pt x="417" y="350" on="0"/>
        <pt x="321" y="350" on="1"/>
        <pt x="193" y="350" on="1"/>
      </contour>
    </TTGlyph>
    <TTGlyph name="C" xMin="58" yMin="-13" xMax="602" yMax="746">
      <contour>
        <pt x="377" y="-13" on="1"/>
        <pt x="309" y="-13" on="0"/>
        <pt x="192" y="38" on="0"/>
        <pt x="106" y="136" on="0"/>
        <pt x="58" y="277" on="0"/>
        <pt x="58" y="366" on="1"/>
        <pt x="58" y="455" on="0"/>
        <pt x="107" y="596" on="0"/>
        <pt x="195" y="694" on="0"/>
        <pt x="313" y="746" on="0"/>
        <pt x="383" y="746" on="1"/>
        <pt x="450" y="746" on="0"/>
        <pt x="552" y="691" on="0"/>
        <pt x="584" y="656" on="1"/>
        <pt x="534" y="596" on="1"/>
        <pt x="505" y="627" on="0"/>
        <pt x="431" y="665" on="0"/>
        <pt x="384" y="665" on="1"/>
        <pt x="315" y="665" on="0"/>
        <pt x="211" y="593" on="0"/>
        <pt x="153" y="460" on="0"/>
        <pt x="153" y="369" on="1"/>
        <pt x="153" y="276" on="0"/>
        <pt x="209" y="141" on="0"/>
        <pt x="311" y="68" on="0"/>
        <pt x="381" y="68" on="1"/>
        <pt x="433" y="68" on="0"/>
        <pt x="516" y="112" on="0"/>
        <pt x="551" y="151" on="1"/>
        <pt x="602" y="92" on="1"/>
        <pt x="559" y="42" on="0"/>
        <pt x="449" y="-13" on="0"/>
      </contour>
    </TTGlyph>
    <TTGlyph name="D" xMin="101" yMin="0" xMax="629" yMax="733">
      <contour>
        <pt x="101" y="0" on="1"/>
        <pt x="101" y="733" on="1"/>
        <pt x="284" y="733" on="1"/>
        <pt x="397" y="733" on="0"/>
        <pt x="551" y="648" on="0"/>
        <pt x="629" y="486" on="0"/>
        <pt x="629" y="369" on="1"/>
        <pt x="629" y="253" on="0"/>
        <pt x="551" y="87" on="0"/>
        <pt x="399" y="0" on="0"/>
        <pt x="288" y="0" on="1"/>
      </contour>
      <contour>
        <pt x="193" y="76" on="1"/>
        <pt x="276" y="76" on="1"/>
        <pt x="362" y="76" on="0"/>
        <pt x="477" y="145" on="0"/>
        <pt x="534" y="277" on="0"/>
        <pt x="534" y="369" on="1"/>
        <pt x="534" y="463" on="0"/>
        <pt x="477" y="591" on="0"/>
        <pt x="362" y="658" on="0"/>
        <pt x="276" y="658" on="1"/>
        <pt x="193" y="658" on="1"/>
      </contour>
    </TTGlyph>
    <TTGlyph name="E" xMin="101" yMin="0" xMax="534" yMax="733">
      <contour>
        <pt x="101" y="0" on="1"/>
        <pt x="101" y="733" on="1"/>
        <pt x="523" y="733" on="1"/>
        <pt x="523" y="655" on="1"/>
        <pt x="193" y="655" on="1"/>
        <pt x="193" y="425" on="1"/>
        <pt x="471" y="425" on="1"/>
        <pt x="471" y="346" on="1"/>
        <pt x="193" y="346" on="1"/>
        <pt x="193" y="79" on="1"/>
        <pt x="534" y="79" on="1"/>
        <pt x="534" y="0" on="1"/>
      </contour>
    </TTGlyph>
    <TTGlyph name="F" xMin="101" yMin="0" xMax="523" yMax="733">
      <contour>
        <pt x="101" y="0" on="1"/>
        <pt x="101" y="733" on="1"/>
        <pt x="523" y="733" on="1"/>
        <pt x="523" y="655" on="1"/>
        <pt x="193" y="655" on="1"/>
        <pt x="193" y="407" on="1"/>
        <pt x="473" y="407" on="1"/>
        <pt x="473" y="329" on="1"/>
        <pt x="193" y="329" on="1"/>
        <pt x="193" y="0" on="1"/>
      </contour>
    </TTGlyph>
    <TTGlyph name="G" xMin="58" yMin="-13" xMax="615" yMax="746">
      <contour>
        <pt x="389" y="-13" on="1"/>
        <pt x="292" y="-13" on="0"/>
        <pt x="143" y="77" on="0"/>
        <pt x="58" y="247" on="0"/>
        <pt x="58" y="366" on="1"/>
        <pt x="58" y="455" on="0"/>
        <pt x="108" y="596" on="0"/>
        <pt x="199" y="694" on="0"/>
        <pt x="321" y="746" on="0"/>
        <pt x="394" y="746" on="1"/>
        <pt x="471" y="746" on="0"/>
        <pt x="573" y="689" on="0"/>
        <pt x="605" y="656" on="1"/>
        <pt x="555" y="596" on="1"/>
        <pt x="527" y="625" on="0"/>
        <pt x="452" y="665" on="0"/>
        <pt x="397" y="665" on="1"/>
        <pt x="323" y="665" on="0"/>
        <pt x="213" y="593" on="0"/>
        <pt x="153" y="460" on="0"/>
        <pt x="153" y="369" on="1"/>
        <pt x="153" y="276" on="0"/>
        <pt x="210" y="141" on="0"/>
        <pt x="320" y="68" on="0"/>
        <pt x="398" y="68" on="1"/>
        <pt x="437" y="68" on="0"/>
        <pt x="508" y="91" on="0"/>
        <pt x="530" y="111" on="1"/>
        <pt x="530" y="303" on="1"/>
        <pt x="374" y="303" on="1"/>
        <pt x="374" y="380" on="1"/>
        <pt x="615" y="380" on="1"/>
        <pt x="615" y="72" on="1"/>
        <pt x="579" y="35" on="0"/>
        <pt x="462" y="-13" on="0"/>
      </contour>
    </TTGlyph>
    <TTGlyph name="H" xMin="101" yMin="0" xMax="628" yMax="733">
      <contour>
        <pt x="101" y="0" on="1"/>
        <pt x="101" y="733" on="1"/>
        <pt x="193" y="733" on="1"/>
        <pt x="193" y="426" on="1"/>
        <pt x="535" y="426" on="1"/>
        <pt x="535" y="733" on="1"/>
        <pt x="628" y="733" on="1"/>
        <pt x="628" y="0" on="1"/>
        <pt x="535" y="0" on="1"/>
        <pt x="535" y="346" on="1"/>
        <pt x="193" y="346" on="1"/>
        <pt x="193" y="0" on="1"/>
      </contour>
    </TTGlyph>
    <TTGlyph name="I" xMin="101" yMin="0" xMax="193" yMax="733">
      <contour>
        <pt x="101" y="0" on="1"/>
        <pt x="101" y="733" on="1"/>
        <pt x="193" y="733" on="1"/>
        <pt x="193" y="0" on="1"/>
      </contour>
    </TTGlyph>
    <TTGlyph name="J" xMin="35" yMin="-13" xMax="439" yMax="733">
      <contour>
        <pt x="237" y="-13" on="1"/>
        <pt x="167" y="-13" on="0"/>
        <pt x="68" y="46" on="0"/>
        <pt x="35" y="103" on="1"/>
        <pt x="101" y="151" on="1"/>
        <pt x="126" y="106" on="0"/>
        <pt x="189" y="68" on="0"/>
        <pt x="228" y="68" on="1"/>
        <pt x="288" y="68" on="0"/>
        <pt x="346" y="141" on="0"/>
        <pt x="346" y="224" on="1"/>
        <pt x="346" y="733" on="1"/>
        <pt x="439" y="733" on="1"/>
        <pt x="439" y="215" on="1"/>
        <pt x="439" y="152" on="0"/>
        <pt x="397" y="48" on="0"/>
        <pt x="308" y="-13" on="0"/>
      </contour>
    </TTGlyph>
    <TTGlyph name="K" xMin="101" yMin="0" xMax="642" yMax="733">
      <contour>
        <pt x="101" y="0" on="1"/>
        <pt x="101" y="733" on="1"/>
        <pt x="193" y="733" on="1"/>
        <pt x="193" y="365" on="1"/>
        <pt x="195" y="365" on="1"/>
        <pt x="502" y="733" on="1"/>
        <pt x="607" y="733" on="1"/>
        <pt x="377" y="455" on="1"/>
        <pt x="642" y="0" on="1"/>
        <pt x="539" y="0" on="1"/>
        <pt x="319" y="382" on="1"/>
        <pt x="193" y="232" on="1"/>
        <pt x="193" y="0" on="1"/>
      </contour>
    </TTGlyph>
    <TTGlyph name="L" xMin="101" yMin="0" xMax="514" yMax="733">
      <contour>
        <pt x="101" y="0" on="1"/>
        <pt x="101" y="733" on="1"/>
        <pt x="193" y="733" on="1"/>
        <pt x="193" y="79" on="1"/>
        <pt x="514" y="79" on="1"/>
        <pt x="514" y="0" on="1"/>
      </contour>
    </TTGlyph>
    <TTGlyph name="M" xMin="101" yMin="0" xMax="711" yMax="733">
      <contour>
        <pt x="101" y="0" on="1"/>
        <pt x="101" y="733" on="1"/>
        <pt x="212" y="733" on="1"/>
        <pt x="352" y="341" on="1"/>
        <pt x="366" y="304" on="0"/>
        <pt x="392" y="226" on="0"/>
        <pt x="405" y="188" on="1"/>
        <pt x="409" y="188" on="1"/>
        <pt x="423" y="226" on="0"/>
        <pt x="448" y="304" on="0"/>
        <pt x="460" y="341" on="1"/>
        <pt x="600" y="733" on="1"/>
        <pt x="711" y="733" on="1"/>
        <pt x="711" y="0" on="1"/>
        <pt x="625" y="0" on="1"/>
        <pt x="625" y="406" on="1"/>
        <pt x="625" y="438" on="0"/>
        <pt x="629" y="513" on="0"/>
        <pt x="635" y="590" on="0"/>
        <pt x="637" y="622" on="1"/>
        <pt x="633" y="622" on="1"/>
        <pt x="574" y="455" on="1"/>
        <pt x="436" y="74" on="1"/>
        <pt x="374" y="74" on="1"/>
        <pt x="235" y="455" on="1"/>
        <pt x="176" y="622" on="1"/>
        <pt x="172" y="622" on="1"/>
        <pt x="176" y="590" on="0"/>
        <pt x="181" y="513" on="0"/>
        <pt x="184" y="438" on="0"/>
        <pt x="184" y="406" on="1"/>
        <pt x="184" y="0" on="1"/>
      </contour>
    </TTGlyph>
    <TTGlyph name="N" xMin="101" yMin="0" xMax="622" yMax="733">
      <contour>
        <pt x="101" y="0" on="1"/>
        <pt x="101" y="733" on="1"/>
        <pt x="195" y="733" on="1"/>
        <pt x="463" y="271" on="1"/>
        <pt x="542" y="120" on="1"/>
        <pt x="547" y="120" on="1"/>
        <pt x="542" y="175" on="0"/>
        <pt x="534" y="295" on="0"/>
        <pt x="534" y="352" on="1"/>
        <pt x="534" y="733" on="1"/>
        <pt x="622" y="733" on="1"/>
        <pt x="622" y="0" on="1"/>
        <pt x="527" y="0" on="1"/>
        <pt x="260" y="463" on="1"/>
        <pt x="181" y="613" on="1"/>
        <pt x="177" y="613" on="1"/>
        <pt x="180" y="558" on="0"/>
        <pt x="188" y="443" on="0"/>
        <pt x="188" y="385" on="1"/>
        <pt x="188" y="0" on="1"/>
      </contour>
    </TTGlyph>
    <TTGlyph name="O" xMin="58" yMin="-13" xMax="684" yMax="746">
      <contour>
        <pt x="371" y="-13" on="1"/>
        <pt x="279" y="-13" on="0"/>
        <pt x="138" y="80" on="0"/>
        <pt x="58" y="252" on="0"/>
        <pt x="58" y="369" on="1"/>
        <pt x="58" y="487" on="0"/>
        <pt x="138" y="656" on="0"/>
        <pt x="279" y="746" on="0"/>
        <pt x="371" y="746" on="1"/>
        <pt x="463" y="746" on="0"/>
        <pt x="604" y="655" on="0"/>
        <pt x="684" y="487" on="0"/>
        <pt x="684" y="369" on="1"/>
        <pt x="684" y="252" on="0"/>
        <pt x="604" y="80" on="0"/>
        <pt x="463" y="-13" on="0"/>
      </contour>
      <contour>
        <pt x="371" y="68" on="1"/>
        <pt x="437" y="68" on="0"/>
        <pt x="535" y="142" on="0"/>
        <pt x="589" y="278" on="0"/>
        <pt x="589" y="369" on="1"/>
        <pt x="589" y="461" on="0"/>
        <pt x="535" y="594" on="0"/>
        <pt x="437" y="665" on="0"/>
        <pt x="371" y="665" on="1"/>
        <pt x="306" y="665" on="0"/>
        <pt x="207" y="594" on="0"/>
        <pt x="153" y="461" on="0"/>
        <pt x="153" y="369" on="1"/>
        <pt x="153" y="278" on="0"/>
        <pt x="207" y="142" on="0"/>
        <pt x="306" y="68" on="0"/>
      </contour>
    </TTGlyph>
    <TTGlyph name="P" xMin="101" yMin="0" xMax="584" yMax="733">
      <contour>
        <pt x="101" y="0" on="1"/>
        <pt x="101" y="733" on="1"/>
        <pt x="310" y="733" on="1"/>
        <pt x="392" y="733" on="0"/>
        <pt x="516" y="692" on="0"/>
        <pt x="584" y="598" on="0"/>
        <pt x="584" y="518" on="1"/>
        <pt x="584" y="441" on="0"/>
        <pt x="516" y="341" on="0"/>
        <pt x="394" y="292" on="0"/>
        <pt x="314" y="292" on="1"/>
        <pt x="193" y="292" on="1"/>
        <pt x="193" y="0" on="1"/>
      </contour>
      <contour>
        <pt x="193" y="367" on="1"/>
        <pt x="302" y="367" on="1"/>
        <pt x="398" y="367" on="0"/>
        <pt x="492" y="439" on="0"/>
        <pt x="492" y="518" on="1"/>
        <pt x="492" y="598" on="0"/>
        <pt x="395" y="658" on="0"/>
        <pt x="298" y="658" on="1"/>
        <pt x="193" y="658" on="1"/>
      </contour>
    </TTGlyph>
    <TTGlyph name="Q" xMin="58" yMin="-184" xMax="700" yMax="746">
      <contour>
        <pt x="371" y="-13" on="1"/>
        <pt x="279" y="-13" on="0"/>
        <pt x="138" y="80" on="0"/>
        <pt x="58" y="252" on="0"/>
        <pt x="58" y="369" on="1"/>
        <pt x="58" y="487" on="0"/>
        <pt x="138" y="656" on="0"/>
        <pt x="279" y="746" on="0"/>
        <pt x="371" y="746" on="1"/>
        <pt x="463" y="746" on="0"/>
        <pt x="604" y="655" on="0"/>
        <pt x="684" y="487" on="0"/>
        <pt x="684" y="369" on="1"/>
        <pt x="684" y="252" on="0"/>
        <pt x="604" y="80" on="0"/>
        <pt x="463" y="-13" on="0"/>
      </contour>
      <contour>
        <pt x="371" y="64" on="1"/>
        <pt x="437" y="64" on="0"/>
        <pt x="535" y="138" on="0"/>
        <pt x="589" y="276" on="0"/>
        <pt x="589" y="369" on="1"/>
        <pt x="589" y="461" on="0"/>
        <pt x="535" y="594" on="0"/>
        <pt x="437" y="665" on="0"/>
        <pt x="371" y="665" on="1"/>
        <pt x="306" y="665" on="0"/>
        <pt x="207" y="594" on="0"/>
        <pt x="153" y="461" on="0"/>
        <pt x="153" y="369" on="1"/>
        <pt x="153" y="276" on="0"/>
        <pt x="207" y="138" on="0"/>
        <pt x="306" y="64" on="0"/>
      </contour>
      <contour>
        <pt x="595" y="-184" on="1"/>
        <pt x="526" y="-184" on="0"/>
        <pt x="416" y="-136" on="0"/>
        <pt x="341" y="-51" on="0"/>
        <pt x="321" y="2" on="1"/>
        <pt x="417" y="10" on="1"/>
        <pt x="432" y="-29" on="0"/>
        <pt x="487" y="-81" on="0"/>
        <pt x="562" y="-107" on="0"/>
        <pt x="605" y="-107" on="1"/>
        <pt x="630" y="-107" on="0"/>
        <pt x="668" y="-101" on="0"/>
        <pt x="682" y="-96" on="1"/>
        <pt x="700" y="-167" on="1"/>
        <pt x="684" y="-174" on="0"/>
        <pt x="628" y="-184" on="0"/>
      </contour>
    </TTGlyph>
    <TTGlyph name="R" xMin="101" yMin="0" xMax="607" yMax="733">
      <contour>
        <pt x="101" y="0" on="1"/>
        <pt x="101" y="733" on="1"/>
        <pt x="330" y="733" on="1"/>
        <pt x="405" y="733" on="0"/>
        <pt x="520" y="694" on="0"/>
        <pt x="586" y="604" on="0"/>
        <pt x="586" y="528" on="1"/>
        <pt x="586" y="455" on="0"/>
        <pt x="520" y="358" on="0"/>
        <pt x="405" y="311" on="0"/>
        <pt x="330" y="311" on="1"/>
        <pt x="193" y="311" on="1"/>
        <pt x="193" y="0" on="1"/>
      </contour>
      <contour>
        <pt x="193" y="385" on="1"/>
        <pt x="316" y="385" on="1"/>
        <pt x="402" y="385" on="0"/>
        <pt x="494" y="456" on="0"/>
        <pt x="494" y="528" on="1"/>
        <pt x="494" y="600" on="0"/>
        <pt x="402" y="658" on="0"/>
        <pt x="316" y="658" on="1"/>
        <pt x="193" y="658" on="1"/>
      </contour>
      <contour>
        <pt x="503" y="0" on="1"/>
        <pt x="311" y="335" on="1"/>
        <pt x="384" y="384" on="1"/>
        <pt x="607" y="0" on="1"/>
      </contour>
    </TTGlyph>
    <TTGlyph name="S" xMin="48" yMin="-13" xMax="553" yMax="746">
      <contour>
        <pt x="304" y="-13" on="1"/>
        <pt x="226" y="-13" on="0"/>
        <pt x="95" y="45" on="0"/>
        <pt x="48" y="95" on="1"/>
        <pt x="103" y="159" on="1"/>
        <pt x="142" y="118" on="0"/>
        <pt x="248" y="68" on="0"/>
        <pt x="305" y="68" on="1"/>
        <pt x="378" y="68" on="0"/>
        <pt x="459" y="134" on="0"/>
        <pt x="459" y="187" on="1"/>
        <pt x="459" y="226" on="0"/>
        <pt x="426" y="272" on="0"/>
        <pt x="371" y="303" on="0"/>
        <pt x="336" y="318" on="1"/>
        <pt x="231" y="364" on="1"/>
        <pt x="197" y="379" on="0"/>
        <pt x="128" y="425" on="0"/>
        <pt x="82" y="499" on="0"/>
        <pt x="82" y="552" on="1"/>
        <pt x="82" y="609" on="0"/>
        <pt x="142" y="696" on="0"/>
        <pt x="246" y="746" on="0"/>
        <pt x="313" y="746" on="1"/>
        <pt x="379" y="746" on="0"/>
        <pt x="490" y="696" on="0"/>
        <pt x="528" y="656" on="1"/>
        <pt x="480" y="597" on="1"/>
        <pt x="446" y="628" on="0"/>
        <pt x="365" y="665" on="0"/>
        <pt x="313" y="665" on="1"/>
        <pt x="251" y="665" on="0"/>
        <pt x="176" y="608" on="0"/>
        <pt x="176" y="559" on="1"/>
        <pt x="176" y="523" on="0"/>
        <pt x="213" y="477" on="0"/>
        <pt x="269" y="449" on="0"/>
        <pt x="298" y="436" on="1"/>
        <pt x="402" y="391" on="1"/>
        <pt x="444" y="373" on="0"/>
        <pt x="513" y="323" on="0"/>
        <pt x="553" y="249" on="0"/>
        <pt x="553" y="195" on="1"/>
        <pt x="553" y="137" on="0"/>
        <pt x="493" y="42" on="0"/>
        <pt x="381" y="-13" on="0"/>
      </contour>
    </TTGlyph>
    <TTGlyph name="T" xMin="31" yMin="0" xMax="568" yMax="733">
      <contour>
        <pt x="253" y="0" on="1"/>
        <pt x="253" y="655" on="1"/>
        <pt x="31" y="655" on="1"/>
        <pt x="31" y="733" on="1"/>
        <pt x="568" y="733" on="1"/>
        <pt x="568" y="655" on="1"/>
        <pt x="346" y="655" on="1"/>
        <pt x="346" y="0" on="1"/>
      </contour>
    </TTGlyph>
    <TTGlyph name="U" xMin="98" yMin="-13" xMax="624" yMax="733">
      <contour>
        <pt x="361" y="-13" on="1"/>
        <pt x="305" y="-13" on="0"/>
        <pt x="209" y="19" on="0"/>
        <pt x="138" y="93" on="0"/>
        <pt x="98" y="215" on="0"/>
        <pt x="98" y="302" on="1"/>
        <pt x="98" y="733" on="1"/>
        <pt x="190" y="733" on="1"/>
        <pt x="190" y="300" on="1"/>
        <pt x="190" y="212" on="0"/>
        <pt x="236" y="111" on="0"/>
        <pt x="313" y="68" on="0"/>
        <pt x="361" y="68" on="1"/>
        <pt x="410" y="68" on="0"/>
        <pt x="488" y="111" on="0"/>
        <pt x="535" y="212" on="0"/>
        <pt x="535" y="300" on="1"/>
        <pt x="535" y="733" on="1"/>
        <pt x="624" y="733" on="1"/>
        <pt x="624" y="302" on="1"/>
        <pt x="624" y="215" on="0"/>
        <pt x="585" y="93" on="0"/>
        <pt x="513" y="19" on="0"/>
        <pt x="417" y="-13" on="0"/>
      </contour>
    </TTGlyph>
    <TTGlyph name="V" xMin="1" yMin="0" xMax="575" yMax="733">
      <contour>
        <pt x="235" y="0" on="1"/>
        <pt x="1" y="733" on="1"/>
        <pt x="98" y="733" on="1"/>
        <pt x="217" y="336" on="1"/>
        <pt x="236" y="272" on="0"/>
        <pt x="267" y="159" on="0"/>
        <pt x="288" y="94" on="1"/>
        <pt x="292" y="94" on="1"/>
        <pt x="313" y="159" on="0"/>
        <pt x="344" y="272" on="0"/>
        <pt x="363" y="336" on="1"/>
        <pt x="481" y="733" on="1"/>
        <pt x="575" y="733" on="1"/>
        <pt x="342" y="0" on="1"/>
      </contour>
    </TTGlyph>
    <TTGlyph name="W" xMin="26" yMin="0" xMax="851" yMax="733">
      <contour>
        <pt x="181" y="0" on="1"/>
        <pt x="26" y="733" on="1"/>
        <pt x="121" y="733" on="1"/>
        <pt x="198" y="334" on="1"/>
        <pt x="209" y="275" on="0"/>
        <pt x="231" y="156" on="0"/>
        <pt x="242" y="96" on="1"/>
        <pt x="246" y="96" on="1"/>
        <pt x="259" y="156" on="0"/>
        <pt x="285" y="275" on="0"/>
        <pt x="298" y="334" on="1"/>
        <pt x="399" y="733" on="1"/>
        <pt x="484" y="733" on="1"/>
        <pt x="586" y="334" on="1"/>
        <pt x="599" y="275" on="0"/>
        <pt x="625" y="156" on="0"/>
        <pt x="639" y="96" on="1"/>
        <pt x="644" y="96" on="1"/>
        <pt x="654" y="156" on="0"/>
        <pt x="674" y="275" on="0"/>
        <pt x="684" y="334" on="1"/>
        <pt x="763" y="733" on="1"/>
        <pt x="851" y="733" on="1"/>
        <pt x="700" y="0" on="1"/>
        <pt x="588" y="0" on="1"/>
        <pt x="477" y="442" on="1"/>
        <pt x="467" y="486" on="0"/>
        <pt x="450" y="567" on="0"/>
        <pt x="441" y="609" on="1"/>
        <pt x="437" y="609" on="1"/>
        <pt x="429" y="567" on="0"/>
        <pt x="409" y="486" on="0"/>
        <pt x="400" y="442" on="1"/>
        <pt x="291" y="0" on="1"/>
      </contour>
    </TTGlyph>
    <TTGlyph name="X" xMin="17" yMin="0" xMax="557" yMax="733">
      <contour>
        <pt x="17" y="0" on="1"/>
        <pt x="231" y="379" on="1"/>
        <pt x="31" y="733" on="1"/>
        <pt x="133" y="733" on="1"/>
        <pt x="233" y="546" on="1"/>
        <pt x="247" y="520" on="0"/>
        <pt x="273" y="471" on="0"/>
        <pt x="291" y="438" on="1"/>
        <pt x="295" y="438" on="1"/>
        <pt x="310" y="471" on="0"/>
        <pt x="333" y="520" on="0"/>
        <pt x="347" y="546" on="1"/>
        <pt x="445" y="733" on="1"/>
        <pt x="542" y="733" on="1"/>
        <pt x="342" y="374" on="1"/>
        <pt x="557" y="0" on="1"/>
        <pt x="455" y="0" on="1"/>
        <pt x="347" y="198" on="1"/>
        <pt x="332" y="225" on="0"/>
        <pt x="301" y="283" on="0"/>
        <pt x="283" y="317" on="1"/>
        <pt x="279" y="317" on="1"/>
        <pt x="263" y="283" on="0"/>
        <pt x="234" y="225" on="0"/>
        <pt x="220" y="198" on="1"/>
        <pt x="115" y="0" on="1"/>
      </contour>
    </TTGlyph>
    <TTGlyph name="Y" xMin="-1" yMin="0" xMax="532" yMax="733">
      <contour>
        <pt x="219" y="0" on="1"/>
        <pt x="219" y="284" on="1"/>
        <pt x="-1" y="733" on="1"/>
        <pt x="97" y="733" on="1"/>
        <pt x="192" y="526" on="1"/>
        <pt x="210" y="485" on="0"/>
        <pt x="244" y="407" on="0"/>
        <pt x="264" y="365" on="1"/>
        <pt x="268" y="365" on="1"/>
        <pt x="288" y="407" on="0"/>
        <pt x="324" y="485" on="0"/>
        <pt x="342" y="526" on="1"/>
        <pt x="436" y="733" on="1"/>
        <pt x="532" y="733" on="1"/>
        <pt x="311" y="284" on="1"/>
        <pt x="311" y="0" on="1"/>
      </contour>
    </TTGlyph>
    <TTGlyph name="Z" xMin="50" yMin="0" xMax="556" yMax="733">
      <contour>
        <pt x="50" y="0" on="1"/>
        <pt x="50" y="56" on="1"/>
        <pt x="437" y="655" on="1"/>
        <pt x="85" y="655" on="1"/>
        <pt x="85" y="733" on="1"/>
        <pt x="551" y="733" on="1"/>
        <pt x="551" y="678" on="1"/>
        <pt x="164" y="79" on="1"/>
        <pt x="556" y="79" on="1"/>
        <pt x="556" y="0" on="1"/>
      </contour>
    </TTGlyph>
    <TTGlyph name="a" xMin="59" yMin="-13" xMax="483" yMax="557">
      <contour>
        <pt x="217" y="-13" on="1"/>
        <pt x="172" y="-13" on="0"/>
        <pt x="100" y="23" on="0"/>
        <pt x="59" y="92" on="0"/>
        <pt x="59" y="141" on="1"/>
        <pt x="59" y="230" on="0"/>
        <pt x="218" y="325" on="0"/>
        <pt x="392" y="344" on="1"/>
        <pt x="392" y="379" on="0"/>
        <pt x="373" y="442" on="0"/>
        <pt x="325" y="481" on="0"/>
        <pt x="280" y="481" on="1"/>
        <pt x="233" y="481" on="0"/>
        <pt x="150" y="444" on="0"/>
        <pt x="117" y="423" on="1"/>
        <pt x="82" y="486" on="1"/>
        <pt x="107" y="502" on="0"/>
        <pt x="173" y="535" on="0"/>
        <pt x="251" y="557" on="0"/>
        <pt x="295" y="557" on="1"/>
        <pt x="361" y="557" on="0"/>
        <pt x="444" y="501" on="0"/>
        <pt x="483" y="402" on="0"/>
        <pt x="483" y="334" on="1"/>
        <pt x="483" y="0" on="1"/>
        <pt x="408" y="0" on="1"/>
        <pt x="400" y="65" on="1"/>
        <pt x="397" y="65" on="1"/>
        <pt x="359" y="33" on="0"/>
        <pt x="268" y="-13" on="0"/>
      </contour>
      <contour>
        <pt x="243" y="61" on="1"/>
        <pt x="282" y="61" on="0"/>
        <pt x="353" y="97" on="0"/>
        <pt x="392" y="132" on="1"/>
        <pt x="392" y="283" on="1"/>
        <pt x="301" y="273" on="0"/>
        <pt x="193" y="236" on="0"/>
        <pt x="147" y="183" on="0"/>
        <pt x="147" y="147" on="1"/>
        <pt x="147" y="100" on="0"/>
        <pt x="203" y="61" on="0"/>
      </contour>
    </TTGlyph>
    <TTGlyph name="b" xMin="92" yMin="-13" xMax="567" yMax="796">
      <contour>
        <pt x="331" y="-13" on="1"/>
        <pt x="294" y="-13" on="0"/>
        <pt x="212" y="23" on="0"/>
        <pt x="177" y="56" on="1"/>
        <pt x="173" y="56" on="1"/>
        <pt x="165" y="0" on="1"/>
        <pt x="92" y="0" on="1"/>
        <pt x="92" y="796" on="1"/>
        <pt x="184" y="796" on="1"/>
        <pt x="184" y="578" on="1"/>
        <pt x="180" y="481" on="1"/>
        <pt x="217" y="513" on="0"/>
        <pt x="305" y="557" on="0"/>
        <pt x="351" y="557" on="1"/>
        <pt x="421" y="557" on="0"/>
        <pt x="517" y="488" on="0"/>
        <pt x="567" y="364" on="0"/>
        <pt x="567" y="280" on="1"/>
        <pt x="567" y="188" on="0"/>
        <pt x="500" y="56" on="0"/>
        <pt x="393" y="-13" on="0"/>
      </contour>
      <contour>
        <pt x="316" y="64" on="1"/>
        <pt x="361" y="64" on="0"/>
        <pt x="432" y="115" on="0"/>
        <pt x="472" y="212" on="0"/>
        <pt x="472" y="279" on="1"/>
        <pt x="472" y="339" on="0"/>
        <pt x="443" y="430" on="0"/>
        <pt x="381" y="480" on="0"/>
        <pt x="328" y="480" on="1"/>
        <pt x="294" y="480" on="0"/>
        <pt x="222" y="442" on="0"/>
        <pt x="184" y="406" on="1"/>
        <pt x="184" y="120" on="1"/>
        <pt x="219" y="89" on="0"/>
        <pt x="290" y="64" on="0"/>
      </contour>
    </TTGlyph>
    <TTGlyph name="c" xMin="52" yMin="-13" xMax="482" yMax="557">
      <contour>
        <pt x="306" y="-13" on="1"/>
        <pt x="234" y="-13" on="0"/>
        <pt x="119" y="54" on="0"/>
        <pt x="52" y="181" on="0"/>
        <pt x="52" y="271" on="1"/>
        <pt x="52" y="362" on="0"/>
        <pt x="124" y="489" on="0"/>
        <pt x="244" y="557" on="0"/>
        <pt x="313" y="557" on="1"/>
        <pt x="366" y="557" on="0"/>
        <pt x="443" y="519" on="0"/>
        <pt x="471" y="493" on="1"/>
        <pt x="425" y="433" on="1"/>
        <pt x="402" y="454" on="0"/>
        <pt x="349" y="480" on="0"/>
        <pt x="317" y="480" on="1"/>
        <pt x="268" y="480" on="0"/>
        <pt x="190" y="428" on="0"/>
        <pt x="146" y="334" on="0"/>
        <pt x="146" y="271" on="1"/>
        <pt x="146" y="209" on="0"/>
        <pt x="189" y="115" on="0"/>
        <pt x="264" y="63" on="0"/>
        <pt x="314" y="63" on="1"/>
        <pt x="352" y="63" on="0"/>
        <pt x="416" y="94" on="0"/>
        <pt x="442" y="117" on="1"/>
        <pt x="482" y="55" on="1"/>
        <pt x="445" y="23" on="0"/>
        <pt x="355" y="-13" on="0"/>
      </contour>
    </TTGlyph>
    <TTGlyph name="colon" xMin="73" yMin="-13" xMax="205" yMax="530">
      <contour>
        <pt x="139" y="390" on="1"/>
        <pt x="112" y="390" on="0"/>
        <pt x="73" y="429" on="0"/>
        <pt x="73" y="460" on="1"/>
        <pt x="73" y="491" on="0"/>
        <pt x="112" y="530" on="0"/>
        <pt x="139" y="530" on="1"/>
        <pt x="166" y="530" on="0"/>
        <pt x="205" y="491" on="0"/>
        <pt x="205" y="460" on="1"/>
        <pt x="205" y="429" on="0"/>
        <pt x="166" y="390" on="0"/>
      </contour>
      <contour>
        <pt x="139" y="-13" on="1"/>
        <pt x="112" y="-13" on="0"/>
        <pt x="73" y="26" on="0"/>
        <pt x="73" y="56" on="1"/>
        <pt x="73" y="88" on="0"/>
        <pt x="112" y="126" on="0"/>
        <pt x="139" y="126" on="1"/>
        <pt x="166" y="126" on="0"/>
        <pt x="205" y="88" on="0"/>
        <pt x="205" y="56" on="1"/>
        <pt x="205" y="26" on="0"/>
        <pt x="166" y="-13" on="0"/>
      </contour>
    </TTGlyph>
    <TTGlyph name="comma" xMin="53" yMin="-190" xMax="221" yMax="126">
      <contour>
        <pt x="75" y="-190" on="1"/>
        <pt x="53" y="-136" on="1"/>
        <pt x="100" y="-115" on="0"/>
        <pt x="154" y="-43" on="0"/>
        <pt x="153" y="3" on="1"/>
        <pt x="143" y="85" on="1"/>
        <pt x="188" y="18" on="1"/>
        <pt x="178" y="7" on="0"/>
        <pt x="155" y="-2" on="0"/>
        <pt x="142" y="-2" on="1"/>
        <pt x="115" y="-2" on="0"/>
        <pt x="75" y="32" on="0"/>
        <pt x="75" y="62" on="1"/>
        <pt x="75" y="92" on="0"/>
        <pt x="116" y="126" on="0"/>
        <pt x="144" y="126" on="1"/>
        <pt x="180" y="126" on="0"/>
        <pt x="221" y="69" on="0"/>
        <pt x="221" y="19" on="1"/>
        <pt x="221" y="-53" on="0"/>
        <pt x="142" y="-161" on="0"/>
      </contour>
    </TTGlyph>
    <TTGlyph name="d" xMin="53" yMin="-13" xMax="528" yMax="796">
      <contour>
        <pt x="277" y="-13" on="1"/>
        <pt x="209" y="-13" on="0"/>
        <pt x="108" y="53" on="0"/>
        <pt x="53" y="180" on="0"/>
        <pt x="53" y="271" on="1"/>
        <pt x="53" y="359" on="0"/>
        <pt x="119" y="487" on="0"/>
        <pt x="226" y="557" on="0"/>
        <pt x="288" y="557" on="1"/>
        <pt x="336" y="557" on="0"/>
        <pt x="405" y="524" on="0"/>
        <pt x="441" y="494" on="1"/>
        <pt x="436" y="587" on="1"/>
        <pt x="436" y="796" on="1"/>
        <pt x="528" y="796" on="1"/>
        <pt x="528" y="0" on="1"/>
        <pt x="453" y="0" on="1"/>
        <pt x="445" y="64" on="1"/>
        <pt x="442" y="64" on="1"/>
        <pt x="410" y="32" on="0"/>
        <pt x="326" y="-13" on="0"/>
      </contour>
      <contour>
        <pt x="297" y="64" on="1"/>
        <pt x="335" y="64" on="0"/>
        <pt x="403" y="101" on="0"/>
        <pt x="436" y="138" on="1"/>
        <pt x="436" y="423" on="1"/>
        <pt x="402" y="454" on="0"/>
        <pt x="338" y="480" on="0"/>
        <pt x="304" y="480" on="1"/>
        <pt x="261" y="480" on="0"/>
        <pt x="190" y="427" on="0"/>
        <pt x="147" y="334" on="0"/>
        <pt x="147" y="272" on="1"/>
        <pt x="147" y="207" on="0"/>
        <pt x="183" y="113" on="0"/>
        <pt x="250" y="64" on="0"/>
      </contour>
    </TTGlyph>
    <TTGlyph name="e" xMin="52" yMin="-13" xMax="512" yMax="557">
      <contour>
        <pt x="312" y="-13" on="1"/>
        <pt x="239" y="-13" on="0"/>
        <pt x="121" y="55" on="0"/>
        <pt x="52" y="182" on="0"/>
        <pt x="52" y="271" on="1"/>
        <pt x="52" y="338" on="0"/>
        <pt x="92" y="443" on="0"/>
        <pt x="161" y="518" on="0"/>
        <pt x="249" y="557" on="0"/>
        <pt x="295" y="557" on="1"/>
        <pt x="365" y="557" on="0"/>
        <pt x="461" y="495" on="0"/>
        <pt x="512" y="380" on="0"/>
        <pt x="512" y="302" on="1"/>
        <pt x="512" y="287" on="0"/>
        <pt x="510" y="261" on="0"/>
        <pt x="508" y="250" on="1"/>
        <pt x="142" y="250" on="1"/>
        <pt x="145" y="192" on="0"/>
        <pt x="192" y="107" on="0"/>
        <pt x="270" y="60" on="0"/>
        <pt x="322" y="60" on="1"/>
        <pt x="362" y="60" on="0"/>
        <pt x="427" y="83" on="0"/>
        <pt x="458" y="103" on="1"/>
        <pt x="490" y="42" on="1"/>
        <pt x="455" y="19" on="0"/>
        <pt x="367" y="-13" on="0"/>
      </contour>
      <contour>
        <pt x="141" y="315" on="1"/>
        <pt x="432" y="315" on="1"/>
        <pt x="432" y="397" on="0"/>
        <pt x="361" y="484" on="0"/>
        <pt x="297" y="484" on="1"/>
        <pt x="259" y="484" on="0"/>
        <pt x="192" y="444" on="0"/>
        <pt x="147" y="370" on="0"/>
      </contour>
    </TTGlyph>
    <TTGlyph name="eight" xMin="46" yMin="-13" xMax="509" yMax="744">
      <contour>
        <pt x="280" y="-13" on="1"/>
        <pt x="212" y="-13" on="0"/>
        <pt x="106" y="37" on="0"/>
        <pt x="46" y="125" on="0"/>
        <pt x="46" y="182" on="1"/>
        <pt x="46" y="231" on="0"/>
        <pt x="85" y="310" on="0"/>
        <pt x="147" y="367" on="0"/>
        <pt x="180" y="385" on="1"/>
        <pt x="180" y="389" on="1"/>
        <pt x="140" y="417" on="0"/>
        <pt x="81" y="500" on="0"/>
        <pt x="81" y="558" on="1"/>
        <pt x="81" y="614" on="0"/>
        <pt x="134" y="697" on="0"/>
        <pt x="225" y="744" on="0"/>
        <pt x="282" y="744" on="1"/>
        <pt x="345" y="744" on="0"/>
        <pt x="435" y="694" on="0"/>
        <pt x="483" y="608" on="0"/>
        <pt x="483" y="551" on="1"/>
        <pt x="483" y="513" on="0"/>
        <pt x="452" y="445" on="0"/>
        <pt x="408" y="392" on="0"/>
        <pt x="386" y="374" on="1"/>
        <pt x="386" y="369" on="1"/>
        <pt x="418" y="351" on="0"/>
        <pt x="474" y="300" on="0"/>
        <pt x="509" y="227" on="0"/>
        <pt x="509" y="176" on="1"/>
        <pt x="509" y="124" on="0"/>
        <pt x="452" y="37" on="0"/>
        <pt x="349" y="-13" on="0"/>
      </contour>
      <contour>
        <pt x="330" y="398" on="1"/>
        <pt x="367" y="431" on="0"/>
        <pt x="405" y="506" on="0"/>
        <pt x="405" y="546" on="1"/>
        <pt x="405" y="583" on="0"/>
        <pt x="376" y="641" on="0"/>
        <pt x="320" y="676" on="0"/>
        <pt x="281" y="676" on="1"/>
        <pt x="230" y="676" on="0"/>
        <pt x="164" y="612" on="0"/>
        <pt x="164" y="558" on="1"/>
        <pt x="164" y="515" on="0"/>
        <pt x="211" y="456" on="0"/>
        <pt x="287" y="415" on="0"/>
      </contour>
      <contour>
        <pt x="281" y="55" on="1"/>
        <pt x="324" y="55" on="0"/>
        <pt x="387" y="87" on="0"/>
        <pt x="422" y="143" on="0"/>
        <pt x="422" y="179" on="1"/>
        <pt x="422" y="216" on="0"/>
        <pt x="390" y="269" on="0"/>
        <pt x="337" y="309" on="0"/>
        <pt x="267" y="341" on="0"/>
        <pt x="228" y="356" on="1"/>
        <pt x="184" y="328" on="0"/>
        <pt x="127" y="243" on="0"/>
        <pt x="127" y="190" on="1"/>
        <pt x="127" y="152" on="0"/>
        <pt x="167" y="90" on="0"/>
        <pt x="238" y="55" on="0"/>
      </contour>
    </TTGlyph>
    <TTGlyph name="exclam" xMin="95" yMin="-13" xMax="227" yMax="749">
      <contour>
        <pt x="130" y="221" on="1"/>
        <pt x="117" y="645" on="1"/>
        <pt x="115" y="749" on="1"/>
        <pt x="207" y="749" on="1"/>
        <pt x="205" y="645" on="1"/>
        <pt x="193" y="221" on="1"/>
      </contour>
      <contour>
        <pt x="161" y="-13" on="1"/>
        <pt x="134" y="-13" on="0"/>
        <pt x="95" y="26" on="0"/>
        <pt x="95" y="56" on="1"/>
        <pt x="95" y="88" on="0"/>
        <pt x="134" y="126" on="0"/>
        <pt x="161" y="126" on="1"/>
        <pt x="189" y="126" on="0"/>
        <pt x="227" y="88" on="0"/>
        <pt x="227" y="56" on="1"/>
        <pt x="227" y="26" on="0"/>
        <pt x="189" y="-13" on="0"/>
      </contour>
    </TTGlyph>
    <TTGlyph name="f" xMin="33" yMin="0" xMax="356" yMax="809">
      <contour>
        <pt x="107" y="0" on="1"/>
        <pt x="107" y="630" on="1"/>
        <pt x="107" y="685" on="0"/>
        <pt x="141" y="765" on="0"/>
        <pt x="211" y="809" on="0"/>
        <pt x="265" y="809" on="1"/>
        <pt x="290" y="809" on="0"/>
        <pt x="337" y="799" on="0"/>
        <pt x="356" y="792" on="1"/>
        <pt x="336" y="721" on="1"/>
        <pt x="306" y="736" on="0"/>
        <pt x="275" y="736" on="1"/>
        <pt x="236" y="736" on="0"/>
        <pt x="198" y="682" on="0"/>
        <pt x="198" y="629" on="1"/>
        <pt x="198" y="0" on="1"/>
      </contour>
      <contour>
        <pt x="33" y="469" on="1"/>
        <pt x="33" y="538" on="1"/>
        <pt x="111" y="543" on="1"/>
        <pt x="313" y="543" on="1"/>
        <pt x="313" y="469" on="1"/>
      </contour>
    </TTGlyph>
    <TTGlyph name="five" xMin="27" yMin="-13" xMax="502" yMax="733">
      <contour>
        <pt x="262" y="-13" on="1"/>
        <pt x="205" y="-13" on="0"/>
        <pt x="118" y="15" on="0"/>
        <pt x="53" y="59" on="0"/>
        <pt x="27" y="84" on="1"/>
        <pt x="73" y="144" on="1"/>
        <pt x="94" y="123" on="0"/>
        <pt x="145" y="86" on="0"/>
        <pt x="211" y="63" on="0"/>
        <pt x="253" y="63" on="1"/>
        <pt x="296" y="63" on="0"/>
        <pt x="367" y="105" on="0"/>
        <pt x="409" y="183" on="0"/>
        <pt x="409" y="236" on="1"/>
        <pt x="409" y="314" on="0"/>
        <pt x="326" y="403" on="0"/>
        <pt x="257" y="403" on="1"/>
        <pt x="221" y="403" on="0"/>
        <pt x="167" y="381" on="0"/>
        <pt x="135" y="360" on="1"/>
        <pt x="86" y="391" on="1"/>
        <pt x="110" y="733" on="1"/>
        <pt x="466" y="733" on="1"/>
        <pt x="466" y="655" on="1"/>
        <pt x="190" y="655" on="1"/>
        <pt x="171" y="443" on="1"/>
        <pt x="195" y="457" on="0"/>
        <pt x="248" y="472" on="0"/>
        <pt x="281" y="472" on="1"/>
        <pt x="342" y="472" on="0"/>
        <pt x="442" y="423" on="0"/>
        <pt x="502" y="319" on="0"/>
        <pt x="502" y="238" on="1"/>
        <pt x="502" y="158" on="0"/>
        <pt x="433" y="46" on="0"/>
        <pt x="323" y="-13" on="0"/>
      </contour>
    </TTGlyph>
    <TTGlyph name="four" xMin="20" yMin="0" xMax="524" yMax="733">
      <contour>
        <pt x="340" y="0" on="1"/>
        <pt x="340" y="500" on="1"/>
        <pt x="340" y="527" on="0"/>
        <pt x="344" y="605" on="0"/>
        <pt x="345" y="633" on="1"/>
        <pt x="341" y="633" on="1"/>
        <pt x="327" y="607" on="0"/>
        <pt x="298" y="552" on="0"/>
        <pt x="282" y="525" on="1"/>
        <pt x="115" y="275" on="1"/>
        <pt x="524" y="275" on="1"/>
        <pt x="524" y="202" on="1"/>
        <pt x="20" y="202" on="1"/>
        <pt x="20" y="262" on="1"/>
        <pt x="325" y="733" on="1"/>
        <pt x="426" y="733" on="1"/>
        <pt x="426" y="0" on="1"/>
      </contour>
    </TTGlyph>
    <TTGlyph name="g" xMin="51" yMin="-250" xMax="550" yMax="557">
      <contour>
        <pt x="275" y="-250" on="1"/>
        <pt x="209" y="-250" on="0"/>
        <pt x="107" y="-216" on="0"/>
        <pt x="51" y="-151" on="0"/>
        <pt x="51" y="-105" on="1"/>
        <pt x="51" y="-70" on="0"/>
        <pt x="93" y="-5" on="0"/>
        <pt x="131" y="18" on="1"/>
        <pt x="131" y="23" on="1"/>
        <pt x="110" y="36" on="0"/>
        <pt x="82" y="80" on="0"/>
        <pt x="82" y="112" on="1"/>
        <pt x="82" y="146" on="0"/>
        <pt x="121" y="198" on="0"/>
        <pt x="142" y="213" on="1"/>
        <pt x="142" y="217" on="1"/>
        <pt x="115" y="238" on="0"/>
        <pt x="71" y="314" on="0"/>
        <pt x="71" y="363" on="1"/>
        <pt x="71" y="423" on="0"/>
        <pt x="127" y="510" on="0"/>
        <pt x="220" y="557" on="0"/>
        <pt x="274" y="557" on="1"/>
        <pt x="298" y="557" on="0"/>
        <pt x="337" y="549" on="0"/>
        <pt x="351" y="543" on="1"/>
        <pt x="540" y="543" on="1"/>
        <pt x="540" y="473" on="1"/>
        <pt x="429" y="473" on="1"/>
        <pt x="449" y="454" on="0"/>
        <pt x="473" y="396" on="0"/>
        <pt x="473" y="361" on="1"/>
        <pt x="473" y="303" on="0"/>
        <pt x="420" y="218" on="0"/>
        <pt x="330" y="172" on="0"/>
        <pt x="274" y="172" on="1"/>
        <pt x="255" y="172" on="0"/>
        <pt x="212" y="182" on="0"/>
        <pt x="194" y="191" on="1"/>
        <pt x="179" y="179" on="0"/>
        <pt x="159" y="149" on="0"/>
        <pt x="159" y="126" on="1"/>
        <pt x="159" y="101" on="0"/>
        <pt x="199" y="67" on="0"/>
        <pt x="254" y="67" on="1"/>
        <pt x="361" y="67" on="1"/>
        <pt x="455" y="67" on="0"/>
        <pt x="550" y="5" on="0"/>
        <pt x="550" y="-62" on="1"/>
        <pt x="550" y="-112" on="0"/>
        <pt x="482" y="-198" on="0"/>
        <pt x="359" y="-250" on="0"/>
      </contour>
      <contour>
        <pt x="274" y="234" on="1"/>
        <pt x="306" y="234" on="0"/>
        <pt x="359" y="266" on="0"/>
        <pt x="390" y="324" on="0"/>
        <pt x="390" y="363" on="1"/>
        <pt x="390" y="403" on="0"/>
        <pt x="359" y="460" on="0"/>
        <pt x="307" y="490" on="0"/>
        <pt x="274" y="490" on="1"/>
        <pt x="243" y="490" on="0"/>
        <pt x="190" y="460" on="0"/>
        <pt x="159" y="404" on="0"/>
        <pt x="159" y="363" on="1"/>
        <pt x="159" y="324" on="0"/>
        <pt x="191" y="266" on="0"/>
        <pt x="243" y="234" on="0"/>
      </contour>
      <contour>
        <pt x="288" y="-187" on="1"/>
        <pt x="340" y="-187" on="0"/>
        <pt x="417" y="-155" on="0"/>
        <pt x="460" y="-104" on="0"/>
        <pt x="460" y="-77" on="1"/>
        <pt x="460" y="-38" on="0"/>
        <pt x="404" y="-8" on="0"/>
        <pt x="350" y="-8" on="1"/>
        <pt x="256" y="-8" on="1"/>
        <pt x="241" y="-8" on="0"/>
        <pt x="204" y="-5" on="0"/>
        <pt x="186" y="0" on="1"/>
        <pt x="157" y="-20" on="0"/>
        <pt x="131" y="-69" on="0"/>
        <pt x="131" y="-92" on="1"/>
        <pt x="131" y="-135" on="0"/>
        <pt x="214" y="-187" on="0"/>
      </contour>
    </TTGlyph>
    <TTGlyph name="glyph02241" xMin="33" yMin="0" xMax="674" yMax="809">
      <contour>
        <pt x="107" y="0" on="1"/>
        <pt x="107" y="615" on="1"/>
        <pt x="107" y="672" on="0"/>
        <pt x="144" y="753" on="0"/>
        <pt x="219" y="798" on="0"/>
        <pt x="275" y="798" on="1"/>
        <pt x="303" y="798" on="0"/>
        <pt x="354" y="788" on="0"/>
        <pt x="375" y="779" on="1"/>
        <pt x="356" y="709" on="1"/>
        <pt x="339" y="717" on="0"/>
        <pt x="303" y="725" on="0"/>
        <pt x="283" y="725" on="1"/>
        <pt x="243" y="725" on="0"/>
        <pt x="198" y="667" on="0"/>
        <pt x="198" y="613" on="1"/>
        <pt x="198" y="0" on="1"/>
      </contour>
      <contour>
        <pt x="425" y="0" on="1"/>
        <pt x="425" y="630" on="1"/>
        <pt x="425" y="685" on="0"/>
        <pt x="459" y="765" on="0"/>
        <pt x="530" y="809" on="0"/>
        <pt x="584" y="809" on="1"/>
        <pt x="609" y="809" on="0"/>
        <pt x="655" y="799" on="0"/>
        <pt x="674" y="792" on="1"/>
        <pt x="655" y="721" on="1"/>
        <pt x="624" y="736" on="0"/>
        <pt x="592" y="736" on="1"/>
        <pt x="554" y="736" on="0"/>
        <pt x="516" y="682" on="0"/>
        <pt x="516" y="629" on="1"/>
        <pt x="516" y="0" on="1"/>
      </contour>
      <contour>
        <pt x="33" y="469" on="1"/>
        <pt x="33" y="538" on="1"/>
        <pt x="111" y="543" on="1"/>
        <pt x="631" y="543" on="1"/>
        <pt x="631" y="469" on="1"/>
      </contour>
    </TTGlyph>
    <TTGlyph name="glyph02242" xMin="33" yMin="0" xMax="525" yMax="809">
      <contour>
        <pt x="107" y="0" on="1"/>
        <pt x="107" y="630" on="1"/>
        <pt x="107" y="685" on="0"/>
        <pt x="141" y="765" on="0"/>
        <pt x="211" y="809" on="0"/>
        <pt x="265" y="809" on="1"/>
        <pt x="290" y="809" on="0"/>
        <pt x="337" y="799" on="0"/>
        <pt x="356" y="792" on="1"/>
        <pt x="336" y="721" on="1"/>
        <pt x="306" y="736" on="0"/>
        <pt x="275" y="736" on="1"/>
        <pt x="236" y="736" on="0"/>
        <pt x="198" y="682" on="0"/>
        <pt x="198" y="629" on="1"/>
        <pt x="198" y="0" on="1"/>
      </contour>
      <contour>
        <pt x="33" y="469" on="1"/>
        <pt x="33" y="538" on="1"/>
        <pt x="111" y="543" on="1"/>
        <pt x="313" y="543" on="1"/>
        <pt x="313" y="469" on="1"/>
      </contour>
      <contour>
        <pt x="417" y="0" on="1"/>
        <pt x="417" y="543" on="1"/>
        <pt x="509" y="543" on="1"/>
        <pt x="509" y="0" on="1"/>
      </contour>
      <contour>
        <pt x="463" y="655" on="1"/>
        <pt x="437" y="655" on="0"/>
        <pt x="403" y="688" on="0"/>
        <pt x="403" y="716" on="1"/>
        <pt x="403" y="743" on="0"/>
        <pt x="437" y="775" on="0"/>
        <pt x="463" y="775" on="1"/>
        <pt x="490" y="775" on="0"/>
        <pt x="525" y="743" on="0"/>
        <pt x="525" y="716" on="1"/>
        <pt x="525" y="688" on="0"/>
        <pt x="490" y="655" on="0"/>
      </contour>
    </TTGlyph>
    <TTGlyph name="glyph02243" xMin="33" yMin="-13" xMax="566" yMax="809">
      <contour>
        <pt x="107" y="0" on="1"/>
        <pt x="107" y="630" on="1"/>
        <pt x="107" y="685" on="0"/>
        <pt x="141" y="765" on="0"/>
        <pt x="211" y="809" on="0"/>
        <pt x="265" y="809" on="1"/>
        <pt x="290" y="809" on="0"/>
        <pt x="337" y="799" on="0"/>
        <pt x="356" y="792" on="1"/>
        <pt x="336" y="721" on="1"/>
        <pt x="306" y="736" on="0"/>
        <pt x="275" y="736" on="1"/>
        <pt x="236" y="736" on="0"/>
        <pt x="198" y="682" on="0"/>
        <pt x="198" y="629" on="1"/>
        <pt x="198" y="0" on="1"/>
      </contour>
      <contour>
        <pt x="33" y="469" on="1"/>
        <pt x="33" y="538" on="1"/>
        <pt x="111" y="543" on="1"/>
        <pt x="313" y="543" on="1"/>
        <pt x="313" y="469" on="1"/>
      </contour>
      <contour>
        <pt x="514" y="-13" on="1"/>
        <pt x="480" y="-13" on="0"/>
        <pt x="437" y="15" on="0"/>
        <pt x="417" y="70" on="0"/>
        <pt x="417" y="108" on="1"/>
        <pt x="417" y="796" on="1"/>
        <pt x="509" y="796" on="1"/>
        <pt x="509" y="102" on="1"/>
        <pt x="509" y="81" on="0"/>
        <pt x="524" y="63" on="0"/>
        <pt x="534" y="63" on="1"/>
        <pt x="538" y="63" on="0"/>
        <pt x="546" y="64" on="0"/>
        <pt x="554" y="65" on="1"/>
        <pt x="566" y="-5" on="1"/>
        <pt x="557" y="-8" on="0"/>
        <pt x="533" y="-13" on="0"/>
      </contour>
    </TTGlyph>
    <TTGlyph name="glyph02244" xMin="33" yMin="0" xMax="843" yMax="809">
      <contour>
        <pt x="107" y="0" on="1"/>
        <pt x="107" y="615" on="1"/>
        <pt x="107" y="672" on="0"/>
        <pt x="144" y="753" on="0"/>
        <pt x="219" y="798" on="0"/>
        <pt x="275" y="798" on="1"/>
        <pt x="303" y="798" on="0"/>
        <pt x="354" y="788" on="0"/>
        <pt x="375" y="779" on="1"/>
        <pt x="356" y="709" on="1"/>
        <pt x="339" y="717" on="0"/>
        <pt x="303" y="725" on="0"/>
        <pt x="283" y="725" on="1"/>
        <pt x="243" y="725" on="0"/>
        <pt x="198" y="667" on="0"/>
        <pt x="198" y="613" on="1"/>
        <pt x="198" y="0" on="1"/>
      </contour>
      <contour>
        <pt x="425" y="0" on="1"/>
        <pt x="425" y="630" on="1"/>
        <pt x="425" y="685" on="0"/>
        <pt x="459" y="765" on="0"/>
        <pt x="530" y="809" on="0"/>
        <pt x="584" y="809" on="1"/>
        <pt x="609" y="809" on="0"/>
        <pt x="655" y="799" on="0"/>
        <pt x="674" y="792" on="1"/>
        <pt x="655" y="721" on="1"/>
        <pt x="624" y="736" on="0"/>
        <pt x="592" y="736" on="1"/>
        <pt x="554" y="736" on="0"/>
        <pt x="516" y="682" on="0"/>
        <pt x="516" y="629" on="1"/>
        <pt x="516" y="0" on="1"/>
      </contour>
      <contour>
        <pt x="33" y="469" on="1"/>
        <pt x="33" y="538" on="1"/>
        <pt x="111" y="543" on="1"/>
        <pt x="631" y="543" on="1"/>
        <pt x="631" y="469" on="1"/>
      </contour>
      <contour>
        <pt x="736" y="0" on="1"/>
        <pt x="736" y="543" on="1"/>
        <pt x="827" y="543" on="1"/>
        <pt x="827" y="0" on="1"/>
      </contour>
      <contour>
        <pt x="781" y="655" on="1"/>
        <pt x="755" y="655" on="0"/>
        <pt x="721" y="688" on="0"/>
        <pt x="721" y="716" on="1"/>
        <pt x="721" y="743" on="0"/>
        <pt x="755" y="775" on="0"/>
        <pt x="781" y="775" on="1"/>
        <pt x="808" y="775" on="0"/>
        <pt x="843" y="743" on="0"/>
        <pt x="843" y="716" on="1"/>
        <pt x="843" y="688" on="0"/>
        <pt x="808" y="655" on="0"/>
      </contour>
    </TTGlyph>
    <TTGlyph name="glyph02245" xMin="33" yMin="-13" xMax="885" yMax="809">
      <contour>
        <pt x="107" y="0" on="1"/>
        <pt x="107" y="615" on="1"/>
        <pt x="107" y="672" on="0"/>
        <pt x="144" y="753" on="0"/>
        <pt x="219" y="798" on="0"/>
        <pt x="275" y="798" on="1"/>
        <pt x="303" y="798" on="0"/>
        <pt x="354" y="788" on="0"/>
        <pt x="375" y="779" on="1"/>
        <pt x="356" y="709" on="1"/>
        <pt x="339" y="717" on="0"/>
        <pt x="303" y="725" on="0"/>
        <pt x="283" y="725" on="1"/>
        <pt x="243" y="725" on="0"/>
        <pt x="198" y="667" on="0"/>
        <pt x="198" y="613" on="1"/>
        <pt x="198" y="0" on="1"/>
      </contour>
      <contour>
        <pt x="425" y="0" on="1"/>
        <pt x="425" y="630" on="1"/>
        <pt x="425" y="685" on="0"/>
        <pt x="459" y="765" on="0"/>
        <pt x="530" y="809" on="0"/>
        <pt x="584" y="809" on="1"/>
        <pt x="609" y="809" on="0"/>
        <pt x="655" y="799" on="0"/>
        <pt x="674" y="792" on="1"/>
        <pt x="655" y="721" on="1"/>
        <pt x="624" y="736" on="0"/>
        <pt x="592" y="736" on="1"/>
        <pt x="554" y="736" on="0"/>
        <pt x="516" y="682" on="0"/>
        <pt x="516" y="629" on="1"/>
        <pt x="516" y="0" on="1"/>
      </contour>
      <contour>
        <pt x="33" y="469" on="1"/>
        <pt x="33" y="538" on="1"/>
        <pt x="111" y="543" on="1"/>
        <pt x="631" y="543" on="1"/>
        <pt x="631" y="469" on="1"/>
      </contour>
      <contour>
        <pt x="832" y="-13" on="1"/>
        <pt x="799" y="-13" on="0"/>
        <pt x="756" y="15" on="0"/>
        <pt x="736" y="70" on="0"/>
        <pt x="736" y="108" on="1"/>
        <pt x="736" y="796" on="1"/>
        <pt x="827" y="796" on="1"/>
        <pt x="827" y="102" on="1"/>
        <pt x="827" y="81" on="0"/>
        <pt x="842" y="63" on="0"/>
        <pt x="852" y="63" on="1"/>
        <pt x="856" y="63" on="0"/>
        <pt x="865" y="64" on="0"/>
        <pt x="872" y="65" on="1"/>
        <pt x="885" y="-5" on="1"/>
        <pt x="875" y="-8" on="0"/>
        <pt x="850" y="-13" on="0"/>
      </contour>
    </TTGlyph>
    <TTGlyph name="glyph02247" xMin="662" yMin="549" xMax="946" yMax="824">
      <contour>
        <pt x="880" y="549" on="1"/>
        <pt x="832" y="607" on="0"/>
        <pt x="714" y="726" on="0"/>
        <pt x="662" y="768" on="1"/>
        <pt x="726" y="824" on="1"/>
        <pt x="761" y="796" on="0"/>
        <pt x="840" y="721" on="0"/>
        <pt x="916" y="643" on="0"/>
        <pt x="946" y="606" on="1"/>
      </contour>
    </TTGlyph>
    <TTGlyph name="glyph02248" xMin="653" yMin="515" xMax="953" yMax="815">
      <contour>
        <pt x="803" y="815" on="1"/>
        <pt x="844" y="815" on="0"/>
        <pt x="912" y="774" on="0"/>
        <pt x="953" y="706" on="0"/>
        <pt x="953" y="665" on="1"/>
        <pt x="953" y="623" on="0"/>
        <pt x="912" y="556" on="0"/>
        <pt x="844" y="515" on="0"/>
        <pt x="803" y="515" on="1"/>
        <pt x="762" y="515" on="0"/>
        <pt x="693" y="556" on="0"/>
        <pt x="653" y="623" on="0"/>
        <pt x="653" y="665" on="1"/>
        <pt x="653" y="706" on="0"/>
        <pt x="693" y="774" on="0"/>
        <pt x="762" y="815" on="0"/>
      </contour>
      <contour>
        <pt x="802" y="565" on="1"/>
        <pt x="844" y="565" on="0"/>
        <pt x="902" y="623" on="0"/>
        <pt x="902" y="665" on="1"/>
        <pt x="902" y="693" on="0"/>
        <pt x="876" y="737" on="0"/>
        <pt x="830" y="764" on="0"/>
        <pt x="803" y="764" on="1"/>
        <pt x="776" y="764" on="0"/>
        <pt x="730" y="737" on="0"/>
        <pt x="703" y="693" on="0"/>
        <pt x="703" y="665" on="1"/>
        <pt x="703" y="637" on="0"/>
        <pt x="730" y="592" on="0"/>
        <pt x="776" y="565" on="0"/>
      </contour>
    </TTGlyph>
    <TTGlyph name="glyph02249" xMin="24" yMin="-74" xMax="976" yMax="185">
      <contour>
        <pt x="500" y="185" on="1"/>
        <pt x="598" y="185" on="0"/>
        <pt x="768" y="136" on="0"/>
        <pt x="915" y="46" on="0"/>
        <pt x="976" y="-14" on="1"/>
        <pt x="945" y="-74" on="1"/>
        <pt x="886" y="-17" on="0"/>
        <pt x="747" y="67" on="0"/>
        <pt x="590" y="112" on="0"/>
        <pt x="500" y="112" on="1"/>
        <pt x="411" y="112" on="0"/>
        <pt x="253" y="67" on="0"/>
        <pt x="115" y="-17" on="0"/>
        <pt x="55" y="-74" on="1"/>
        <pt x="24" y="-14" on="1"/>
        <pt x="86" y="46" on="0"/>
        <pt x="232" y="136" on="0"/>
        <pt x="403" y="185" on="0"/>
      </contour>
    </TTGlyph>
    <TTGlyph name="glyph02250" xMin="24" yMin="575" xMax="976" yMax="834">
      <contour>
        <pt x="500" y="575" on="1"/>
        <pt x="403" y="575" on="0"/>
        <pt x="232" y="624" on="0"/>
        <pt x="86" y="714" on="0"/>
        <pt x="24" y="774" on="1"/>
        <pt x="55" y="834" on="1"/>
        <pt x="115" y="777" on="0"/>
        <pt x="253" y="693" on="0"/>
        <pt x="411" y="648" on="0"/>
        <pt x="500" y="648" on="1"/>
        <pt x="590" y="648" on="0"/>
        <pt x="747" y="693" on="0"/>
        <pt x="886" y="777" on="0"/>
        <pt x="945" y="834" on="1"/>
        <pt x="976" y="774" on="1"/>
        <pt x="915" y="714" on="0"/>
        <pt x="768" y="624" on="0"/>
        <pt x="598" y="575" on="0"/>
      </contour>
    </TTGlyph>
    <TTGlyph name="glyph02259" xMin="269" yMin="-86" xMax="975" yMax="230">
      <contour>
        <pt x="975" y="230" on="1"/>
        <pt x="975" y="-86" on="1"/>
        <pt x="901" y="-86" on="1"/>
        <pt x="901" y="158" on="1"/>
        <pt x="269" y="158" on="1"/>
        <pt x="269" y="230" on="1"/>
      </contour>
    </TTGlyph>
    <TTGlyph name="glyph02260" xMin="25" yMin="522" xMax="731" yMax="838">
      <contour>
        <pt x="25" y="522" on="1"/>
        <pt x="25" y="838" on="1"/>
        <pt x="99" y="838" on="1"/>
        <pt x="99" y="594" on="1"/>
        <pt x="731" y="594" on="1"/>
        <pt x="731" y="522" on="1"/>
      </contour>
    </TTGlyph>
    <TTGlyph name="glyph02376" xMin="50" yMin="-13" xMax="506" yMax="726">
      <contour>
        <pt x="278" y="-13" on="1"/>
        <pt x="207" y="-13" on="0"/>
        <pt x="105" y="73" on="0"/>
        <pt x="50" y="239" on="0"/>
        <pt x="50" y="359" on="1"/>
        <pt x="50" y="478" on="0"/>
        <pt x="105" y="642" on="0"/>
        <pt x="207" y="726" on="0"/>
        <pt x="278" y="726" on="1"/>
        <pt x="349" y="726" on="0"/>
        <pt x="451" y="642" on="0"/>
        <pt x="506" y="478" on="0"/>
        <pt x="506" y="359" on="1"/>
        <pt x="506" y="239" on="0"/>
        <pt x="451" y="73" on="0"/>
        <pt x="349" y="-13" on="0"/>
      </contour>
      <contour>
        <pt x="278" y="61" on="1"/>
        <pt x="320" y="61" on="0"/>
        <pt x="383" y="123" on="0"/>
        <pt x="418" y="255" on="0"/>
        <pt x="418" y="359" on="1"/>
        <pt x="418" y="463" on="0"/>
        <pt x="383" y="593" on="0"/>
        <pt x="320" y="653" on="0"/>
        <pt x="278" y="653" on="1"/>
        <pt x="237" y="653" on="0"/>
        <pt x="173" y="593" on="0"/>
        <pt x="138" y="463" on="0"/>
        <pt x="138" y="359" on="1"/>
        <pt x="138" y="255" on="0"/>
        <pt x="173" y="123" on="0"/>
        <pt x="237" y="61" on="0"/>
      </contour>
    </TTGlyph>
    <TTGlyph name="glyph02377" xMin="88" yMin="0" xMax="490" yMax="713">
      <contour>
        <pt x="88" y="0" on="1"/>
        <pt x="88" y="76" on="1"/>
        <pt x="252" y="76" on="1"/>
        <pt x="252" y="602" on="1"/>
        <pt x="121" y="602" on="1"/>
        <pt x="121" y="660" on="1"/>
        <pt x="170" y="669" on="0"/>
        <pt x="243" y="695" on="0"/>
        <pt x="273" y="713" on="1"/>
        <pt x="343" y="713" on="1"/>
        <pt x="343" y="76" on="1"/>
        <pt x="490" y="76" on="1"/>
        <pt x="490" y="0" on="1"/>
      </contour>
    </TTGlyph>
    <TTGlyph name="glyph02378" xMin="40" yMin="0" xMax="505" yMax="726">
      <contour>
        <pt x="44" y="0" on="1"/>
        <pt x="44" y="54" on="1"/>
        <pt x="152" y="161" on="0"/>
        <pt x="302" y="324" on="0"/>
        <pt x="380" y="455" on="0"/>
        <pt x="380" y="513" on="1"/>
        <pt x="380" y="554" on="0"/>
        <pt x="351" y="617" on="0"/>
        <pt x="291" y="652" on="0"/>
        <pt x="245" y="652" on="1"/>
        <pt x="200" y="652" on="0"/>
        <pt x="123" y="602" on="0"/>
        <pt x="93" y="567" on="1"/>
        <pt x="40" y="618" on="1"/>
        <pt x="84" y="668" on="0"/>
        <pt x="186" y="726" on="0"/>
        <pt x="256" y="726" on="1"/>
        <pt x="322" y="726" on="0"/>
        <pt x="417" y="674" on="0"/>
        <pt x="470" y="580" on="0"/>
        <pt x="470" y="517" on="1"/>
        <pt x="470" y="450" on="0"/>
        <pt x="394" y="312" on="0"/>
        <pt x="262" y="161" on="0"/>
        <pt x="178" y="72" on="1"/>
        <pt x="206" y="74" on="0"/>
        <pt x="270" y="79" on="0"/>
        <pt x="298" y="79" on="1"/>
        <pt x="505" y="79" on="1"/>
        <pt x="505" y="0" on="1"/>
      </contour>
    </TTGlyph>
    <TTGlyph name="glyph02379" xMin="29" yMin="-13" xMax="499" yMax="726">
      <contour>
        <pt x="263" y="-13" on="1"/>
        <pt x="206" y="-13" on="0"/>
        <pt x="119" y="15" on="0"/>
        <pt x="53" y="61" on="0"/>
        <pt x="29" y="88" on="1"/>
        <pt x="76" y="147" on="1"/>
        <pt x="108" y="114" on="0"/>
        <pt x="195" y="63" on="0"/>
        <pt x="257" y="63" on="1"/>
        <pt x="301" y="63" on="0"/>
        <pt x="368" y="95" on="0"/>
        <pt x="406" y="154" on="0"/>
        <pt x="406" y="194" on="1"/>
        <pt x="406" y="237" on="0"/>
        <pt x="363" y="300" on="0"/>
        <pt x="263" y="335" on="0"/>
        <pt x="178" y="335" on="1"/>
        <pt x="178" y="406" on="1"/>
        <pt x="254" y="406" on="0"/>
        <pt x="342" y="441" on="0"/>
        <pt x="381" y="502" on="0"/>
        <pt x="381" y="539" on="1"/>
        <pt x="381" y="591" on="0"/>
        <pt x="315" y="652" on="0"/>
        <pt x="257" y="652" on="1"/>
        <pt x="213" y="652" on="0"/>
        <pt x="136" y="611" on="0"/>
        <pt x="105" y="579" on="1"/>
        <pt x="56" y="637" on="1"/>
        <pt x="98" y="675" on="0"/>
        <pt x="197" y="726" on="0"/>
        <pt x="260" y="726" on="1"/>
        <pt x="322" y="726" on="0"/>
        <pt x="419" y="684" on="0"/>
        <pt x="474" y="603" on="0"/>
        <pt x="474" y="546" on="1"/>
        <pt x="474" y="481" on="0"/>
        <pt x="402" y="397" on="0"/>
        <pt x="344" y="376" on="1"/>
        <pt x="344" y="372" on="1"/>
        <pt x="387" y="361" on="0"/>
        <pt x="457" y="313" on="0"/>
        <pt x="499" y="240" on="0"/>
        <pt x="499" y="190" on="1"/>
        <pt x="499" y="126" on="0"/>
        <pt x="435" y="36" on="0"/>
        <pt x="329" y="-13" on="0"/>
      </contour>
    </TTGlyph>
    <TTGlyph name="glyph02380" xMin="20" yMin="0" xMax="524" yMax="713">
      <contour>
        <pt x="340" y="0" on="1"/>
        <pt x="340" y="479" on="1"/>
        <pt x="340" y="506" on="0"/>
        <pt x="344" y="587" on="0"/>
        <pt x="345" y="615" on="1"/>
        <pt x="341" y="615" on="1"/>
        <pt x="327" y="590" on="0"/>
        <pt x="298" y="541" on="0"/>
        <pt x="282" y="514" on="1"/>
        <pt x="115" y="270" on="1"/>
        <pt x="524" y="270" on="1"/>
        <pt x="524" y="197" on="1"/>
        <pt x="20" y="197" on="1"/>
        <pt x="20" y="257" on="1"/>
        <pt x="325" y="713" on="1"/>
        <pt x="426" y="713" on="1"/>
        <pt x="426" y="0" on="1"/>
      </contour>
    </TTGlyph>
    <TTGlyph name="glyph02381" xMin="27" yMin="-13" xMax="502" yMax="713">
      <contour>
        <pt x="262" y="-13" on="1"/>
        <pt x="205" y="-13" on="0"/>
        <pt x="118" y="15" on="0"/>
        <pt x="53" y="59" on="0"/>
        <pt x="27" y="84" on="1"/>
        <pt x="73" y="144" on="1"/>
        <pt x="94" y="123" on="0"/>
        <pt x="145" y="86" on="0"/>
        <pt x="211" y="63" on="0"/>
        <pt x="253" y="63" on="1"/>
        <pt x="296" y="63" on="0"/>
        <pt x="367" y="103" on="0"/>
        <pt x="409" y="175" on="0"/>
        <pt x="409" y="225" on="1"/>
        <pt x="409" y="300" on="0"/>
        <pt x="326" y="383" on="0"/>
        <pt x="257" y="383" on="1"/>
        <pt x="221" y="383" on="0"/>
        <pt x="167" y="360" on="0"/>
        <pt x="135" y="339" on="1"/>
        <pt x="86" y="370" on="1"/>
        <pt x="110" y="713" on="1"/>
        <pt x="466" y="713" on="1"/>
        <pt x="466" y="634" on="1"/>
        <pt x="190" y="634" on="1"/>
        <pt x="171" y="422" on="1"/>
        <pt x="195" y="436" on="0"/>
        <pt x="248" y="451" on="0"/>
        <pt x="281" y="451" on="1"/>
        <pt x="342" y="451" on="0"/>
        <pt x="442" y="404" on="0"/>
        <pt x="502" y="305" on="0"/>
        <pt x="502" y="228" on="1"/>
        <pt x="502" y="151" on="0"/>
        <pt x="433" y="43" on="0"/>
        <pt x="323" y="-13" on="0"/>
      </contour>
    </TTGlyph>
    <TTGlyph name="glyph02382" xMin="54" yMin="-13" xMax="510" yMax="726">
      <contour>
        <pt x="300" y="-13" on="1"/>
        <pt x="247" y="-13" on="0"/>
        <pt x="157" y="29" on="0"/>
        <pt x="91" y="115" on="0"/>
        <pt x="54" y="244" on="0"/>
        <pt x="54" y="330" on="1"/>
        <pt x="54" y="437" on="0"/>
        <pt x="98" y="588" on="0"/>
        <pt x="174" y="683" on="0"/>
        <pt x="272" y="726" on="0"/>
        <pt x="325" y="726" on="1"/>
        <pt x="383" y="726" on="0"/>
        <pt x="467" y="683" on="0"/>
        <pt x="497" y="651" on="1"/>
        <pt x="446" y="594" on="1"/>
        <pt x="425" y="620" on="0"/>
        <pt x="362" y="650" on="0"/>
        <pt x="329" y="650" on="1"/>
        <pt x="278" y="650" on="0"/>
        <pt x="192" y="590" on="0"/>
        <pt x="140" y="450" on="0"/>
        <pt x="140" y="330" on="1"/>
        <pt x="140" y="242" on="0"/>
        <pt x="178" y="121" on="0"/>
        <pt x="249" y="59" on="0"/>
        <pt x="299" y="59" on="1"/>
        <pt x="335" y="59" on="0"/>
        <pt x="392" y="98" on="0"/>
        <pt x="425" y="168" on="0"/>
        <pt x="425" y="215" on="1"/>
        <pt x="425" y="262" on="0"/>
        <pt x="395" y="330" on="0"/>
        <pt x="336" y="367" on="0"/>
        <pt x="292" y="367" on="1"/>
        <pt x="257" y="367" on="0"/>
        <pt x="175" y="321" on="0"/>
        <pt x="138" y="266" on="1"/>
        <pt x="135" y="338" on="1"/>
        <pt x="158" y="368" on="0"/>
        <pt x="214" y="412" on="0"/>
        <pt x="277" y="435" on="0"/>
        <pt x="306" y="435" on="1"/>
        <pt x="368" y="435" on="0"/>
        <pt x="460" y="386" on="0"/>
        <pt x="510" y="288" on="0"/>
        <pt x="510" y="215" on="1"/>
        <pt x="510" y="147" on="0"/>
        <pt x="453" y="44" on="0"/>
        <pt x="357" y="-13" on="0"/>
      </contour>
    </TTGlyph>
    <TTGlyph name="glyph02383" xMin="49" yMin="0" xMax="508" yMax="713">
      <contour>
        <pt x="198" y="0" on="1"/>
        <pt x="203" y="101" on="0"/>
        <pt x="229" y="270" on="0"/>
        <pt x="278" y="420" on="0"/>
        <pt x="352" y="561" on="0"/>
        <pt x="405" y="634" on="1"/>
        <pt x="49" y="634" on="1"/>
        <pt x="49" y="713" on="1"/>
        <pt x="508" y="713" on="1"/>
        <pt x="508" y="657" on="1"/>
        <pt x="445" y="576" on="0"/>
        <pt x="365" y="428" on="0"/>
        <pt x="319" y="275" on="0"/>
        <pt x="297" y="104" on="0"/>
        <pt x="293" y="0" on="1"/>
      </contour>
    </TTGlyph>
    <TTGlyph name="glyph02384" xMin="46" yMin="-13" xMax="509" yMax="726">
      <contour>
        <pt x="280" y="-13" on="1"/>
        <pt x="212" y="-13" on="0"/>
        <pt x="106" y="37" on="0"/>
        <pt x="46" y="125" on="0"/>
        <pt x="46" y="182" on="1"/>
        <pt x="46" y="229" on="0"/>
        <pt x="85" y="302" on="0"/>
        <pt x="147" y="357" on="0"/>
        <pt x="180" y="375" on="1"/>
        <pt x="180" y="379" on="1"/>
        <pt x="140" y="407" on="0"/>
        <pt x="81" y="488" on="0"/>
        <pt x="81" y="544" on="1"/>
        <pt x="81" y="599" on="0"/>
        <pt x="134" y="681" on="0"/>
        <pt x="225" y="726" on="0"/>
        <pt x="282" y="726" on="1"/>
        <pt x="345" y="726" on="0"/>
        <pt x="435" y="678" on="0"/>
        <pt x="483" y="592" on="0"/>
        <pt x="483" y="537" on="1"/>
        <pt x="483" y="499" on="0"/>
        <pt x="452" y="433" on="0"/>
        <pt x="407" y="382" on="0"/>
        <pt x="386" y="365" on="1"/>
        <pt x="386" y="361" on="1"/>
        <pt x="417" y="342" on="0"/>
        <pt x="474" y="293" on="0"/>
        <pt x="509" y="225" on="0"/>
        <pt x="509" y="176" on="1"/>
        <pt x="509" y="124" on="0"/>
        <pt x="452" y="37" on="0"/>
        <pt x="349" y="-13" on="0"/>
      </contour>
      <contour>
        <pt x="330" y="388" on="1"/>
        <pt x="366" y="421" on="0"/>
        <pt x="405" y="492" on="0"/>
        <pt x="405" y="532" on="1"/>
        <pt x="405" y="567" on="0"/>
        <pt x="376" y="624" on="0"/>
        <pt x="320" y="658" on="0"/>
        <pt x="281" y="658" on="1"/>
        <pt x="230" y="658" on="0"/>
        <pt x="164" y="596" on="0"/>
        <pt x="164" y="544" on="1"/>
        <pt x="164" y="501" on="0"/>
        <pt x="211" y="445" on="0"/>
        <pt x="287" y="406" on="0"/>
      </contour>
      <contour>
        <pt x="281" y="55" on="1"/>
        <pt x="324" y="55" on="0"/>
        <pt x="387" y="87" on="0"/>
        <pt x="422" y="143" on="0"/>
        <pt x="422" y="179" on="1"/>
        <pt x="422" y="214" on="0"/>
        <pt x="390" y="264" on="0"/>
        <pt x="337" y="300" on="0"/>
        <pt x="267" y="331" on="0"/>
        <pt x="228" y="346" on="1"/>
        <pt x="184" y="318" on="0"/>
        <pt x="127" y="240" on="0"/>
        <pt x="127" y="190" on="1"/>
        <pt x="127" y="152" on="0"/>
        <pt x="167" y="90" on="0"/>
        <pt x="238" y="55" on="0"/>
      </contour>
    </TTGlyph>
    <TTGlyph name="glyph02385" xMin="44" yMin="-13" xMax="501" yMax="726">
      <contour>
        <pt x="229" y="-13" on="1"/>
        <pt x="172" y="-13" on="0"/>
        <pt x="87" y="30" on="0"/>
        <pt x="58" y="62" on="1"/>
        <pt x="108" y="119" on="1"/>
        <pt x="130" y="93" on="0"/>
        <pt x="193" y="63" on="0"/>
        <pt x="226" y="63" on="1"/>
        <pt x="277" y="63" on="0"/>
        <pt x="363" y="123" on="0"/>
        <pt x="415" y="264" on="0"/>
        <pt x="415" y="383" on="1"/>
        <pt x="415" y="471" on="0"/>
        <pt x="378" y="592" on="0"/>
        <pt x="306" y="655" on="0"/>
        <pt x="255" y="655" on="1"/>
        <pt x="220" y="655" on="0"/>
        <pt x="164" y="615" on="0"/>
        <pt x="130" y="545" on="0"/>
        <pt x="130" y="497" on="1"/>
        <pt x="130" y="451" on="0"/>
        <pt x="159" y="382" on="0"/>
        <pt x="219" y="345" on="0"/>
        <pt x="263" y="345" on="1"/>
        <pt x="298" y="345" on="0"/>
        <pt x="379" y="392" on="0"/>
        <pt x="416" y="447" on="1"/>
        <pt x="420" y="374" on="1"/>
        <pt x="398" y="345" on="0"/>
        <pt x="339" y="301" on="0"/>
        <pt x="278" y="278" on="0"/>
        <pt x="247" y="278" on="1"/>
        <pt x="186" y="278" on="0"/>
        <pt x="94" y="327" on="0"/>
        <pt x="44" y="425" on="0"/>
        <pt x="44" y="497" on="1"/>
        <pt x="44" y="566" on="0"/>
        <pt x="102" y="669" on="0"/>
        <pt x="197" y="726" on="0"/>
        <pt x="254" y="726" on="1"/>
        <pt x="307" y="726" on="0"/>
        <pt x="397" y="683" on="0"/>
        <pt x="463" y="597" on="0"/>
        <pt x="501" y="470" on="0"/>
        <pt x="501" y="383" on="1"/>
        <pt x="501" y="276" on="0"/>
        <pt x="456" y="125" on="0"/>
        <pt x="380" y="30" on="0"/>
        <pt x="282" y="-13" on="0"/>
      </contour>
    </TTGlyph>
    <TTGlyph name="glyph02388" xMin="118" yMin="-42" xMax="898" yMax="787">
      <contour>
        <pt x="473" y="784" on="1"/>
        <pt x="470" y="774" on="0"/>
        <pt x="464" y="751" on="0"/>
        <pt x="462" y="741" on="1"/>
        <pt x="455" y="701" on="0"/>
        <pt x="439" y="579" on="0"/>
        <pt x="429" y="441" on="0"/>
        <pt x="429" y="373" on="1"/>
        <pt x="429" y="308" on="0"/>
        <pt x="443" y="190" on="0"/>
        <pt x="470" y="83" on="0"/>
        <pt x="487" y="32" on="1"/>
        <pt x="413" y="11" on="1"/>
        <pt x="398" y="58" on="0"/>
        <pt x="373" y="173" on="0"/>
        <pt x="359" y="298" on="0"/>
        <pt x="359" y="362" on="1"/>
        <pt x="359" y="412" on="0"/>
        <pt x="365" y="519" on="0"/>
        <pt x="374" y="620" on="0"/>
        <pt x="384" y="708" on="0"/>
        <pt x="387" y="740" on="1"/>
        <pt x="389" y="752" on="0"/>
        <pt x="390" y="778" on="0"/>
        <pt x="389" y="787" on="1"/>
      </contour>
      <contour>
        <pt x="314" y="663" on="1"/>
        <pt x="401" y="663" on="0"/>
        <pt x="569" y="673" on="0"/>
        <pt x="725" y="693" on="0"/>
        <pt x="793" y="708" on="1"/>
        <pt x="794" y="636" on="1"/>
        <pt x="741" y="627" on="0"/>
        <pt x="619" y="612" on="0"/>
        <pt x="491" y="602" on="0"/>
        <pt x="368" y="596" on="0"/>
        <pt x="313" y="596" on="1"/>
        <pt x="292" y="596" on="0"/>
        <pt x="233" y="599" on="0"/>
        <pt x="175" y="602" on="0"/>
        <pt x="154" y="603" on="1"/>
        <pt x="152" y="676" on="1"/>
        <pt x="172" y="674" on="0"/>
        <pt x="232" y="667" on="0"/>
        <pt x="293" y="663" on="0"/>
      </contour>
      <contour>
        <pt x="722" y="548" on="1"/>
        <pt x="719" y="542" on="0"/>
        <pt x="712" y="522" on="0"/>
        <pt x="705" y="502" on="0"/>
        <pt x="702" y="493" on="1"/>
        <pt x="673" y="403" on="0"/>
        <pt x="594" y="254" on="0"/>
        <pt x="499" y="138" on="0"/>
        <pt x="444" y="96" on="1"/>
        <pt x="397" y="60" on="0"/>
        <pt x="285" y="11" on="0"/>
        <pt x="233" y="11" on="1"/>
        <pt x="201" y="11" on="0"/>
        <pt x="148" y="38" on="0"/>
        <pt x="118" y="93" on="0"/>
        <pt x="118" y="134" on="1"/>
        <pt x="118" y="185" on="0"/>
        <pt x="160" y="283" on="0"/>
        <pt x="235" y="371" on="0"/>
        <pt x="332" y="441" on="0"/>
        <pt x="387" y="462" on="1"/>
        <pt x="436" y="481" on="0"/>
        <pt x="548" y="502" on="0"/>
        <pt x="595" y="502" on="1"/>
        <pt x="688" y="502" on="0"/>
        <pt x="824" y="437" on="0"/>
        <pt x="898" y="326" on="0"/>
        <pt x="898" y="258" on="1"/>
        <pt x="898" y="205" on="0"/>
        <pt x="861" y="109" on="0"/>
        <pt x="784" y="29" on="0"/>
        <pt x="662" y="-28" on="0"/>
        <pt x="577" y="-42" on="1"/>
        <pt x="535" y="24" on="1"/>
        <pt x="624" y="34" on="0"/>
        <pt x="752" y="98" on="0"/>
        <pt x="821" y="199" on="0"/>
        <pt x="821" y="262" on="1"/>
        <pt x="821" y="310" on="0"/>
        <pt x="769" y="391" on="0"/>
        <pt x="667" y="439" on="0"/>
        <pt x="594" y="439" on="1"/>
        <pt x="533" y="439" on="0"/>
        <pt x="428" y="411" on="0"/>
        <pt x="390" y="394" on="1"/>
        <pt x="335" y="369" on="0"/>
        <pt x="245" y="288" on="0"/>
        <pt x="191" y="193" on="0"/>
        <pt x="191" y="148" on="1"/>
        <pt x="191" y="118" on="0"/>
        <pt x="219" y="86" on="0"/>
        <pt x="247" y="86" on="1"/>
        <pt x="283" y="86" on="0"/>
        <pt x="376" y="129" on="0"/>
        <pt x="424" y="170" on="1"/>
        <pt x="489" y="227" on="0"/>
        <pt x="600" y="392" on="0"/>
        <pt x="633" y="512" on="1"/>
        <pt x="636" y="520" on="0"/>
        <pt x="640" y="540" on="0"/>
        <pt x="644" y="561" on="0"/>
        <pt x="644" y="568" on="1"/>
      </contour>
    </TTGlyph>
    <TTGlyph name="glyph02390" xMin="136" yMin="0" xMax="915" yMax="695">
      <contour>
        <pt x="233" y="693" on="1"/>
        <pt x="230" y="682" on="0"/>
        <pt x="227" y="646" on="0"/>
        <pt x="225" y="611" on="0"/>
        <pt x="224" y="598" on="1"/>
        <pt x="223" y="568" on="0"/>
        <pt x="224" y="490" on="0"/>
        <pt x="228" y="406" on="0"/>
        <pt x="231" y="366" on="1"/>
        <pt x="239" y="284" on="0"/>
        <pt x="275" y="163" on="0"/>
        <pt x="329" y="94" on="0"/>
        <pt x="364" y="94" on="1"/>
        <pt x="383" y="94" on="0"/>
        <pt x="418" y="128" on="0"/>
        <pt x="449" y="185" on="0"/>
        <pt x="475" y="256" on="0"/>
        <pt x="485" y="293" on="1"/>
        <pt x="549" y="223" on="1"/>
        <pt x="519" y="140" on="0"/>
        <pt x="458" y="42" on="0"/>
        <pt x="395" y="0" on="0"/>
        <pt x="362" y="0" on="1"/>
        <pt x="316" y="0" on="0"/>
        <pt x="231" y="67" on="0"/>
        <pt x="168" y="219" on="0"/>
        <pt x="154" y="346" on="1"/>
        <pt x="149" y="389" on="0"/>
        <pt x="144" y="489" on="0"/>
        <pt x="143" y="579" on="0"/>
        <pt x="143" y="608" on="1"/>
        <pt x="143" y="625" on="0"/>
        <pt x="141" y="678" on="0"/>
        <pt x="136" y="695" on="1"/>
      </contour>
      <contour>
        <pt x="742" y="666" on="1"/>
        <pt x="768" y="632" on="0"/>
        <pt x="816" y="543" on="0"/>
        <pt x="857" y="442" on="0"/>
        <pt x="889" y="334" on="0"/>
        <pt x="910" y="228" on="0"/>
        <pt x="915" y="178" on="1"/>
        <pt x="836" y="147" on="1"/>
        <pt x="830" y="213" on="0"/>
        <pt x="801" y="351" on="0"/>
        <pt x="758" y="482" on="0"/>
        <pt x="701" y="597" on="0"/>
        <pt x="666" y="639" on="1"/>
      </contour>
    </TTGlyph>
    <TTGlyph name="glyph02392" xMin="173" yMin="-40" xMax="799" yMax="776">
      <contour>
        <pt x="715" y="334" on="1"/>
        <pt x="715" y="376" on="0"/>
        <pt x="673" y="439" on="0"/>
        <pt x="598" y="475" on="0"/>
        <pt x="548" y="475" on="1"/>
        <pt x="491" y="475" on="0"/>
        <pt x="391" y="457" on="0"/>
        <pt x="309" y="435" on="0"/>
        <pt x="280" y="426" on="1"/>
        <pt x="258" y="419" on="0"/>
        <pt x="215" y="403" on="0"/>
        <pt x="198" y="397" on="1"/>
        <pt x="173" y="488" on="1"/>
        <pt x="193" y="490" on="0"/>
        <pt x="241" y="498" on="0"/>
        <pt x="263" y="503" on="1"/>
        <pt x="297" y="511" on="0"/>
        <pt x="391" y="533" on="0"/>
        <pt x="500" y="550" on="0"/>
        <pt x="556" y="550" on="1"/>
        <pt x="626" y="550" on="0"/>
        <pt x="735" y="499" on="0"/>
        <pt x="799" y="402" on="0"/>
        <pt x="799" y="332" on="1"/>
        <pt x="799" y="252" on="0"/>
        <pt x="732" y="126" on="0"/>
        <pt x="612" y="34" on="0"/>
        <pt x="450" y="-25" on="0"/>
        <pt x="355" y="-40" on="1"/>
        <pt x="308" y="36" on="1"/>
        <pt x="397" y="48" on="0"/>
        <pt x="547" y="94" on="0"/>
        <pt x="655" y="167" on="0"/>
        <pt x="715" y="268" on="0"/>
      </contour>
      <contour>
        <pt x="303" y="776" on="1"/>
        <pt x="344" y="767" on="0"/>
        <pt x="456" y="751" on="0"/>
        <pt x="577" y="739" on="0"/>
        <pt x="685" y="732" on="0"/>
        <pt x="721" y="731" on="1"/>
        <pt x="708" y="654" on="1"/>
        <pt x="667" y="657" on="0"/>
        <pt x="559" y="667" on="0"/>
        <pt x="442" y="679" on="0"/>
        <pt x="333" y="694" on="0"/>
        <pt x="291" y="701" on="1"/>
      </contour>
    </TTGlyph>
    <TTGlyph name="glyph02396" xMin="113" yMin="-23" xMax="942" yMax="791">
      <contour>
        <pt x="414" y="791" on="1"/>
        <pt x="412" y="783" on="0"/>
        <pt x="410" y="761" on="0"/>
        <pt x="408" y="735" on="0"/>
        <pt x="407" y="724" on="1"/>
        <pt x="406" y="702" on="0"/>
        <pt x="403" y="629" on="0"/>
        <pt x="401" y="542" on="0"/>
        <pt x="399" y="452" on="0"/>
        <pt x="399" y="414" on="1"/>
        <pt x="399" y="376" on="0"/>
        <pt x="401" y="286" on="0"/>
        <pt x="403" y="196" on="0"/>
        <pt x="404" y="120" on="0"/>
        <pt x="404" y="97" on="1"/>
        <pt x="404" y="52" on="0"/>
        <pt x="383" y="0" on="0"/>
        <pt x="344" y="-23" on="0"/>
        <pt x="317" y="-23" on="1"/>
        <pt x="288" y="-23" on="0"/>
        <pt x="218" y="3" on="0"/>
        <pt x="154" y="48" on="0"/>
        <pt x="113" y="107" on="0"/>
        <pt x="113" y="140" on="1"/>
        <pt x="113" y="184" on="0"/>
        <pt x="181" y="269" on="0"/>
        <pt x="290" y="342" on="0"/>
        <pt x="351" y="364" on="1"/>
        <pt x="417" y="390" on="0"/>
        <pt x="556" y="416" on="0"/>
        <pt x="614" y="416" on="1"/>
        <pt x="686" y="416" on="0"/>
        <pt x="798" y="367" on="0"/>
        <pt x="861" y="280" on="0"/>
        <pt x="861" y="221" on="1"/>
        <pt x="861" y="162" on="0"/>
        <pt x="813" y="71" on="0"/>
        <pt x="719" y="10" on="0"/>
        <pt x="651" y="-6" on="1"/>
        <pt x="619" y="-13" on="0"/>
        <pt x="556" y="-19" on="0"/>
        <pt x="530" y="-19" on="1"/>
        <pt x="502" y="60" on="1"/>
        <pt x="530" y="60" on="0"/>
        <pt x="590" y="62" on="0"/>
        <pt x="617" y="67" on="1"/>
        <pt x="660" y="76" on="0"/>
        <pt x="735" y="113" on="0"/>
        <pt x="781" y="175" on="0"/>
        <pt x="781" y="220" on="1"/>
        <pt x="781" y="262" on="0"/>
        <pt x="736" y="319" on="0"/>
        <pt x="660" y="348" on="0"/>
        <pt x="613" y="348" on="1"/>
        <pt x="548" y="348" on="0"/>
        <pt x="425" y="321" on="0"/>
        <pt x="361" y="295" on="1"/>
        <pt x="314" y="277" on="0"/>
        <pt x="236" y="225" on="0"/>
        <pt x="190" y="169" on="0"/>
        <pt x="190" y="144" on="1"/>
        <pt x="190" y="127" on="0"/>
        <pt x="213" y="98" on="0"/>
        <pt x="247" y="74" on="0"/>
        <pt x="283" y="61" on="0"/>
        <pt x="297" y="61" on="1"/>
        <pt x="314" y="61" on="0"/>
        <pt x="332" y="85" on="0"/>
        <pt x="332" y="108" on="1"/>
        <pt x="332" y="137" on="0"/>
        <pt x="330" y="237" on="0"/>
        <pt x="327" y="356" on="0"/>
        <pt x="327" y="410" on="1"/>
        <pt x="327" y="453" on="0"/>
        <pt x="329" y="548" on="0"/>
        <pt x="330" y="639" on="0"/>
        <pt x="331" y="707" on="0"/>
        <pt x="331" y="722" on="1"/>
        <pt x="331" y="732" on="0"/>
        <pt x="330" y="758" on="0"/>
        <pt x="328" y="783" on="0"/>
        <pt x="326" y="791" on="1"/>
      </contour>
      <contour>
        <pt x="718" y="683" on="1"/>
        <pt x="753" y="665" on="0"/>
        <pt x="839" y="613" on="0"/>
        <pt x="918" y="560" on="0"/>
        <pt x="942" y="540" on="1"/>
        <pt x="902" y="477" on="1"/>
        <pt x="884" y="495" on="0"/>
        <pt x="829" y="534" on="0"/>
        <pt x="766" y="575" on="0"/>
        <pt x="705" y="611" on="0"/>
        <pt x="682" y="624" on="1"/>
      </contour>
      <contour>
        <pt x="129" y="617" on="1"/>
        <pt x="170" y="612" on="0"/>
        <pt x="227" y="609" on="0"/>
        <pt x="254" y="609" on="1"/>
        <pt x="290" y="609" on="0"/>
        <pt x="381" y="616" on="0"/>
        <pt x="477" y="629" on="0"/>
        <pt x="567" y="648" on="0"/>
        <pt x="604" y="659" on="1"/>
        <pt x="606" y="581" on="1"/>
        <pt x="568" y="571" on="0"/>
        <pt x="474" y="555" on="0"/>
        <pt x="377" y="542" on="0"/>
        <pt x="289" y="535" on="0"/>
        <pt x="256" y="535" on="1"/>
        <pt x="215" y="535" on="0"/>
        <pt x="156" y="538" on="0"/>
        <pt x="131" y="540" on="1"/>
      </contour>
    </TTGlyph>
    <TTGlyph name="glyph02397" xMin="86" yMin="-22" xMax="962" yMax="783">
      <contour>
        <pt x="440" y="774" on="1"/>
        <pt x="437" y="761" on="0"/>
        <pt x="431" y="730" on="0"/>
        <pt x="428" y="716" on="1"/>
        <pt x="425" y="698" on="0"/>
        <pt x="415" y="638" on="0"/>
        <pt x="403" y="570" on="0"/>
        <pt x="395" y="539" on="1"/>
        <pt x="386" y="498" on="0"/>
        <pt x="357" y="393" on="0"/>
        <pt x="319" y="274" on="0"/>
        <pt x="271" y="151" on="0"/>
        <pt x="214" y="32" on="0"/>
        <pt x="181" y="-22" on="1"/>
        <pt x="100" y="10" on="1"/>
        <pt x="142" y="66" on="0"/>
        <pt x="212" y="211" on="0"/>
        <pt x="268" y="363" on="0"/>
        <pt x="307" y="496" on="0"/>
        <pt x="317" y="541" on="1"/>
        <pt x="330" y="600" on="0"/>
        <pt x="348" y="727" on="0"/>
        <pt x="348" y="783" on="1"/>
      </contour>
      <contour>
        <pt x="777" y="670" on="1"/>
        <pt x="800" y="640" on="0"/>
        <pt x="854" y="542" on="0"/>
        <pt x="907" y="430" on="0"/>
        <pt x="950" y="324" on="0"/>
        <pt x="962" y="285" on="1"/>
        <pt x="884" y="249" on="1"/>
        <pt x="873" y="291" on="0"/>
        <pt x="835" y="399" on="0"/>
        <pt x="784" y="510" on="0"/>
        <pt x="731" y="607" on="0"/>
        <pt x="705" y="637" on="1"/>
      </contour>
      <contour>
        <pt x="86" y="559" on="1"/>
        <pt x="109" y="558" on="0"/>
        <pt x="151" y="558" on="0"/>
        <pt x="174" y="559" on="1"/>
        <pt x="196" y="560" on="0"/>
        <pt x="265" y="565" on="0"/>
        <pt x="346" y="572" on="0"/>
        <pt x="426" y="579" on="0"/>
        <pt x="493" y="583" on="0"/>
        <pt x="513" y="583" on="1"/>
        <pt x="557" y="583" on="0"/>
        <pt x="629" y="555" on="0"/>
        <pt x="672" y="483" on="0"/>
        <pt x="672" y="416" on="1"/>
        <pt x="672" y="359" on="0"/>
        <pt x="661" y="225" on="0"/>
        <pt x="636" y="104" on="0"/>
        <pt x="615" y="62" on="1"/>
        <pt x="592" y="14" on="0"/>
        <pt x="520" y="-19" on="0"/>
        <pt x="472" y="-19" on="1"/>
        <pt x="444" y="-19" on="0"/>
        <pt x="380" y="-10" on="0"/>
        <pt x="356" y="-5" on="1"/>
        <pt x="344" y="77" on="1"/>
        <pt x="364" y="71" on="0"/>
        <pt x="409" y="62" on="0"/>
        <pt x="450" y="57" on="0"/>
        <pt x="464" y="57" on="1"/>
        <pt x="491" y="57" on="0"/>
        <pt x="534" y="75" on="0"/>
        <pt x="549" y="107" on="1"/>
        <pt x="565" y="141" on="0"/>
        <pt x="585" y="241" on="0"/>
        <pt x="595" y="355" on="0"/>
        <pt x="595" y="407" on="1"/>
        <pt x="595" y="452" on="0"/>
        <pt x="570" y="497" on="0"/>
        <pt x="524" y="512" on="0"/>
        <pt x="492" y="512" on="1"/>
        <pt x="468" y="512" on="0"/>
        <pt x="383" y="505" on="0"/>
        <pt x="288" y="496" on="0"/>
        <pt x="206" y="487" on="0"/>
        <pt x="183" y="485" on="1"/>
        <pt x="166" y="483" on="0"/>
        <pt x="114" y="476" on="0"/>
        <pt x="94" y="473" on="1"/>
      </contour>
    </TTGlyph>
    <TTGlyph name="glyph02398" xMin="73" yMin="-26" xMax="965" yMax="840">
      <contour>
        <pt x="775" y="800" on="1"/>
        <pt x="787" y="782" on="0"/>
        <pt x="817" y="734" on="0"/>
        <pt x="845" y="685" on="0"/>
        <pt x="855" y="665" on="1"/>
        <pt x="801" y="641" on="1"/>
        <pt x="787" y="671" on="0"/>
        <pt x="742" y="750" on="0"/>
        <pt x="722" y="778" on="1"/>
      </contour>
      <contour>
        <pt x="882" y="840" on="1"/>
        <pt x="895" y="822" on="0"/>
        <pt x="927" y="773" on="0"/>
        <pt x="956" y="724" on="0"/>
        <pt x="965" y="705" on="1"/>
        <pt x="912" y="682" on="1"/>
        <pt x="896" y="714" on="0"/>
        <pt x="852" y="790" on="0"/>
        <pt x="831" y="817" on="1"/>
      </contour>
      <contour>
        <pt x="427" y="771" on="1"/>
        <pt x="424" y="758" on="0"/>
        <pt x="418" y="727" on="0"/>
        <pt x="415" y="712" on="1"/>
        <pt x="412" y="695" on="0"/>
        <pt x="401" y="635" on="0"/>
        <pt x="389" y="566" on="0"/>
        <pt x="382" y="536" on="1"/>
        <pt x="372" y="494" on="0"/>
        <pt x="343" y="389" on="0"/>
        <pt x="305" y="271" on="0"/>
        <pt x="257" y="147" on="0"/>
        <pt x="201" y="28" on="0"/>
        <pt x="167" y="-26" on="1"/>
        <pt x="87" y="7" on="1"/>
        <pt x="129" y="63" on="0"/>
        <pt x="199" y="208" on="0"/>
        <pt x="255" y="359" on="0"/>
        <pt x="294" y="493" on="0"/>
        <pt x="304" y="538" on="1"/>
        <pt x="317" y="597" on="0"/>
        <pt x="335" y="723" on="0"/>
        <pt x="334" y="779" on="1"/>
      </contour>
      <contour>
        <pt x="73" y="556" on="1"/>
        <pt x="96" y="555" on="0"/>
        <pt x="137" y="555" on="0"/>
        <pt x="161" y="556" on="1"/>
        <pt x="182" y="557" on="0"/>
        <pt x="252" y="562" on="0"/>
        <pt x="333" y="569" on="0"/>
        <pt x="413" y="576" on="0"/>
        <pt x="479" y="580" on="0"/>
        <pt x="499" y="580" on="1"/>
        <pt x="543" y="580" on="0"/>
        <pt x="616" y="551" on="0"/>
        <pt x="659" y="480" on="0"/>
        <pt x="659" y="413" on="1"/>
        <pt x="659" y="355" on="0"/>
        <pt x="647" y="222" on="0"/>
        <pt x="623" y="100" on="0"/>
        <pt x="602" y="59" on="1"/>
        <pt x="579" y="11" on="0"/>
        <pt x="506" y="-23" on="0"/>
        <pt x="459" y="-23" on="1"/>
        <pt x="431" y="-23" on="0"/>
        <pt x="367" y="-13" on="0"/>
        <pt x="343" y="-9" on="1"/>
        <pt x="330" y="74" on="1"/>
        <pt x="351" y="68" on="0"/>
        <pt x="396" y="59" on="0"/>
        <pt x="437" y="54" on="0"/>
        <pt x="451" y="54" on="1"/>
        <pt x="477" y="54" on="0"/>
        <pt x="520" y="72" on="0"/>
        <pt x="536" y="104" on="1"/>
        <pt x="552" y="137" on="0"/>
        <pt x="572" y="237" on="0"/>
        <pt x="582" y="351" on="0"/>
        <pt x="582" y="404" on="1"/>
        <pt x="582" y="449" on="0"/>
        <pt x="557" y="494" on="0"/>
        <pt x="510" y="509" on="0"/>
        <pt x="479" y="509" on="1"/>
        <pt x="454" y="509" on="0"/>
        <pt x="369" y="502" on="0"/>
        <pt x="274" y="493" on="0"/>
        <pt x="192" y="484" on="0"/>
        <pt x="170" y="481" on="1"/>
        <pt x="152" y="479" on="0"/>
        <pt x="100" y="473" on="0"/>
        <pt x="81" y="470" on="1"/>
      </contour>
      <contour>
        <pt x="764" y="657" on="1"/>
        <pt x="787" y="627" on="0"/>
        <pt x="840" y="530" on="0"/>
        <pt x="893" y="420" on="0"/>
        <pt x="936" y="317" on="0"/>
        <pt x="948" y="280" on="1"/>
        <pt x="870" y="243" on="1"/>
        <pt x="859" y="284" on="0"/>
        <pt x="820" y="389" on="0"/>
        <pt x="771" y="498" on="0"/>
        <pt x="718" y="594" on="0"/>
        <pt x="691" y="624" on="1"/>
      </contour>
    </TTGlyph>
    <TTGlyph name="glyph02399" xMin="168" yMin="-38" xMax="853" yMax="793">
      <contour>
        <pt x="187" y="683" on="1"/>
        <pt x="289" y="671" on="0"/>
        <pt x="477" y="667" on="0"/>
        <pt x="552" y="674" on="1"/>
        <pt x="613" y="679" on="0"/>
        <pt x="730" y="704" on="0"/>
        <pt x="783" y="721" on="1"/>
        <pt x="794" y="648" on="1"/>
        <pt x="746" y="634" on="0"/>
        <pt x="627" y="612" on="0"/>
        <pt x="569" y="606" on="1"/>
        <pt x="495" y="599" on="0"/>
        <pt x="297" y="600" on="0"/>
        <pt x="192" y="610" on="1"/>
      </contour>
      <contour>
        <pt x="168" y="481" on="1"/>
        <pt x="252" y="473" on="0"/>
        <pt x="414" y="468" on="0"/>
        <pt x="560" y="474" on="0"/>
        <pt x="617" y="480" on="1"/>
        <pt x="687" y="488" on="0"/>
        <pt x="802" y="515" on="0"/>
        <pt x="841" y="527" on="1"/>
        <pt x="853" y="451" on="1"/>
        <pt x="813" y="440" on="0"/>
        <pt x="705" y="420" on="0"/>
        <pt x="644" y="412" on="1"/>
        <pt x="583" y="405" on="0"/>
        <pt x="428" y="398" on="0"/>
        <pt x="257" y="401" on="0"/>
        <pt x="172" y="406" on="1"/>
      </contour>
      <contour>
        <pt x="502" y="695" on="1"/>
        <pt x="496" y="717" on="0"/>
        <pt x="482" y="761" on="0"/>
        <pt x="474" y="782" on="1"/>
        <pt x="559" y="793" on="1"/>
        <pt x="564" y="752" on="0"/>
        <pt x="586" y="662" on="0"/>
        <pt x="612" y="577" on="0"/>
        <pt x="624" y="542" on="1"/>
        <pt x="638" y="505" on="0"/>
        <pt x="675" y="419" on="0"/>
        <pt x="721" y="334" on="0"/>
        <pt x="746" y="296" on="1"/>
        <pt x="753" y="284" on="0"/>
        <pt x="772" y="264" on="0"/>
        <pt x="782" y="254" on="1"/>
        <pt x="741" y="194" on="1"/>
        <pt x="714" y="200" on="0"/>
        <pt x="639" y="211" on="0"/>
        <pt x="560" y="221" on="0"/>
        <pt x="526" y="224" on="1"/>
        <pt x="533" y="285" on="1"/>
        <pt x="572" y="281" on="0"/>
        <pt x="655" y="273" on="0"/>
        <pt x="679" y="269" on="1"/>
        <pt x="637" y="332" on="0"/>
        <pt x="576" y="468" on="0"/>
        <pt x="554" y="527" on="1"/>
        <pt x="542" y="561" on="0"/>
        <pt x="523" y="618" on="0"/>
        <pt x="509" y="671" on="0"/>
      </contour>
      <contour>
        <pt x="311" y="270" on="1"/>
        <pt x="293" y="245" on="0"/>
        <pt x="270" y="192" on="0"/>
        <pt x="270" y="159" on="1"/>
        <pt x="270" y="99" on="0"/>
        <pt x="382" y="38" on="0"/>
        <pt x="495" y="38" on="1"/>
        <pt x="564" y="38" on="0"/>
        <pt x="676" y="49" on="0"/>
        <pt x="729" y="59" on="1"/>
        <pt x="725" y="-20" on="1"/>
        <pt x="674" y="-28" on="0"/>
        <pt x="559" y="-38" on="0"/>
        <pt x="496" y="-38" on="1"/>
        <pt x="400" y="-38" on="0"/>
        <pt x="266" y="2" on="0"/>
        <pt x="195" y="84" on="0"/>
        <pt x="194" y="146" on="1"/>
        <pt x="194" y="188" on="0"/>
        <pt x="216" y="254" on="0"/>
        <pt x="232" y="286" on="1"/>
      </contour>
    </TTGlyph>
    <TTGlyph name="glyph02401" xMin="201" yMin="-55" xMax="722" yMax="798">
      <contour>
        <pt x="700" y="732" on="1"/>
        <pt x="684" y="720" on="0"/>
        <pt x="646" y="687" on="0"/>
        <pt x="633" y="677" on="1"/>
        <pt x="608" y="655" on="0"/>
        <pt x="535" y="595" on="0"/>
        <pt x="454" y="530" on="0"/>
        <pt x="379" y="468" on="0"/>
        <pt x="352" y="446" on="1"/>
        <pt x="322" y="421" on="0"/>
        <pt x="302" y="388" on="0"/>
        <pt x="324" y="354" on="0"/>
        <pt x="355" y="328" on="1"/>
        <pt x="388" y="301" on="0"/>
        <pt x="482" y="224" on="0"/>
        <pt x="585" y="138" on="0"/>
        <pt x="683" y="50" on="0"/>
        <pt x="722" y="11" on="1"/>
        <pt x="651" y="-55" on="1"/>
        <pt x="635" y="-37" on="0"/>
        <pt x="601" y="0" on="0"/>
        <pt x="583" y="18" on="1"/>
        <pt x="557" y="44" on="0"/>
        <pt x="480" y="114" on="0"/>
        <pt x="393" y="191" on="0"/>
        <pt x="308" y="263" on="0"/>
        <pt x="273" y="291" on="1"/>
        <pt x="227" y="330" on="0"/>
        <pt x="201" y="389" on="0"/>
        <pt x="236" y="448" on="0"/>
        <pt x="280" y="485" on="1"/>
        <pt x="308" y="508" on="0"/>
        <pt x="387" y="572" on="0"/>
        <pt x="470" y="642" on="0"/>
        <pt x="545" y="707" on="0"/>
        <pt x="570" y="732" on="1"/>
        <pt x="584" y="747" on="0"/>
        <pt x="618" y="784" on="0"/>
        <pt x="626" y="798" on="1"/>
      </contour>
    </TTGlyph>
    <TTGlyph name="glyph02403" xMin="126" yMin="-54" xMax="914" yMax="768">
      <contour>
        <pt x="757" y="768" on="1"/>
        <pt x="755" y="757" on="0"/>
        <pt x="754" y="728" on="0"/>
        <pt x="753" y="711" on="1"/>
        <pt x="753" y="700" on="0"/>
        <pt x="754" y="652" on="0"/>
        <pt x="755" y="590" on="0"/>
        <pt x="756" y="526" on="0"/>
        <pt x="756" y="471" on="0"/>
        <pt x="756" y="454" on="1"/>
        <pt x="756" y="370" on="0"/>
        <pt x="749" y="224" on="0"/>
        <pt x="711" y="98" on="0"/>
        <pt x="626" y="-8" on="0"/>
        <pt x="548" y="-54" on="1"/>
        <pt x="475" y="3" on="1"/>
        <pt x="499" y="13" on="0"/>
        <pt x="552" y="46" on="0"/>
        <pt x="571" y="65" on="1"/>
        <pt x="610" y="98" on="0"/>
        <pt x="654" y="176" on="0"/>
        <pt x="675" y="270" on="0"/>
        <pt x="680" y="384" on="0"/>
        <pt x="680" y="455" on="1"/>
        <pt x="680" y="479" on="0"/>
        <pt x="679" y="552" on="0"/>
        <pt x="677" y="630" on="0"/>
        <pt x="675" y="695" on="0"/>
        <pt x="674" y="710" on="1"/>
        <pt x="673" y="727" on="0"/>
        <pt x="668" y="757" on="0"/>
        <pt x="665" y="768" on="1"/>
      </contour>
      <contour>
        <pt x="398" y="566" on="1"/>
        <pt x="420" y="563" on="0"/>
        <pt x="473" y="558" on="0"/>
        <pt x="530" y="556" on="0"/>
        <pt x="557" y="556" on="1"/>
        <pt x="617" y="556" on="0"/>
        <pt x="745" y="561" on="0"/>
        <pt x="866" y="575" on="0"/>
        <pt x="914" y="586" on="1"/>
        <pt x="914" y="505" on="1"/>
        <pt x="867" y="498" on="0"/>
        <pt x="749" y="486" on="0"/>
        <pt x="620" y="481" on="0"/>
        <pt x="557" y="481" on="1"/>
        <pt x="533" y="481" on="0"/>
        <pt x="475" y="483" on="0"/>
        <pt x="420" y="485" on="0"/>
        <pt x="398" y="487" on="1"/>
      </contour>
      <contour>
        <pt x="262" y="754" on="1"/>
        <pt x="258" y="741" on="0"/>
        <pt x="248" y="705" on="0"/>
        <pt x="245" y="690" on="1"/>
        <pt x="233" y="637" on="0"/>
        <pt x="212" y="509" on="0"/>
        <pt x="200" y="372" on="0"/>
        <pt x="203" y="236" on="0"/>
        <pt x="216" y="176" on="1"/>
        <pt x="226" y="208" on="0"/>
        <pt x="255" y="287" on="0"/>
        <pt x="267" y="324" on="1"/>
        <pt x="312" y="297" on="1"/>
        <pt x="300" y="263" on="0"/>
        <pt x="275" y="180" on="0"/>
        <pt x="254" y="105" on="0"/>
        <pt x="248" y="80" on="1"/>
        <pt x="246" y="70" on="0"/>
        <pt x="243" y="45" on="0"/>
        <pt x="243" y="36" on="1"/>
        <pt x="244" y="30" on="0"/>
        <pt x="246" y="11" on="0"/>
        <pt x="247" y="3" on="1"/>
        <pt x="178" y="-5" on="1"/>
        <pt x="168" y="26" on="0"/>
        <pt x="144" y="125" on="0"/>
        <pt x="126" y="245" on="0"/>
        <pt x="126" y="306" on="1"/>
        <pt x="126" y="386" on="0"/>
        <pt x="140" y="535" on="0"/>
        <pt x="158" y="657" on="0"/>
        <pt x="163" y="697" on="1"/>
        <pt x="166" y="715" on="0"/>
        <pt x="168" y="750" on="0"/>
        <pt x="169" y="763" on="1"/>
      </contour>
    </TTGlyph>
    <TTGlyph name="glyph02405" xMin="179" yMin="-17" xMax="829" yMax="698">
      <contour>
        <pt x="240" y="696" on="1"/>
        <pt x="293" y="690" on="0"/>
        <pt x="426" y="684" on="0"/>
        <pt x="499" y="684" on="1"/>
        <pt x="546" y="684" on="0"/>
        <pt x="641" y="688" on="0"/>
        <pt x="729" y="694" on="0"/>
        <pt x="764" y="698" on="1"/>
        <pt x="764" y="617" on="1"/>
        <pt x="731" y="614" on="0"/>
        <pt x="642" y="609" on="0"/>
        <pt x="545" y="605" on="0"/>
        <pt x="499" y="605" on="1"/>
        <pt x="426" y="605" on="0"/>
        <pt x="298" y="611" on="0"/>
        <pt x="240" y="616" on="1"/>
      </contour>
      <contour>
        <pt x="280" y="301" on="1"/>
        <pt x="270" y="273" on="0"/>
        <pt x="260" y="217" on="0"/>
        <pt x="260" y="190" on="1"/>
        <pt x="260" y="134" on="0"/>
        <pt x="375" y="65" on="0"/>
        <pt x="492" y="65" on="1"/>
        <pt x="560" y="65" on="0"/>
        <pt x="685" y="74" on="0"/>
        <pt x="791" y="92" on="0"/>
        <pt x="828" y="103" on="1"/>
        <pt x="829" y="17" on="1"/>
        <pt x="794" y="8" on="0"/>
        <pt x="690" y="-7" on="0"/>
        <pt x="564" y="-17" on="0"/>
        <pt x="494" y="-17" on="1"/>
        <pt x="395" y="-17" on="0"/>
        <pt x="254" y="27" on="0"/>
        <pt x="179" y="111" on="0"/>
        <pt x="179" y="172" on="1"/>
        <pt x="179" y="210" on="0"/>
        <pt x="193" y="280" on="0"/>
        <pt x="200" y="309" on="1"/>
      </contour>
    </TTGlyph>
    <TTGlyph name="glyph02406" xMin="163" yMin="-28" xMax="965" yMax="834">
      <contour>
        <pt x="775" y="795" on="1"/>
        <pt x="788" y="777" on="0"/>
        <pt x="817" y="729" on="0"/>
        <pt x="845" y="680" on="0"/>
        <pt x="855" y="660" on="1"/>
        <pt x="802" y="635" on="1"/>
        <pt x="787" y="666" on="0"/>
        <pt x="742" y="744" on="0"/>
        <pt x="722" y="772" on="1"/>
      </contour>
      <contour>
        <pt x="883" y="834" on="1"/>
        <pt x="896" y="816" on="0"/>
        <pt x="927" y="767" on="0"/>
        <pt x="956" y="718" on="0"/>
        <pt x="965" y="700" on="1"/>
        <pt x="912" y="676" on="1"/>
        <pt x="897" y="708" on="0"/>
        <pt x="852" y="784" on="0"/>
        <pt x="831" y="812" on="1"/>
      </contour>
      <contour>
        <pt x="224" y="686" on="1"/>
        <pt x="277" y="679" on="0"/>
        <pt x="410" y="674" on="0"/>
        <pt x="483" y="674" on="1"/>
        <pt x="530" y="674" on="0"/>
        <pt x="625" y="678" on="0"/>
        <pt x="712" y="684" on="0"/>
        <pt x="748" y="687" on="1"/>
        <pt x="748" y="606" on="1"/>
        <pt x="714" y="604" on="0"/>
        <pt x="625" y="598" on="0"/>
        <pt x="529" y="594" on="0"/>
        <pt x="484" y="594" on="1"/>
        <pt x="410" y="594" on="0"/>
        <pt x="282" y="601" on="0"/>
        <pt x="224" y="605" on="1"/>
      </contour>
      <contour>
        <pt x="264" y="291" on="1"/>
        <pt x="254" y="262" on="0"/>
        <pt x="244" y="206" on="0"/>
        <pt x="244" y="179" on="1"/>
        <pt x="244" y="123" on="0"/>
        <pt x="358" y="54" on="0"/>
        <pt x="476" y="54" on="1"/>
        <pt x="544" y="54" on="0"/>
        <pt x="669" y="63" on="0"/>
        <pt x="775" y="81" on="0"/>
        <pt x="812" y="92" on="1"/>
        <pt x="813" y="7" on="1"/>
        <pt x="778" y="-2" on="0"/>
        <pt x="675" y="-18" on="0"/>
        <pt x="548" y="-28" on="0"/>
        <pt x="478" y="-28" on="1"/>
        <pt x="379" y="-28" on="0"/>
        <pt x="238" y="16" on="0"/>
        <pt x="163" y="101" on="0"/>
        <pt x="163" y="162" on="1"/>
        <pt x="163" y="200" on="0"/>
        <pt x="176" y="270" on="0"/>
        <pt x="183" y="299" on="1"/>
      </contour>
    </TTGlyph>
    <TTGlyph name="glyph02407" xMin="163" yMin="-35" xMax="853" yMax="790">
      <contour>
        <pt x="521" y="702" on="1"/>
        <pt x="516" y="718" on="0"/>
        <pt x="504" y="760" on="0"/>
        <pt x="496" y="779" on="1"/>
        <pt x="581" y="790" on="1"/>
        <pt x="590" y="735" on="0"/>
        <pt x="622" y="633" on="0"/>
        <pt x="639" y="585" on="1"/>
        <pt x="662" y="521" on="0"/>
        <pt x="730" y="396" on="0"/>
        <pt x="761" y="352" on="1"/>
        <pt x="771" y="338" on="0"/>
        <pt x="793" y="312" on="0"/>
        <pt x="804" y="300" on="1"/>
        <pt x="764" y="243" on="1"/>
        <pt x="746" y="247" on="0"/>
        <pt x="688" y="255" on="0"/>
        <pt x="620" y="262" on="0"/>
        <pt x="553" y="269" on="0"/>
        <pt x="526" y="270" on="1"/>
        <pt x="532" y="337" on="1"/>
        <pt x="574" y="334" on="0"/>
        <pt x="667" y="327" on="0"/>
        <pt x="694" y="323" on="1"/>
        <pt x="673" y="354" on="0"/>
        <pt x="626" y="436" on="0"/>
        <pt x="583" y="526" on="0"/>
        <pt x="566" y="570" on="1"/>
        <pt x="550" y="613" on="0"/>
        <pt x="528" y="679" on="0"/>
      </contour>
      <contour>
        <pt x="163" y="626" on="1"/>
        <pt x="245" y="616" on="0"/>
        <pt x="399" y="609" on="0"/>
        <pt x="537" y="613" on="0"/>
        <pt x="593" y="618" on="1"/>
        <pt x="632" y="623" on="0"/>
        <pt x="719" y="636" on="0"/>
        <pt x="806" y="657" on="0"/>
        <pt x="844" y="670" on="1"/>
        <pt x="853" y="592" on="1"/>
        <pt x="818" y="583" on="0"/>
        <pt x="737" y="566" on="0"/>
        <pt x="655" y="552" on="0"/>
        <pt x="618" y="548" on="1"/>
        <pt x="525" y="537" on="0"/>
        <pt x="295" y="536" on="0"/>
        <pt x="165" y="546" on="1"/>
      </contour>
      <contour>
        <pt x="315" y="313" on="1"/>
        <pt x="293" y="278" on="0"/>
        <pt x="268" y="212" on="0"/>
        <pt x="268" y="177" on="1"/>
        <pt x="268" y="109" on="0"/>
        <pt x="391" y="44" on="0"/>
        <pt x="498" y="43" on="1"/>
        <pt x="573" y="42" on="0"/>
        <pt x="700" y="56" on="0"/>
        <pt x="751" y="67" on="1"/>
        <pt x="748" y="-13" on="1"/>
        <pt x="702" y="-21" on="0"/>
        <pt x="576" y="-35" on="0"/>
        <pt x="494" y="-34" on="1"/>
        <pt x="401" y="-33" on="0"/>
        <pt x="264" y="12" on="0"/>
        <pt x="190" y="101" on="0"/>
        <pt x="190" y="168" on="1"/>
        <pt x="190" y="208" on="0"/>
        <pt x="217" y="287" on="0"/>
        <pt x="237" y="331" on="1"/>
      </contour>
    </TTGlyph>
    <TTGlyph name="glyph02409" xMin="242" yMin="-43" xMax="890" yMax="772">
      <contour>
        <pt x="343" y="771" on="1"/>
        <pt x="340" y="747" on="0"/>
        <pt x="336" y="697" on="0"/>
        <pt x="334" y="672" on="1"/>
        <pt x="333" y="631" on="0"/>
        <pt x="328" y="510" on="0"/>
        <pt x="325" y="373" on="0"/>
        <pt x="322" y="240" on="0"/>
        <pt x="322" y="185" on="1"/>
        <pt x="322" y="131" on="0"/>
        <pt x="364" y="67" on="0"/>
        <pt x="436" y="39" on="0"/>
        <pt x="483" y="39" on="1"/>
        <pt x="550" y="39" on="0"/>
        <pt x="657" y="73" on="0"/>
        <pt x="741" y="130" on="0"/>
        <pt x="807" y="203" on="0"/>
        <pt x="833" y="241" on="1"/>
        <pt x="890" y="174" on="1"/>
        <pt x="864" y="139" on="0"/>
        <pt x="791" y="63" on="0"/>
        <pt x="691" y="-2" on="0"/>
        <pt x="562" y="-43" on="0"/>
        <pt x="481" y="-43" on="1"/>
        <pt x="410" y="-43" on="0"/>
        <pt x="303" y="0" on="0"/>
        <pt x="242" y="96" on="0"/>
        <pt x="242" y="176" on="1"/>
        <pt x="242" y="220" on="0"/>
        <pt x="244" y="327" on="0"/>
        <pt x="248" y="441" on="0"/>
        <pt x="250" y="549" on="0"/>
        <pt x="252" y="642" on="0"/>
        <pt x="252" y="672" on="1"/>
        <pt x="252" y="700" on="0"/>
        <pt x="248" y="751" on="0"/>
        <pt x="243" y="772" on="1"/>
      </contour>
    </TTGlyph>
    <TTGlyph name="glyph02410" xMin="230" yMin="-48" xMax="877" yMax="767">
      <contour>
        <pt x="603" y="686" on="1"/>
        <pt x="616" y="668" on="0"/>
        <pt x="651" y="613" on="0"/>
        <pt x="686" y="553" on="0"/>
        <pt x="697" y="529" on="1"/>
        <pt x="639" y="503" on="1"/>
        <pt x="627" y="529" on="0"/>
        <pt x="596" y="586" on="0"/>
        <pt x="564" y="640" on="0"/>
        <pt x="548" y="662" on="1"/>
      </contour>
      <contour>
        <pt x="730" y="736" on="1"/>
        <pt x="743" y="719" on="0"/>
        <pt x="779" y="664" on="0"/>
        <pt x="815" y="606" on="0"/>
        <pt x="826" y="583" on="1"/>
        <pt x="769" y="555" on="1"/>
        <pt x="757" y="581" on="0"/>
        <pt x="726" y="636" on="0"/>
        <pt x="691" y="689" on="0"/>
        <pt x="675" y="710" on="1"/>
      </contour>
      <contour>
        <pt x="331" y="766" on="1"/>
        <pt x="328" y="742" on="0"/>
        <pt x="323" y="692" on="0"/>
        <pt x="322" y="667" on="1"/>
        <pt x="321" y="626" on="0"/>
        <pt x="316" y="505" on="0"/>
        <pt x="313" y="368" on="0"/>
        <pt x="310" y="235" on="0"/>
        <pt x="310" y="180" on="1"/>
        <pt x="310" y="126" on="0"/>
        <pt x="351" y="62" on="0"/>
        <pt x="424" y="34" on="0"/>
        <pt x="470" y="34" on="1"/>
        <pt x="538" y="34" on="0"/>
        <pt x="645" y="68" on="0"/>
        <pt x="729" y="125" on="0"/>
        <pt x="795" y="198" on="0"/>
        <pt x="821" y="236" on="1"/>
        <pt x="877" y="169" on="1"/>
        <pt x="852" y="134" on="0"/>
        <pt x="778" y="58" on="0"/>
        <pt x="678" y="-7" on="0"/>
        <pt x="550" y="-48" on="0"/>
        <pt x="468" y="-48" on="1"/>
        <pt x="398" y="-48" on="0"/>
        <pt x="290" y="-5" on="0"/>
        <pt x="230" y="91" on="0"/>
        <pt x="230" y="171" on="1"/>
        <pt x="230" y="215" on="0"/>
        <pt x="232" y="322" on="0"/>
        <pt x="235" y="436" on="0"/>
        <pt x="238" y="544" on="0"/>
        <pt x="240" y="637" on="0"/>
        <pt x="240" y="667" on="1"/>
        <pt x="240" y="695" on="0"/>
        <pt x="236" y="746" on="0"/>
        <pt x="231" y="767" on="1"/>
      </contour>
    </TTGlyph>
    <TTGlyph name="glyph02411" xMin="98" yMin="-46" xMax="914" yMax="784">
      <contour>
        <pt x="619" y="784" on="1"/>
        <pt x="619" y="778" on="0"/>
        <pt x="616" y="754" on="0"/>
        <pt x="615" y="729" on="0"/>
        <pt x="614" y="722" on="1"/>
        <pt x="613" y="698" on="0"/>
        <pt x="613" y="612" on="0"/>
        <pt x="614" y="512" on="0"/>
        <pt x="615" y="421" on="0"/>
        <pt x="615" y="391" on="1"/>
        <pt x="539" y="429" on="1"/>
        <pt x="539" y="443" on="0"/>
        <pt x="539" y="499" on="0"/>
        <pt x="538" y="572" on="0"/>
        <pt x="537" y="645" on="0"/>
        <pt x="536" y="705" on="0"/>
        <pt x="535" y="722" on="1"/>
        <pt x="534" y="741" on="0"/>
        <pt x="530" y="778" on="0"/>
        <pt x="528" y="784" on="1"/>
      </contour>
      <contour>
        <pt x="98" y="648" on="1"/>
        <pt x="148" y="649" on="0"/>
        <pt x="282" y="652" on="0"/>
        <pt x="430" y="656" on="0"/>
        <pt x="571" y="659" on="0"/>
        <pt x="627" y="659" on="1"/>
        <pt x="672" y="659" on="0"/>
        <pt x="760" y="658" on="0"/>
        <pt x="837" y="658" on="0"/>
        <pt x="897" y="658" on="0"/>
        <pt x="914" y="658" on="1"/>
        <pt x="914" y="584" on="1"/>
        <pt x="872" y="586" on="0"/>
        <pt x="734" y="588" on="0"/>
        <pt x="626" y="588" on="1"/>
        <pt x="563" y="588" on="0"/>
        <pt x="425" y="586" on="0"/>
        <pt x="286" y="581" on="0"/>
        <pt x="155" y="575" on="0"/>
        <pt x="100" y="571" on="1"/>
      </contour>
      <contour>
        <pt x="613" y="363" on="1"/>
        <pt x="613" y="297" on="0"/>
        <pt x="575" y="209" on="0"/>
        <pt x="508" y="165" on="0"/>
        <pt x="462" y="165" on="1"/>
        <pt x="431" y="165" on="0"/>
        <pt x="374" y="187" on="0"/>
        <pt x="327" y="229" on="0"/>
        <pt x="300" y="290" on="0"/>
        <pt x="300" y="330" on="1"/>
        <pt x="300" y="379" on="0"/>
        <pt x="348" y="456" on="0"/>
        <pt x="427" y="501" on="0"/>
        <pt x="474" y="501" on="1"/>
        <pt x="532" y="501" on="0"/>
        <pt x="607" y="449" on="0"/>
        <pt x="646" y="359" on="0"/>
        <pt x="646" y="302" on="1"/>
        <pt x="646" y="253" on="0"/>
        <pt x="618" y="151" on="0"/>
        <pt x="552" y="57" on="0"/>
        <pt x="439" y="-20" on="0"/>
        <pt x="353" y="-46" on="1"/>
        <pt x="287" y="19" on="1"/>
        <pt x="354" y="35" on="0"/>
        <pt x="458" y="85" on="0"/>
        <pt x="532" y="155" on="0"/>
        <pt x="569" y="249" on="0"/>
        <pt x="569" y="309" on="1"/>
        <pt x="569" y="377" on="0"/>
        <pt x="514" y="434" on="0"/>
        <pt x="474" y="434" on="1"/>
        <pt x="448" y="434" on="0"/>
        <pt x="403" y="409" on="0"/>
        <pt x="375" y="364" on="0"/>
        <pt x="375" y="331" on="1"/>
        <pt x="375" y="285" on="0"/>
        <pt x="433" y="234" on="0"/>
        <pt x="474" y="234" on="1"/>
        <pt x="505" y="234" on="0"/>
        <pt x="548" y="269" on="0"/>
        <pt x="566" y="338" on="0"/>
        <pt x="558" y="390" on="1"/>
      </contour>
    </TTGlyph>
    <TTGlyph name="glyph02413" xMin="54" yMin="-9" xMax="913" yMax="765">
      <contour>
        <pt x="735" y="765" on="1"/>
        <pt x="735" y="757" on="0"/>
        <pt x="733" y="731" on="0"/>
        <pt x="731" y="704" on="0"/>
        <pt x="731" y="694" on="1"/>
        <pt x="731" y="663" on="0"/>
        <pt x="730" y="599" on="0"/>
        <pt x="729" y="538" on="0"/>
        <pt x="728" y="513" on="1"/>
        <pt x="727" y="476" on="0"/>
        <pt x="724" y="387" on="0"/>
        <pt x="719" y="307" on="0"/>
        <pt x="713" y="281" on="1"/>
        <pt x="707" y="248" on="0"/>
        <pt x="671" y="224" on="0"/>
        <pt x="638" y="224" on="1"/>
        <pt x="620" y="224" on="0"/>
        <pt x="569" y="229" on="0"/>
        <pt x="522" y="236" on="0"/>
        <pt x="508" y="238" on="1"/>
        <pt x="510" y="308" on="1"/>
        <pt x="536" y="302" on="0"/>
        <pt x="591" y="295" on="0"/>
        <pt x="608" y="295" on="1"/>
        <pt x="627" y="295" on="0"/>
        <pt x="641" y="304" on="0"/>
        <pt x="643" y="320" on="1"/>
        <pt x="647" y="339" on="0"/>
        <pt x="651" y="404" on="0"/>
        <pt x="655" y="478" on="0"/>
        <pt x="655" y="513" on="1"/>
        <pt x="656" y="541" on="0"/>
        <pt x="656" y="602" on="0"/>
        <pt x="656" y="664" on="0"/>
        <pt x="656" y="691" on="1"/>
        <pt x="656" y="701" on="0"/>
        <pt x="654" y="729" on="0"/>
        <pt x="652" y="756" on="0"/>
        <pt x="650" y="765" on="1"/>
      </contour>
      <contour>
        <pt x="348" y="733" on="1"/>
        <pt x="346" y="716" on="0"/>
        <pt x="344" y="677" on="0"/>
        <pt x="344" y="654" on="1"/>
        <pt x="344" y="622" on="0"/>
        <pt x="343" y="526" on="0"/>
        <pt x="342" y="418" on="0"/>
        <pt x="342" y="313" on="0"/>
        <pt x="342" y="231" on="0"/>
        <pt x="343" y="211" on="1"/>
        <pt x="344" y="171" on="0"/>
        <pt x="352" y="117" on="0"/>
        <pt x="382" y="84" on="0"/>
        <pt x="453" y="69" on="0"/>
        <pt x="516" y="69" on="1"/>
        <pt x="569" y="69" on="0"/>
        <pt x="679" y="75" on="0"/>
        <pt x="776" y="86" on="0"/>
        <pt x="808" y="92" on="1"/>
        <pt x="805" y="7" on="1"/>
        <pt x="772" y="4" on="0"/>
        <pt x="676" y="-4" on="0"/>
        <pt x="570" y="-9" on="0"/>
        <pt x="520" y="-9" on="1"/>
        <pt x="435" y="-9" on="0"/>
        <pt x="335" y="12" on="0"/>
        <pt x="285" y="61" on="0"/>
        <pt x="269" y="141" on="0"/>
        <pt x="267" y="200" on="1"/>
        <pt x="267" y="220" on="0"/>
        <pt x="266" y="296" on="0"/>
        <pt x="266" y="390" on="0"/>
        <pt x="266" y="488" on="0"/>
        <pt x="267" y="576" on="0"/>
        <pt x="267" y="639" on="0"/>
        <pt x="267" y="651" on="1"/>
        <pt x="267" y="673" on="0"/>
        <pt x="264" y="711" on="0"/>
        <pt x="261" y="733" on="1"/>
      </contour>
      <contour>
        <pt x="54" y="500" on="1"/>
        <pt x="77" y="500" on="0"/>
        <pt x="129" y="503" on="0"/>
        <pt x="156" y="505" on="1"/>
        <pt x="188" y="508" on="0"/>
        <pt x="308" y="520" on="0"/>
        <pt x="460" y="534" on="0"/>
        <pt x="622" y="550" on="0"/>
        <pt x="776" y="562" on="0"/>
        <pt x="837" y="565" on="1"/>
        <pt x="856" y="566" on="0"/>
        <pt x="896" y="568" on="0"/>
        <pt x="913" y="570" on="1"/>
        <pt x="913" y="491" on="1"/>
        <pt x="906" y="492" on="0"/>
        <pt x="879" y="491" on="0"/>
        <pt x="849" y="491" on="0"/>
        <pt x="836" y="490" on="1"/>
        <pt x="797" y="490" on="0"/>
        <pt x="685" y="483" on="0"/>
        <pt x="554" y="472" on="0"/>
        <pt x="419" y="459" on="0"/>
        <pt x="294" y="447" on="0"/>
        <pt x="193" y="435" on="0"/>
        <pt x="162" y="432" on="1"/>
        <pt x="147" y="430" on="0"/>
        <pt x="111" y="425" on="0"/>
        <pt x="76" y="420" on="0"/>
        <pt x="62" y="418" on="1"/>
      </contour>
    </TTGlyph>
    <TTGlyph name="glyph02415" xMin="96" yMin="-42" xMax="871" yMax="763">
      <contour>
        <pt x="260" y="742" on="1"/>
        <pt x="278" y="741" on="0"/>
        <pt x="316" y="739" on="0"/>
        <pt x="338" y="739" on="1"/>
        <pt x="351" y="739" on="0"/>
        <pt x="409" y="741" on="0"/>
        <pt x="484" y="744" on="0"/>
        <pt x="560" y="748" on="0"/>
        <pt x="624" y="752" on="0"/>
        <pt x="640" y="754" on="1"/>
        <pt x="658" y="756" on="0"/>
        <pt x="685" y="761" on="0"/>
        <pt x="694" y="763" on="1"/>
        <pt x="743" y="706" on="1"/>
        <pt x="733" y="699" on="0"/>
        <pt x="701" y="677" on="0"/>
        <pt x="691" y="669" on="1"/>
        <pt x="663" y="646" on="0"/>
        <pt x="588" y="584" on="0"/>
        <pt x="505" y="516" on="0"/>
        <pt x="428" y="453" on="0"/>
        <pt x="399" y="429" on="1"/>
        <pt x="474" y="438" on="0"/>
        <pt x="638" y="451" on="0"/>
        <pt x="800" y="459" on="0"/>
        <pt x="870" y="459" on="1"/>
        <pt x="871" y="383" on="1"/>
        <pt x="823" y="385" on="0"/>
        <pt x="728" y="386" on="0"/>
        <pt x="646" y="383" on="0"/>
        <pt x="616" y="379" on="1"/>
        <pt x="580" y="374" on="0"/>
        <pt x="513" y="340" on="0"/>
        <pt x="459" y="290" on="0"/>
        <pt x="427" y="228" on="0"/>
        <pt x="427" y="193" on="1"/>
        <pt x="427" y="144" on="0"/>
        <pt x="474" y="85" on="0"/>
        <pt x="550" y="55" on="0"/>
        <pt x="595" y="49" on="1"/>
        <pt x="638" y="44" on="0"/>
        <pt x="709" y="45" on="0"/>
        <pt x="735" y="47" on="1"/>
        <pt x="719" y="-34" on="1"/>
        <pt x="540" y="-42" on="0"/>
        <pt x="349" y="69" on="0"/>
        <pt x="349" y="182" on="1"/>
        <pt x="349" y="224" on="0"/>
        <pt x="384" y="296" on="0"/>
        <pt x="436" y="351" on="0"/>
        <pt x="461" y="365" on="1"/>
        <pt x="383" y="359" on="0"/>
        <pt x="192" y="337" on="0"/>
        <pt x="103" y="322" on="1"/>
        <pt x="96" y="398" on="1"/>
        <pt x="122" y="401" on="0"/>
        <pt x="187" y="408" on="0"/>
        <pt x="249" y="415" on="0"/>
        <pt x="274" y="418" on="1"/>
        <pt x="313" y="446" on="0"/>
        <pt x="405" y="519" on="0"/>
        <pt x="495" y="594" on="0"/>
        <pt x="572" y="660" on="0"/>
        <pt x="595" y="681" on="1"/>
        <pt x="582" y="680" on="0"/>
        <pt x="530" y="677" on="0"/>
        <pt x="466" y="674" on="0"/>
        <pt x="403" y="670" on="0"/>
        <pt x="352" y="667" on="0"/>
        <pt x="339" y="666" on="1"/>
        <pt x="320" y="665" on="0"/>
        <pt x="280" y="661" on="0"/>
        <pt x="264" y="659" on="1"/>
      </contour>
    </TTGlyph>
    <TTGlyph name="glyph02417" xMin="103" yMin="-26" xMax="894" yMax="788">
      <contour>
        <pt x="439" y="780" on="1"/>
        <pt x="434" y="764" on="0"/>
        <pt x="424" y="717" on="0"/>
        <pt x="422" y="703" on="1"/>
        <pt x="415" y="668" on="0"/>
        <pt x="395" y="574" on="0"/>
        <pt x="373" y="472" on="0"/>
        <pt x="359" y="423" on="1"/>
        <pt x="346" y="371" on="0"/>
        <pt x="309" y="249" on="0"/>
        <pt x="268" y="124" on="0"/>
        <pt x="225" y="14" on="0"/>
        <pt x="206" y="-26" on="1"/>
        <pt x="118" y="4" on="1"/>
        <pt x="141" y="42" on="0"/>
        <pt x="188" y="149" on="0"/>
        <pt x="231" y="270" on="0"/>
        <pt x="270" y="391" on="0"/>
        <pt x="283" y="442" on="1"/>
        <pt x="292" y="476" on="0"/>
        <pt x="310" y="552" on="0"/>
        <pt x="326" y="626" on="0"/>
        <pt x="337" y="688" on="0"/>
        <pt x="340" y="707" on="1"/>
        <pt x="343" y="728" on="0"/>
        <pt x="345" y="773" on="0"/>
        <pt x="344" y="788" on="1"/>
      </contour>
      <contour>
        <pt x="221" y="617" on="1"/>
        <pt x="275" y="617" on="0"/>
        <pt x="402" y="628" on="0"/>
        <pt x="533" y="650" on="0"/>
        <pt x="594" y="665" on="1"/>
        <pt x="594" y="587" on="1"/>
        <pt x="533" y="574" on="0"/>
        <pt x="400" y="553" on="0"/>
        <pt x="272" y="543" on="0"/>
        <pt x="219" y="543" on="1"/>
        <pt x="187" y="543" on="0"/>
        <pt x="132" y="545" on="0"/>
        <pt x="105" y="547" on="1"/>
        <pt x="103" y="624" on="1"/>
        <pt x="138" y="620" on="0"/>
        <pt x="194" y="617" on="0"/>
      </contour>
      <contour>
        <pt x="530" y="482" on="1"/>
        <pt x="568" y="486" on="0"/>
        <pt x="663" y="490" on="0"/>
        <pt x="709" y="490" on="1"/>
        <pt x="752" y="490" on="0"/>
        <pt x="839" y="487" on="0"/>
        <pt x="879" y="482" on="1"/>
        <pt x="877" y="407" on="1"/>
        <pt x="839" y="412" on="0"/>
        <pt x="755" y="418" on="0"/>
        <pt x="712" y="418" on="1"/>
        <pt x="666" y="418" on="0"/>
        <pt x="575" y="413" on="0"/>
        <pt x="530" y="408" on="1"/>
      </contour>
      <contour>
        <pt x="551" y="243" on="1"/>
        <pt x="545" y="220" on="0"/>
        <pt x="537" y="174" on="0"/>
        <pt x="537" y="155" on="1"/>
        <pt x="537" y="138" on="0"/>
        <pt x="550" y="105" on="0"/>
        <pt x="585" y="79" on="0"/>
        <pt x="650" y="64" on="0"/>
        <pt x="702" y="64" on="1"/>
        <pt x="750" y="64" on="0"/>
        <pt x="848" y="75" on="0"/>
        <pt x="894" y="84" on="1"/>
        <pt x="891" y="3" on="1"/>
        <pt x="851" y="-2" on="0"/>
        <pt x="755" y="-11" on="0"/>
        <pt x="701" y="-11" on="1"/>
        <pt x="586" y="-11" on="0"/>
        <pt x="461" y="62" on="0"/>
        <pt x="461" y="135" on="1"/>
        <pt x="461" y="163" on="0"/>
        <pt x="470" y="219" on="0"/>
        <pt x="477" y="250" on="1"/>
      </contour>
    </TTGlyph>
    <TTGlyph name="glyph02418" xMin="89" yMin="-39" xMax="950" yMax="776">
      <contour>
        <pt x="759" y="737" on="1"/>
        <pt x="771" y="719" on="0"/>
        <pt x="802" y="671" on="0"/>
        <pt x="830" y="622" on="0"/>
        <pt x="840" y="602" on="1"/>
        <pt x="786" y="578" on="1"/>
        <pt x="777" y="598" on="0"/>
        <pt x="749" y="647" on="0"/>
        <pt x="720" y="696" on="0"/>
        <pt x="707" y="714" on="1"/>
      </contour>
      <contour>
        <pt x="867" y="776" on="1"/>
        <pt x="880" y="758" on="0"/>
        <pt x="912" y="710" on="0"/>
        <pt x="941" y="661" on="0"/>
        <pt x="950" y="642" on="1"/>
        <pt x="897" y="618" on="1"/>
        <pt x="882" y="651" on="0"/>
        <pt x="836" y="726" on="0"/>
        <pt x="815" y="754" on="1"/>
      </contour>
      <contour>
        <pt x="425" y="766" on="1"/>
        <pt x="420" y="751" on="0"/>
        <pt x="411" y="703" on="0"/>
        <pt x="408" y="689" on="1"/>
        <pt x="401" y="654" on="0"/>
        <pt x="382" y="560" on="0"/>
        <pt x="359" y="458" on="0"/>
        <pt x="346" y="410" on="1"/>
        <pt x="332" y="357" on="0"/>
        <pt x="296" y="235" on="0"/>
        <pt x="254" y="111" on="0"/>
        <pt x="211" y="1" on="0"/>
        <pt x="192" y="-39" on="1"/>
        <pt x="104" y="-10" on="1"/>
        <pt x="127" y="28" on="0"/>
        <pt x="174" y="135" on="0"/>
        <pt x="217" y="256" on="0"/>
        <pt x="256" y="377" on="0"/>
        <pt x="269" y="429" on="1"/>
        <pt x="278" y="462" on="0"/>
        <pt x="296" y="539" on="0"/>
        <pt x="312" y="613" on="0"/>
        <pt x="323" y="674" on="0"/>
        <pt x="326" y="694" on="1"/>
        <pt x="328" y="714" on="0"/>
        <pt x="331" y="760" on="0"/>
        <pt x="331" y="775" on="1"/>
      </contour>
      <contour>
        <pt x="207" y="603" on="1"/>
        <pt x="261" y="603" on="0"/>
        <pt x="388" y="615" on="0"/>
        <pt x="520" y="636" on="0"/>
        <pt x="580" y="651" on="1"/>
        <pt x="580" y="573" on="1"/>
        <pt x="519" y="560" on="0"/>
        <pt x="386" y="540" on="0"/>
        <pt x="258" y="529" on="0"/>
        <pt x="205" y="529" on="1"/>
        <pt x="173" y="529" on="0"/>
        <pt x="118" y="531" on="0"/>
        <pt x="91" y="533" on="1"/>
        <pt x="89" y="611" on="1"/>
        <pt x="124" y="607" on="0"/>
        <pt x="180" y="603" on="0"/>
      </contour>
      <contour>
        <pt x="516" y="469" on="1"/>
        <pt x="555" y="472" on="0"/>
        <pt x="649" y="477" on="0"/>
        <pt x="696" y="477" on="1"/>
        <pt x="738" y="477" on="0"/>
        <pt x="826" y="473" on="0"/>
        <pt x="866" y="469" on="1"/>
        <pt x="863" y="393" on="1"/>
        <pt x="826" y="398" on="0"/>
        <pt x="742" y="405" on="0"/>
        <pt x="698" y="405" on="1"/>
        <pt x="652" y="405" on="0"/>
        <pt x="561" y="400" on="0"/>
        <pt x="516" y="394" on="1"/>
      </contour>
      <contour>
        <pt x="538" y="230" on="1"/>
        <pt x="531" y="206" on="0"/>
        <pt x="523" y="161" on="0"/>
        <pt x="523" y="141" on="1"/>
        <pt x="523" y="125" on="0"/>
        <pt x="536" y="92" on="0"/>
        <pt x="571" y="66" on="0"/>
        <pt x="636" y="51" on="0"/>
        <pt x="688" y="51" on="1"/>
        <pt x="736" y="51" on="0"/>
        <pt x="835" y="61" on="0"/>
        <pt x="880" y="70" on="1"/>
        <pt x="877" y="-10" on="1"/>
        <pt x="837" y="-16" on="0"/>
        <pt x="742" y="-25" on="0"/>
        <pt x="687" y="-25" on="1"/>
        <pt x="572" y="-25" on="0"/>
        <pt x="448" y="49" on="0"/>
        <pt x="448" y="121" on="1"/>
        <pt x="448" y="149" on="0"/>
        <pt x="456" y="206" on="0"/>
        <pt x="463" y="237" on="1"/>
      </contour>
    </TTGlyph>
    <TTGlyph name="glyph02419" xMin="125" yMin="-30" xMax="848" yMax="787">
      <contour>
        <pt x="431" y="783" on="1"/>
        <pt x="425" y="763" on="0"/>
        <pt x="417" y="719" on="0"/>
        <pt x="413" y="701" on="1"/>
        <pt x="408" y="677" on="0"/>
        <pt x="395" y="608" on="0"/>
        <pt x="377" y="526" on="0"/>
        <pt x="357" y="444" on="0"/>
        <pt x="335" y="370" on="0"/>
        <pt x="325" y="343" on="1"/>
        <pt x="389" y="388" on="0"/>
        <pt x="527" y="426" on="0"/>
        <pt x="601" y="426" on="1"/>
        <pt x="678" y="426" on="0"/>
        <pt x="788" y="377" on="0"/>
        <pt x="848" y="289" on="0"/>
        <pt x="848" y="232" on="1"/>
        <pt x="848" y="155" on="0"/>
        <pt x="773" y="49" on="0"/>
        <pt x="638" y="-12" on="0"/>
        <pt x="452" y="-30" on="0"/>
        <pt x="340" y="-18" on="1"/>
        <pt x="320" y="62" on="1"/>
        <pt x="405" y="51" on="0"/>
        <pt x="565" y="55" on="0"/>
        <pt x="691" y="93" on="0"/>
        <pt x="766" y="170" on="0"/>
        <pt x="766" y="230" on="1"/>
        <pt x="766" y="285" on="0"/>
        <pt x="679" y="359" on="0"/>
        <pt x="593" y="359" on="1"/>
        <pt x="505" y="359" on="0"/>
        <pt x="351" y="299" on="0"/>
        <pt x="303" y="240" on="1"/>
        <pt x="294" y="230" on="0"/>
        <pt x="280" y="208" on="0"/>
        <pt x="273" y="195" on="1"/>
        <pt x="198" y="221" on="1"/>
        <pt x="226" y="276" on="0"/>
        <pt x="273" y="413" on="0"/>
        <pt x="309" y="552" on="0"/>
        <pt x="332" y="670" on="0"/>
        <pt x="336" y="706" on="1"/>
        <pt x="339" y="730" on="0"/>
        <pt x="342" y="767" on="0"/>
        <pt x="341" y="787" on="1"/>
      </contour>
      <contour>
        <pt x="125" y="658" on="1"/>
        <pt x="164" y="652" on="0"/>
        <pt x="267" y="642" on="0"/>
        <pt x="311" y="642" on="1"/>
        <pt x="358" y="642" on="0"/>
        <pt x="473" y="648" on="0"/>
        <pt x="599" y="660" on="0"/>
        <pt x="725" y="678" on="0"/>
        <pt x="783" y="691" on="1"/>
        <pt x="784" y="614" on="1"/>
        <pt x="732" y="605" on="0"/>
        <pt x="610" y="589" on="0"/>
        <pt x="483" y="577" on="0"/>
        <pt x="362" y="571" on="0"/>
        <pt x="312" y="571" on="1"/>
        <pt x="262" y="571" on="0"/>
        <pt x="168" y="576" on="0"/>
        <pt x="126" y="580" on="1"/>
      </contour>
    </TTGlyph>
    <TTGlyph name="glyph02420" xMin="288" yMin="106" xMax="934" yMax="600">
      <contour>
        <pt x="288" y="503" on="1"/>
        <pt x="310" y="507" on="0"/>
        <pt x="356" y="519" on="0"/>
        <pt x="379" y="525" on="1"/>
        <pt x="404" y="533" on="0"/>
        <pt x="481" y="558" on="0"/>
        <pt x="571" y="583" on="0"/>
        <pt x="662" y="600" on="0"/>
        <pt x="701" y="600" on="1"/>
        <pt x="771" y="600" on="0"/>
        <pt x="876" y="547" on="0"/>
        <pt x="934" y="456" on="0"/>
        <pt x="934" y="396" on="1"/>
        <pt x="934" y="329" on="0"/>
        <pt x="875" y="226" on="0"/>
        <pt x="765" y="153" on="0"/>
        <pt x="608" y="111" on="0"/>
        <pt x="510" y="106" on="1"/>
        <pt x="479" y="181" on="1"/>
        <pt x="556" y="183" on="0"/>
        <pt x="692" y="209" on="0"/>
        <pt x="797" y="259" on="0"/>
        <pt x="856" y="340" on="0"/>
        <pt x="856" y="397" on="1"/>
        <pt x="856" y="432" on="0"/>
        <pt x="821" y="493" on="0"/>
        <pt x="752" y="530" on="0"/>
        <pt x="699" y="530" on="1"/>
        <pt x="663" y="530" on="0"/>
        <pt x="576" y="512" on="0"/>
        <pt x="486" y="485" on="0"/>
        <pt x="403" y="454" on="0"/>
        <pt x="338" y="428" on="0"/>
        <pt x="320" y="421" on="1"/>
      </contour>
    </TTGlyph>
    <TTGlyph name="glyph02421" xMin="90" yMin="21" xMax="908" yMax="646">
      <contour>
        <pt x="90" y="521" on="1"/>
        <pt x="116" y="526" on="0"/>
        <pt x="171" y="541" on="0"/>
        <pt x="198" y="549" on="1"/>
        <pt x="229" y="559" on="0"/>
        <pt x="327" y="591" on="0"/>
        <pt x="443" y="623" on="0"/>
        <pt x="563" y="646" on="0"/>
        <pt x="617" y="646" on="1"/>
        <pt x="698" y="646" on="0"/>
        <pt x="830" y="585" on="0"/>
        <pt x="908" y="470" on="0"/>
        <pt x="908" y="387" on="1"/>
        <pt x="908" y="299" on="0"/>
        <pt x="826" y="167" on="0"/>
        <pt x="680" y="78" on="0"/>
        <pt x="485" y="28" on="0"/>
        <pt x="372" y="21" on="1"/>
        <pt x="337" y="104" on="1"/>
        <pt x="434" y="106" on="0"/>
        <pt x="608" y="140" on="0"/>
        <pt x="744" y="207" on="0"/>
        <pt x="823" y="314" on="0"/>
        <pt x="823" y="389" on="1"/>
        <pt x="823" y="440" on="0"/>
        <pt x="774" y="523" on="0"/>
        <pt x="681" y="572" on="0"/>
        <pt x="615" y="572" on="1"/>
        <pt x="567" y="572" on="0"/>
        <pt x="453" y="549" on="0"/>
        <pt x="338" y="514" on="0"/>
        <pt x="232" y="475" on="0"/>
        <pt x="149" y="442" on="0"/>
        <pt x="125" y="432" on="1"/>
      </contour>
    </TTGlyph>
    <TTGlyph name="glyph02423" xMin="86" yMin="-25" xMax="874" yMax="721">
      <contour>
        <pt x="86" y="658" on="1"/>
        <pt x="114" y="659" on="0"/>
        <pt x="159" y="662" on="0"/>
        <pt x="174" y="663" on="1"/>
        <pt x="193" y="665" on="0"/>
        <pt x="261" y="672" on="0"/>
        <pt x="350" y="681" on="0"/>
        <pt x="450" y="690" on="0"/>
        <pt x="554" y="700" on="0"/>
        <pt x="603" y="704" on="1"/>
        <pt x="657" y="708" on="0"/>
        <pt x="755" y="715" on="0"/>
        <pt x="841" y="720" on="0"/>
        <pt x="873" y="721" on="1"/>
        <pt x="874" y="641" on="1"/>
        <pt x="846" y="641" on="0"/>
        <pt x="773" y="639" on="0"/>
        <pt x="703" y="633" on="0"/>
        <pt x="678" y="626" on="1"/>
        <pt x="625" y="609" on="0"/>
        <pt x="540" y="541" on="0"/>
        <pt x="479" y="453" on="0"/>
        <pt x="446" y="359" on="0"/>
        <pt x="446" y="316" on="1"/>
        <pt x="446" y="258" on="0"/>
        <pt x="486" y="174" on="0"/>
        <pt x="555" y="115" on="0"/>
        <pt x="644" y="79" on="0"/>
        <pt x="741" y="61" on="0"/>
        <pt x="789" y="59" on="1"/>
        <pt x="761" y="-25" on="1"/>
        <pt x="706" y="-23" on="0"/>
        <pt x="594" y="3" on="0"/>
        <pt x="492" y="54" on="0"/>
        <pt x="412" y="130" on="0"/>
        <pt x="366" y="233" on="0"/>
        <pt x="366" y="299" on="1"/>
        <pt x="366" y="356" on="0"/>
        <pt x="399" y="459" on="0"/>
        <pt x="454" y="544" on="0"/>
        <pt x="522" y="610" on="0"/>
        <pt x="555" y="630" on="1"/>
        <pt x="523" y="627" on="0"/>
        <pt x="431" y="617" on="0"/>
        <pt x="325" y="605" on="0"/>
        <pt x="219" y="592" on="0"/>
        <pt x="127" y="577" on="0"/>
        <pt x="95" y="571" on="1"/>
      </contour>
    </TTGlyph>
    <TTGlyph name="glyph02424" xMin="78" yMin="-31" xMax="914" yMax="715">
      <contour>
        <pt x="722" y="516" on="1"/>
        <pt x="734" y="500" on="0"/>
        <pt x="763" y="452" on="0"/>
        <pt x="793" y="401" on="0"/>
        <pt x="804" y="379" on="1"/>
        <pt x="753" y="356" on="1"/>
        <pt x="736" y="392" on="0"/>
        <pt x="695" y="464" on="0"/>
        <pt x="673" y="495" on="1"/>
      </contour>
      <contour>
        <pt x="830" y="557" on="1"/>
        <pt x="841" y="542" on="0"/>
        <pt x="872" y="494" on="0"/>
        <pt x="903" y="443" on="0"/>
        <pt x="914" y="422" on="1"/>
        <pt x="864" y="398" on="1"/>
        <pt x="846" y="434" on="0"/>
        <pt x="804" y="504" on="0"/>
        <pt x="781" y="535" on="1"/>
      </contour>
      <contour>
        <pt x="78" y="652" on="1"/>
        <pt x="106" y="653" on="0"/>
        <pt x="151" y="656" on="0"/>
        <pt x="166" y="657" on="1"/>
        <pt x="186" y="659" on="0"/>
        <pt x="254" y="666" on="0"/>
        <pt x="342" y="675" on="0"/>
        <pt x="442" y="684" on="0"/>
        <pt x="546" y="694" on="0"/>
        <pt x="595" y="698" on="1"/>
        <pt x="649" y="702" on="0"/>
        <pt x="748" y="709" on="0"/>
        <pt x="833" y="714" on="0"/>
        <pt x="865" y="715" on="1"/>
        <pt x="866" y="635" on="1"/>
        <pt x="838" y="635" on="0"/>
        <pt x="765" y="633" on="0"/>
        <pt x="695" y="627" on="0"/>
        <pt x="670" y="619" on="1"/>
        <pt x="617" y="603" on="0"/>
        <pt x="532" y="535" on="0"/>
        <pt x="471" y="447" on="0"/>
        <pt x="438" y="353" on="0"/>
        <pt x="438" y="310" on="1"/>
        <pt x="438" y="252" on="0"/>
        <pt x="478" y="168" on="0"/>
        <pt x="547" y="109" on="0"/>
        <pt x="636" y="73" on="0"/>
        <pt x="733" y="55" on="0"/>
        <pt x="781" y="53" on="1"/>
        <pt x="753" y="-31" on="1"/>
        <pt x="699" y="-29" on="0"/>
        <pt x="586" y="-3" on="0"/>
        <pt x="484" y="48" on="0"/>
        <pt x="404" y="124" on="0"/>
        <pt x="358" y="227" on="0"/>
        <pt x="358" y="293" on="1"/>
        <pt x="358" y="350" on="0"/>
        <pt x="391" y="453" on="0"/>
        <pt x="447" y="538" on="0"/>
        <pt x="514" y="604" on="0"/>
        <pt x="547" y="624" on="1"/>
        <pt x="516" y="621" on="0"/>
        <pt x="424" y="611" on="0"/>
        <pt x="317" y="599" on="0"/>
        <pt x="211" y="586" on="0"/>
        <pt x="119" y="571" on="0"/>
        <pt x="87" y="564" on="1"/>
      </contour>
    </TTGlyph>
    <TTGlyph name="glyph02425" xMin="192" yMin="-19" xMax="821" yMax="772">
      <contour>
        <pt x="794" y="593" on="1"/>
        <pt x="779" y="583" on="0"/>
        <pt x="742" y="563" on="0"/>
        <pt x="720" y="552" on="1"/>
        <pt x="695" y="540" on="0"/>
        <pt x="622" y="503" on="0"/>
        <pt x="540" y="460" on="0"/>
        <pt x="456" y="414" on="0"/>
        <pt x="421" y="390" on="1"/>
        <pt x="352" y="345" on="0"/>
        <pt x="275" y="248" on="0"/>
        <pt x="275" y="192" on="1"/>
        <pt x="275" y="132" on="0"/>
        <pt x="391" y="61" on="0"/>
        <pt x="507" y="61" on="1"/>
        <pt x="561" y="61" on="0"/>
        <pt x="677" y="70" on="0"/>
        <pt x="783" y="85" on="0"/>
        <pt x="821" y="95" on="1"/>
        <pt x="820" y="5" on="1"/>
        <pt x="784" y="-1" on="0"/>
        <pt x="686" y="-13" on="0"/>
        <pt x="572" y="-19" on="0"/>
        <pt x="511" y="-19" on="1"/>
        <pt x="442" y="-19" on="0"/>
        <pt x="325" y="3" on="0"/>
        <pt x="240" y="51" on="0"/>
        <pt x="192" y="129" on="0"/>
        <pt x="192" y="184" on="1"/>
        <pt x="192" y="237" on="0"/>
        <pt x="238" y="329" on="0"/>
        <pt x="322" y="411" on="0"/>
        <pt x="380" y="449" on="1"/>
        <pt x="417" y="475" on="0"/>
        <pt x="502" y="524" on="0"/>
        <pt x="586" y="568" on="0"/>
        <pt x="658" y="605" on="0"/>
        <pt x="681" y="619" on="1"/>
        <pt x="703" y="632" on="0"/>
        <pt x="736" y="652" on="0"/>
        <pt x="751" y="664" on="1"/>
      </contour>
      <contour>
        <pt x="299" y="772" on="1"/>
        <pt x="322" y="709" on="0"/>
        <pt x="374" y="589" on="0"/>
        <pt x="428" y="485" on="0"/>
        <pt x="450" y="445" on="1"/>
        <pt x="381" y="405" on="1"/>
        <pt x="357" y="445" on="0"/>
        <pt x="302" y="555" on="0"/>
        <pt x="246" y="679" on="0"/>
        <pt x="220" y="739" on="1"/>
      </contour>
    </TTGlyph>
    <TTGlyph name="glyph02426" xMin="175" yMin="-32" xMax="959" yMax="809">
      <contour>
        <pt x="768" y="769" on="1"/>
        <pt x="781" y="751" on="0"/>
        <pt x="810" y="703" on="0"/>
        <pt x="838" y="654" on="0"/>
        <pt x="849" y="634" on="1"/>
        <pt x="795" y="610" on="1"/>
        <pt x="781" y="640" on="0"/>
        <pt x="736" y="719" on="0"/>
        <pt x="716" y="747" on="1"/>
      </contour>
      <contour>
        <pt x="876" y="809" on="1"/>
        <pt x="890" y="791" on="0"/>
        <pt x="921" y="742" on="0"/>
        <pt x="950" y="693" on="0"/>
        <pt x="959" y="675" on="1"/>
        <pt x="906" y="651" on="1"/>
        <pt x="891" y="683" on="0"/>
        <pt x="846" y="759" on="0"/>
        <pt x="824" y="786" on="1"/>
      </contour>
      <contour>
        <pt x="753" y="567" on="1"/>
        <pt x="736" y="557" on="0"/>
        <pt x="699" y="538" on="0"/>
        <pt x="677" y="527" on="1"/>
        <pt x="644" y="510" on="0"/>
        <pt x="553" y="464" on="0"/>
        <pt x="452" y="409" on="0"/>
        <pt x="404" y="377" on="1"/>
        <pt x="336" y="333" on="0"/>
        <pt x="258" y="235" on="0"/>
        <pt x="258" y="180" on="1"/>
        <pt x="258" y="119" on="0"/>
        <pt x="374" y="49" on="0"/>
        <pt x="490" y="49" on="1"/>
        <pt x="544" y="49" on="0"/>
        <pt x="661" y="58" on="0"/>
        <pt x="767" y="72" on="0"/>
        <pt x="805" y="81" on="1"/>
        <pt x="804" y="-7" on="1"/>
        <pt x="767" y="-14" on="0"/>
        <pt x="670" y="-25" on="0"/>
        <pt x="556" y="-32" on="0"/>
        <pt x="494" y="-32" on="1"/>
        <pt x="425" y="-32" on="0"/>
        <pt x="309" y="-10" on="0"/>
        <pt x="223" y="38" on="0"/>
        <pt x="175" y="116" on="0"/>
        <pt x="175" y="171" on="1"/>
        <pt x="175" y="224" on="0"/>
        <pt x="221" y="317" on="0"/>
        <pt x="306" y="399" on="0"/>
        <pt x="363" y="437" on="1"/>
        <pt x="413" y="470" on="0"/>
        <pt x="517" y="528" on="0"/>
        <pt x="610" y="576" on="0"/>
        <pt x="642" y="595" on="1"/>
        <pt x="664" y="607" on="0"/>
        <pt x="697" y="628" on="0"/>
        <pt x="712" y="640" on="1"/>
      </contour>
      <contour>
        <pt x="282" y="759" on="1"/>
        <pt x="305" y="696" on="0"/>
        <pt x="358" y="576" on="0"/>
        <pt x="411" y="472" on="0"/>
        <pt x="434" y="433" on="1"/>
        <pt x="365" y="392" on="1"/>
        <pt x="340" y="432" on="0"/>
        <pt x="285" y="542" on="0"/>
        <pt x="230" y="666" on="0"/>
        <pt x="203" y="726" on="1"/>
      </contour>
    </TTGlyph>
    <TTGlyph name="glyph02427" xMin="101" yMin="-41" xMax="924" yMax="795">
      <contour>
        <pt x="105" y="627" on="1"/>
        <pt x="133" y="624" on="0"/>
        <pt x="194" y="621" on="0"/>
        <pt x="225" y="621" on="1"/>
        <pt x="279" y="621" on="0"/>
        <pt x="393" y="631" on="0"/>
        <pt x="512" y="653" on="0"/>
        <pt x="568" y="671" on="1"/>
        <pt x="570" y="597" on="1"/>
        <pt x="522" y="585" on="0"/>
        <pt x="407" y="562" on="0"/>
        <pt x="285" y="550" on="0"/>
        <pt x="225" y="550" on="1"/>
        <pt x="198" y="550" on="0"/>
        <pt x="138" y="551" on="0"/>
        <pt x="110" y="553" on="1"/>
      </contour>
      <contour>
        <pt x="453" y="786" on="1"/>
        <pt x="447" y="763" on="0"/>
        <pt x="430" y="691" on="0"/>
        <pt x="408" y="612" on="0"/>
        <pt x="397" y="576" on="1"/>
        <pt x="374" y="506" on="0"/>
        <pt x="302" y="349" on="0"/>
        <pt x="219" y="202" on="0"/>
        <pt x="178" y="147" on="1"/>
        <pt x="101" y="187" on="1"/>
        <pt x="134" y="225" on="0"/>
        <pt x="199" y="323" on="0"/>
        <pt x="257" y="431" on="0"/>
        <pt x="305" y="535" on="0"/>
        <pt x="320" y="578" on="1"/>
        <pt x="336" y="625" on="0"/>
        <pt x="364" y="744" on="0"/>
        <pt x="366" y="795" on="1"/>
      </contour>
      <contour>
        <pt x="685" y="484" on="1"/>
        <pt x="684" y="454" on="0"/>
        <pt x="683" y="405" on="0"/>
        <pt x="684" y="378" on="1"/>
        <pt x="685" y="354" on="0"/>
        <pt x="688" y="281" on="0"/>
        <pt x="692" y="199" on="0"/>
        <pt x="694" y="125" on="0"/>
        <pt x="694" y="101" on="1"/>
        <pt x="694" y="61" on="0"/>
        <pt x="659" y="-3" on="0"/>
        <pt x="584" y="-41" on="0"/>
        <pt x="522" y="-41" on="1"/>
        <pt x="468" y="-41" on="0"/>
        <pt x="379" y="-12" on="0"/>
        <pt x="326" y="51" on="0"/>
        <pt x="326" y="100" on="1"/>
        <pt x="326" y="145" on="0"/>
        <pt x="378" y="211" on="0"/>
        <pt x="467" y="247" on="0"/>
        <pt x="522" y="247" on="1"/>
        <pt x="603" y="247" on="0"/>
        <pt x="741" y="201" on="0"/>
        <pt x="854" y="131" on="0"/>
        <pt x="894" y="96" on="1"/>
        <pt x="851" y="29" on="1"/>
        <pt x="823" y="54" on="0"/>
        <pt x="753" y="108" on="0"/>
        <pt x="670" y="155" on="0"/>
        <pt x="574" y="184" on="0"/>
        <pt x="519" y="184" on="1"/>
        <pt x="465" y="184" on="0"/>
        <pt x="399" y="140" on="0"/>
        <pt x="399" y="106" on="1"/>
        <pt x="399" y="72" on="0"/>
        <pt x="455" y="30" on="0"/>
        <pt x="512" y="30" on="1"/>
        <pt x="553" y="30" on="0"/>
        <pt x="600" y="56" on="0"/>
        <pt x="619" y="99" on="0"/>
        <pt x="619" y="125" on="1"/>
        <pt x="619" y="153" on="0"/>
        <pt x="616" y="241" on="0"/>
        <pt x="612" y="343" on="0"/>
        <pt x="608" y="443" on="0"/>
        <pt x="607" y="484" on="1"/>
      </contour>
      <contour>
        <pt x="879" y="458" on="1"/>
        <pt x="853" y="480" on="0"/>
        <pt x="772" y="532" on="0"/>
        <pt x="688" y="578" on="0"/>
        <pt x="656" y="593" on="1"/>
        <pt x="695" y="653" on="1"/>
        <pt x="722" y="641" on="0"/>
        <pt x="786" y="608" on="0"/>
        <pt x="852" y="571" on="0"/>
        <pt x="906" y="536" on="0"/>
        <pt x="924" y="523" on="1"/>
      </contour>
    </TTGlyph>
    <TTGlyph name="glyph02428" xMin="131" yMin="-24" xMax="891" yMax="754">
      <contour>
        <pt x="457" y="671" on="1"/>
        <pt x="497" y="664" on="0"/>
        <pt x="604" y="659" on="0"/>
        <pt x="719" y="660" on="0"/>
        <pt x="823" y="666" on="0"/>
        <pt x="860" y="671" on="1"/>
        <pt x="860" y="591" on="1"/>
        <pt x="820" y="587" on="0"/>
        <pt x="716" y="582" on="0"/>
        <pt x="603" y="582" on="0"/>
        <pt x="498" y="587" on="0"/>
        <pt x="457" y="591" on="1"/>
      </contour>
      <contour>
        <pt x="496" y="271" on="1"/>
        <pt x="489" y="245" on="0"/>
        <pt x="481" y="201" on="0"/>
        <pt x="481" y="181" on="1"/>
        <pt x="481" y="165" on="0"/>
        <pt x="496" y="133" on="0"/>
        <pt x="532" y="108" on="0"/>
        <pt x="597" y="94" on="0"/>
        <pt x="647" y="94" on="1"/>
        <pt x="712" y="94" on="0"/>
        <pt x="830" y="106" on="0"/>
        <pt x="889" y="119" on="1"/>
        <pt x="891" y="35" on="1"/>
        <pt x="845" y="26" on="0"/>
        <pt x="723" y="16" on="0"/>
        <pt x="646" y="16" on="1"/>
        <pt x="523" y="16" on="0"/>
        <pt x="408" y="94" on="0"/>
        <pt x="408" y="163" on="1"/>
        <pt x="408" y="188" on="0"/>
        <pt x="416" y="243" on="0"/>
        <pt x="424" y="278" on="1"/>
      </contour>
      <contour>
        <pt x="271" y="746" on="1"/>
        <pt x="269" y="738" on="0"/>
        <pt x="261" y="714" on="0"/>
        <pt x="255" y="689" on="0"/>
        <pt x="253" y="680" on="1"/>
        <pt x="248" y="653" on="0"/>
        <pt x="234" y="582" on="0"/>
        <pt x="222" y="500" on="0"/>
        <pt x="211" y="417" on="0"/>
        <pt x="204" y="337" on="0"/>
        <pt x="204" y="304" on="1"/>
        <pt x="204" y="269" on="0"/>
        <pt x="209" y="196" on="0"/>
        <pt x="213" y="169" on="1"/>
        <pt x="221" y="192" on="0"/>
        <pt x="241" y="242" on="0"/>
        <pt x="261" y="291" on="0"/>
        <pt x="269" y="311" on="1"/>
        <pt x="311" y="279" on="1"/>
        <pt x="299" y="245" on="0"/>
        <pt x="270" y="160" on="0"/>
        <pt x="246" y="83" on="0"/>
        <pt x="241" y="59" on="1"/>
        <pt x="240" y="49" on="0"/>
        <pt x="236" y="24" on="0"/>
        <pt x="236" y="15" on="1"/>
        <pt x="237" y="8" on="0"/>
        <pt x="238" y="-11" on="0"/>
        <pt x="239" y="-19" on="1"/>
        <pt x="167" y="-24" on="1"/>
        <pt x="153" y="29" on="0"/>
        <pt x="131" y="192" on="0"/>
        <pt x="131" y="291" on="1"/>
        <pt x="131" y="345" on="0"/>
        <pt x="141" y="458" on="0"/>
        <pt x="157" y="565" on="0"/>
        <pt x="171" y="654" on="0"/>
        <pt x="175" y="684" on="1"/>
        <pt x="177" y="701" on="0"/>
        <pt x="182" y="738" on="0"/>
        <pt x="182" y="754" on="1"/>
      </contour>
    </TTGlyph>
    <TTGlyph name="glyph02431" xMin="100" yMin="-14" xMax="904" yMax="720">
      <contour>
        <pt x="565" y="686" on="1"/>
        <pt x="556" y="609" on="0"/>
        <pt x="526" y="443" on="0"/>
        <pt x="502" y="365" on="1"/>
        <pt x="473" y="264" on="0"/>
        <pt x="401" y="128" on="0"/>
        <pt x="320" y="59" on="0"/>
        <pt x="275" y="59" on="1"/>
        <pt x="231" y="59" on="0"/>
        <pt x="151" y="123" on="0"/>
        <pt x="100" y="241" on="0"/>
        <pt x="100" y="322" on="1"/>
        <pt x="100" y="402" on="0"/>
        <pt x="165" y="546" on="0"/>
        <pt x="283" y="657" on="0"/>
        <pt x="438" y="720" on="0"/>
        <pt x="528" y="720" on="1"/>
        <pt x="614" y="720" on="0"/>
        <pt x="753" y="664" on="0"/>
        <pt x="852" y="565" on="0"/>
        <pt x="904" y="434" on="0"/>
        <pt x="904" y="360" on="1"/>
        <pt x="904" y="259" on="0"/>
        <pt x="817" y="101" on="0"/>
        <pt x="652" y="2" on="0"/>
        <pt x="536" y="-14" on="1"/>
        <pt x="491" y="59" on="1"/>
        <pt x="514" y="62" on="0"/>
        <pt x="557" y="68" on="0"/>
        <pt x="574" y="72" on="1"/>
        <pt x="622" y="82" on="0"/>
        <pt x="711" y="129" on="0"/>
        <pt x="782" y="200" on="0"/>
        <pt x="824" y="300" on="0"/>
        <pt x="824" y="363" on="1"/>
        <pt x="824" y="421" on="0"/>
        <pt x="784" y="525" on="0"/>
        <pt x="708" y="604" on="0"/>
        <pt x="598" y="649" on="0"/>
        <pt x="527" y="649" on="1"/>
        <pt x="446" y="649" on="0"/>
        <pt x="317" y="590" on="0"/>
        <pt x="225" y="495" on="0"/>
        <pt x="177" y="383" on="0"/>
        <pt x="177" y="329" on="1"/>
        <pt x="177" y="268" on="0"/>
        <pt x="209" y="188" on="0"/>
        <pt x="255" y="151" on="0"/>
        <pt x="277" y="151" on="1"/>
        <pt x="300" y="151" on="0"/>
        <pt x="350" y="197" on="0"/>
        <pt x="402" y="299" on="0"/>
        <pt x="426" y="381" on="1"/>
        <pt x="448" y="452" on="0"/>
        <pt x="477" y="611" on="0"/>
        <pt x="484" y="687" on="1"/>
      </contour>
    </TTGlyph>
    <TTGlyph name="glyph02432" xMin="122" yMin="-28" xMax="941" yMax="764">
      <contour>
        <pt x="401" y="588" on="1"/>
        <pt x="443" y="584" on="0"/>
        <pt x="523" y="580" on="0"/>
        <pt x="567" y="580" on="1"/>
        <pt x="655" y="580" on="0"/>
        <pt x="830" y="594" on="0"/>
        <pt x="904" y="609" on="1"/>
        <pt x="904" y="532" on="1"/>
        <pt x="826" y="520" on="0"/>
        <pt x="652" y="507" on="0"/>
        <pt x="565" y="507" on="1"/>
        <pt x="523" y="507" on="0"/>
        <pt x="444" y="510" on="0"/>
        <pt x="401" y="513" on="1"/>
      </contour>
      <contour>
        <pt x="744" y="763" on="1"/>
        <pt x="742" y="749" on="0"/>
        <pt x="739" y="719" on="0"/>
        <pt x="738" y="704" on="1"/>
        <pt x="737" y="687" on="0"/>
        <pt x="735" y="632" on="0"/>
        <pt x="735" y="570" on="0"/>
        <pt x="735" y="541" on="1"/>
        <pt x="735" y="465" on="0"/>
        <pt x="742" y="317" on="0"/>
        <pt x="750" y="187" on="0"/>
        <pt x="750" y="136" on="1"/>
        <pt x="750" y="95" on="0"/>
        <pt x="720" y="23" on="0"/>
        <pt x="646" y="-23" on="0"/>
        <pt x="580" y="-23" on="1"/>
        <pt x="482" y="-23" on="0"/>
        <pt x="376" y="52" on="0"/>
        <pt x="376" y="118" on="1"/>
        <pt x="376" y="160" on="0"/>
        <pt x="423" y="227" on="0"/>
        <pt x="514" y="266" on="0"/>
        <pt x="578" y="266" on="1"/>
        <pt x="640" y="266" on="0"/>
        <pt x="746" y="239" on="0"/>
        <pt x="835" y="193" on="0"/>
        <pt x="910" y="137" on="0"/>
        <pt x="941" y="109" on="1"/>
        <pt x="898" y="42" on="1"/>
        <pt x="847" y="90" on="0"/>
        <pt x="743" y="163" on="0"/>
        <pt x="634" y="205" on="0"/>
        <pt x="572" y="205" on="1"/>
        <pt x="517" y="205" on="0"/>
        <pt x="448" y="162" on="0"/>
        <pt x="448" y="126" on="1"/>
        <pt x="448" y="88" on="0"/>
        <pt x="513" y="50" on="0"/>
        <pt x="566" y="50" on="1"/>
        <pt x="608" y="50" on="0"/>
        <pt x="654" y="75" on="0"/>
        <pt x="672" y="123" on="0"/>
        <pt x="672" y="156" on="1"/>
        <pt x="672" y="182" on="0"/>
        <pt x="668" y="271" on="0"/>
        <pt x="663" y="379" on="0"/>
        <pt x="659" y="491" on="0"/>
        <pt x="659" y="540" on="1"/>
        <pt x="659" y="590" on="0"/>
        <pt x="658" y="677" on="0"/>
        <pt x="659" y="703" on="1"/>
        <pt x="659" y="715" on="0"/>
        <pt x="657" y="750" on="0"/>
        <pt x="654" y="763" on="1"/>
      </contour>
      <contour>
        <pt x="260" y="756" on="1"/>
        <pt x="258" y="748" on="0"/>
        <pt x="250" y="724" on="0"/>
        <pt x="245" y="700" on="0"/>
        <pt x="243" y="691" on="1"/>
        <pt x="237" y="663" on="0"/>
        <pt x="224" y="588" on="0"/>
        <pt x="211" y="500" on="0"/>
        <pt x="200" y="411" on="0"/>
        <pt x="194" y="329" on="0"/>
        <pt x="194" y="296" on="1"/>
        <pt x="194" y="260" on="0"/>
        <pt x="198" y="197" on="0"/>
        <pt x="204" y="161" on="1"/>
        <pt x="211" y="184" on="0"/>
        <pt x="231" y="234" on="0"/>
        <pt x="251" y="284" on="0"/>
        <pt x="259" y="304" on="1"/>
        <pt x="302" y="271" on="1"/>
        <pt x="289" y="237" on="0"/>
        <pt x="260" y="154" on="0"/>
        <pt x="236" y="79" on="0"/>
        <pt x="231" y="55" on="1"/>
        <pt x="229" y="45" on="0"/>
        <pt x="226" y="20" on="0"/>
        <pt x="226" y="11" on="1"/>
        <pt x="227" y="3" on="0"/>
        <pt x="228" y="-15" on="0"/>
        <pt x="229" y="-23" on="1"/>
        <pt x="159" y="-28" on="1"/>
        <pt x="144" y="24" on="0"/>
        <pt x="122" y="182" on="0"/>
        <pt x="122" y="282" on="1"/>
        <pt x="122" y="336" on="0"/>
        <pt x="132" y="455" on="0"/>
        <pt x="147" y="569" on="0"/>
        <pt x="162" y="664" on="0"/>
        <pt x="166" y="694" on="1"/>
        <pt x="169" y="711" on="0"/>
        <pt x="173" y="748" on="0"/>
        <pt x="173" y="764" on="1"/>
      </contour>
    </TTGlyph>
    <TTGlyph name="glyph02441" xMin="63" yMin="43" xMax="943" yMax="636">
      <contour>
        <pt x="63" y="278" on="1"/>
        <pt x="82" y="291" on="0"/>
        <pt x="115" y="322" on="0"/>
        <pt x="135" y="343" on="1"/>
        <pt x="154" y="362" on="0"/>
        <pt x="203" y="420" on="0"/>
        <pt x="254" y="486" on="0"/>
        <pt x="305" y="551" on="0"/>
        <pt x="327" y="576" on="1"/>
        <pt x="370" y="626" on="0"/>
        <pt x="453" y="636" on="0"/>
        <pt x="501" y="586" on="1"/>
        <pt x="531" y="557" on="0"/>
        <pt x="598" y="478" on="0"/>
        <pt x="667" y="396" on="0"/>
        <pt x="698" y="362" on="1"/>
        <pt x="720" y="338" on="0"/>
        <pt x="777" y="277" on="0"/>
        <pt x="842" y="211" on="0"/>
        <pt x="910" y="145" on="0"/>
        <pt x="943" y="116" on="1"/>
        <pt x="879" y="43" on="1"/>
        <pt x="843" y="78" on="0"/>
        <pt x="761" y="163" on="0"/>
        <pt x="682" y="252" on="0"/>
        <pt x="649" y="290" on="1"/>
        <pt x="617" y="326" on="0"/>
        <pt x="550" y="408" on="0"/>
        <pt x="488" y="482" on="0"/>
        <pt x="465" y="507" on="1"/>
        <pt x="444" y="530" on="0"/>
        <pt x="415" y="542" on="0"/>
        <pt x="390" y="526" on="0"/>
        <pt x="372" y="505" on="1"/>
        <pt x="350" y="477" on="0"/>
        <pt x="286" y="393" on="0"/>
        <pt x="221" y="309" on="0"/>
        <pt x="196" y="279" on="1"/>
        <pt x="181" y="259" on="0"/>
        <pt x="150" y="218" on="0"/>
        <pt x="138" y="203" on="1"/>
      </contour>
    </TTGlyph>
    <TTGlyph name="glyph02447" xMin="185" yMin="-38" xMax="858" yMax="786">
      <contour>
        <pt x="570" y="786" on="1"/>
        <pt x="569" y="773" on="0"/>
        <pt x="566" y="742" on="0"/>
        <pt x="565" y="721" on="1"/>
        <pt x="565" y="706" on="0"/>
        <pt x="564" y="647" on="0"/>
        <pt x="564" y="574" on="0"/>
        <pt x="564" y="498" on="0"/>
        <pt x="564" y="467" on="1"/>
        <pt x="564" y="419" on="0"/>
        <pt x="568" y="311" on="0"/>
        <pt x="573" y="208" on="0"/>
        <pt x="578" y="125" on="0"/>
        <pt x="578" y="100" on="1"/>
        <pt x="578" y="66" on="0"/>
        <pt x="544" y="2" on="0"/>
        <pt x="469" y="-38" on="0"/>
        <pt x="404" y="-38" on="1"/>
        <pt x="298" y="-38" on="0"/>
        <pt x="185" y="36" on="0"/>
        <pt x="185" y="107" on="1"/>
        <pt x="185" y="152" on="0"/>
        <pt x="241" y="220" on="0"/>
        <pt x="342" y="258" on="0"/>
        <pt x="413" y="258" on="1"/>
        <pt x="490" y="258" on="0"/>
        <pt x="628" y="221" on="0"/>
        <pt x="742" y="166" on="0"/>
        <pt x="829" y="107" on="0"/>
        <pt x="858" y="83" on="1"/>
        <pt x="812" y="12" on="1"/>
        <pt x="779" y="43" on="0"/>
        <pt x="692" y="106" on="0"/>
        <pt x="588" y="160" on="0"/>
        <pt x="470" y="192" on="0"/>
        <pt x="404" y="192" on="1"/>
        <pt x="334" y="192" on="0"/>
        <pt x="260" y="144" on="0"/>
        <pt x="260" y="111" on="1"/>
        <pt x="260" y="77" on="0"/>
        <pt x="323" y="33" on="0"/>
        <pt x="395" y="33" on="1"/>
        <pt x="424" y="33" on="0"/>
        <pt x="471" y="47" on="0"/>
        <pt x="499" y="83" on="0"/>
        <pt x="499" y="117" on="1"/>
        <pt x="499" y="145" on="0"/>
        <pt x="496" y="237" on="0"/>
        <pt x="492" y="340" on="0"/>
        <pt x="489" y="435" on="0"/>
        <pt x="489" y="467" on="1"/>
        <pt x="489" y="500" on="0"/>
        <pt x="489" y="570" on="0"/>
        <pt x="489" y="639" on="0"/>
        <pt x="490" y="701" on="0"/>
        <pt x="490" y="727" on="1"/>
        <pt x="490" y="740" on="0"/>
        <pt x="488" y="776" on="0"/>
        <pt x="486" y="786" on="1"/>
      </contour>
      <contour>
        <pt x="195" y="680" on="1"/>
        <pt x="218" y="676" on="0"/>
        <pt x="284" y="668" on="0"/>
        <pt x="355" y="661" on="0"/>
        <pt x="421" y="658" on="0"/>
        <pt x="445" y="658" on="1"/>
        <pt x="539" y="658" on="0"/>
        <pt x="733" y="673" on="0"/>
        <pt x="829" y="688" on="1"/>
        <pt x="829" y="615" on="1"/>
        <pt x="774" y="609" on="0"/>
        <pt x="646" y="597" on="0"/>
        <pt x="512" y="589" on="0"/>
        <pt x="446" y="589" on="1"/>
        <pt x="413" y="589" on="0"/>
        <pt x="318" y="595" on="0"/>
        <pt x="227" y="603" on="0"/>
        <pt x="196" y="607" on="1"/>
      </contour>
      <contour>
        <pt x="190" y="472" on="1"/>
        <pt x="217" y="468" on="0"/>
        <pt x="281" y="461" on="0"/>
        <pt x="349" y="457" on="0"/>
        <pt x="412" y="454" on="0"/>
        <pt x="436" y="454" on="1"/>
        <pt x="508" y="454" on="0"/>
        <pt x="642" y="460" on="0"/>
        <pt x="773" y="473" on="0"/>
        <pt x="836" y="482" on="1"/>
        <pt x="836" y="408" on="1"/>
        <pt x="786" y="401" on="0"/>
        <pt x="689" y="392" on="0"/>
        <pt x="592" y="386" on="0"/>
        <pt x="491" y="383" on="0"/>
        <pt x="436" y="383" on="1"/>
        <pt x="402" y="383" on="0"/>
        <pt x="315" y="387" on="0"/>
        <pt x="226" y="393" on="0"/>
        <pt x="191" y="397" on="1"/>
      </contour>
    </TTGlyph>
    <TTGlyph name="glyph02448" xMin="81" yMin="-52" xMax="941" yMax="744">
      <contour>
        <pt x="229" y="728" on="1"/>
        <pt x="247" y="726" on="0"/>
        <pt x="288" y="724" on="0"/>
        <pt x="302" y="724" on="1"/>
        <pt x="322" y="724" on="0"/>
        <pt x="384" y="727" on="0"/>
        <pt x="451" y="730" on="0"/>
        <pt x="508" y="734" on="0"/>
        <pt x="524" y="735" on="1"/>
        <pt x="538" y="736" on="0"/>
        <pt x="563" y="741" on="0"/>
        <pt x="573" y="744" on="1"/>
        <pt x="623" y="704" on="1"/>
        <pt x="616" y="697" on="0"/>
        <pt x="603" y="681" on="0"/>
        <pt x="597" y="672" on="1"/>
        <pt x="581" y="646" on="0"/>
        <pt x="538" y="554" on="0"/>
        <pt x="489" y="445" on="0"/>
        <pt x="466" y="394" on="1"/>
        <pt x="451" y="362" on="0"/>
        <pt x="418" y="283" on="0"/>
        <pt x="382" y="204" on="0"/>
        <pt x="348" y="136" on="0"/>
        <pt x="332" y="113" on="1"/>
        <pt x="307" y="75" on="0"/>
        <pt x="246" y="44" on="0"/>
        <pt x="208" y="44" on="1"/>
        <pt x="153" y="44" on="0"/>
        <pt x="81" y="118" on="0"/>
        <pt x="81" y="179" on="1"/>
        <pt x="81" y="234" on="0"/>
        <pt x="130" y="329" on="0"/>
        <pt x="220" y="400" on="0"/>
        <pt x="345" y="440" on="0"/>
        <pt x="419" y="440" on="1"/>
        <pt x="502" y="440" on="0"/>
        <pt x="655" y="402" on="0"/>
        <pt x="791" y="342" on="0"/>
        <pt x="901" y="275" on="0"/>
        <pt x="941" y="247" on="1"/>
        <pt x="903" y="162" on="1"/>
        <pt x="860" y="199" on="0"/>
        <pt x="752" y="273" on="0"/>
        <pt x="624" y="334" on="0"/>
        <pt x="483" y="370" on="0"/>
        <pt x="407" y="370" on="1"/>
        <pt x="327" y="370" on="0"/>
        <pt x="212" y="317" on="0"/>
        <pt x="152" y="235" on="0"/>
        <pt x="152" y="189" on="1"/>
        <pt x="152" y="156" on="0"/>
        <pt x="188" y="123" on="0"/>
        <pt x="211" y="123" on="1"/>
        <pt x="228" y="123" on="0"/>
        <pt x="254" y="138" on="0"/>
        <pt x="269" y="157" on="1"/>
        <pt x="290" y="184" on="0"/>
        <pt x="332" y="269" on="0"/>
        <pt x="373" y="365" on="0"/>
        <pt x="391" y="406" on="1"/>
        <pt x="411" y="449" on="0"/>
        <pt x="452" y="541" on="0"/>
        <pt x="491" y="627" on="0"/>
        <pt x="507" y="662" on="1"/>
        <pt x="492" y="661" on="0"/>
        <pt x="439" y="659" on="0"/>
        <pt x="378" y="656" on="0"/>
        <pt x="322" y="653" on="0"/>
        <pt x="305" y="652" on="1"/>
        <pt x="290" y="651" on="0"/>
        <pt x="250" y="648" on="0"/>
        <pt x="233" y="646" on="1"/>
      </contour>
      <contour>
        <pt x="842" y="512" on="1"/>
        <pt x="837" y="408" on="0"/>
        <pt x="806" y="237" on="0"/>
        <pt x="741" y="99" on="0"/>
        <pt x="629" y="-9" on="0"/>
        <pt x="543" y="-52" on="1"/>
        <pt x="478" y="3" on="1"/>
        <pt x="564" y="40" on="0"/>
        <pt x="672" y="140" on="0"/>
        <pt x="731" y="257" on="0"/>
        <pt x="757" y="376" on="0"/>
        <pt x="761" y="430" on="1"/>
        <pt x="762" y="453" on="0"/>
        <pt x="763" y="500" on="0"/>
        <pt x="761" y="521" on="1"/>
      </contour>
    </TTGlyph>
    <TTGlyph name="glyph02450" xMin="93" yMin="-35" xMax="898" yMax="775">
      <contour>
        <pt x="667" y="767" on="1"/>
        <pt x="664" y="756" on="0"/>
        <pt x="658" y="727" on="0"/>
        <pt x="652" y="700" on="0"/>
        <pt x="650" y="690" on="1"/>
        <pt x="637" y="629" on="0"/>
        <pt x="598" y="497" on="0"/>
        <pt x="551" y="368" on="0"/>
        <pt x="496" y="256" on="0"/>
        <pt x="467" y="215" on="1"/>
        <pt x="429" y="164" on="0"/>
        <pt x="354" y="83" on="0"/>
        <pt x="276" y="37" on="0"/>
        <pt x="230" y="37" on="1"/>
        <pt x="194" y="37" on="0"/>
        <pt x="131" y="78" on="0"/>
        <pt x="93" y="158" on="0"/>
        <pt x="93" y="214" on="1"/>
        <pt x="93" y="276" on="0"/>
        <pt x="140" y="399" on="0"/>
        <pt x="221" y="504" on="0"/>
        <pt x="273" y="539" on="1"/>
        <pt x="346" y="588" on="0"/>
        <pt x="492" y="630" on="0"/>
        <pt x="567" y="630" on="1"/>
        <pt x="663" y="630" on="0"/>
        <pt x="813" y="549" on="0"/>
        <pt x="898" y="404" on="0"/>
        <pt x="898" y="308" on="1"/>
        <pt x="898" y="211" on="0"/>
        <pt x="811" y="67" on="0"/>
        <pt x="653" y="-20" on="0"/>
        <pt x="548" y="-35" on="1"/>
        <pt x="502" y="36" on="1"/>
        <pt x="579" y="43" on="0"/>
        <pt x="697" y="88" on="0"/>
        <pt x="778" y="160" on="0"/>
        <pt x="820" y="255" on="0"/>
        <pt x="820" y="311" on="1"/>
        <pt x="820" y="384" on="0"/>
        <pt x="754" y="497" on="0"/>
        <pt x="638" y="561" on="0"/>
        <pt x="559" y="561" on="1"/>
        <pt x="487" y="561" on="0"/>
        <pt x="359" y="516" on="0"/>
        <pt x="302" y="473" on="1"/>
        <pt x="260" y="443" on="0"/>
        <pt x="199" y="358" on="0"/>
        <pt x="165" y="264" on="0"/>
        <pt x="165" y="220" on="1"/>
        <pt x="165" y="171" on="0"/>
        <pt x="205" y="116" on="0"/>
        <pt x="238" y="116" on="1"/>
        <pt x="262" y="116" on="0"/>
        <pt x="310" y="144" on="0"/>
        <pt x="358" y="191" on="0"/>
        <pt x="401" y="248" on="0"/>
        <pt x="419" y="278" on="1"/>
        <pt x="443" y="316" on="0"/>
        <pt x="491" y="417" on="0"/>
        <pt x="533" y="531" on="0"/>
        <pt x="565" y="648" on="0"/>
        <pt x="574" y="700" on="1"/>
        <pt x="577" y="715" on="0"/>
        <pt x="580" y="758" on="0"/>
        <pt x="580" y="775" on="1"/>
      </contour>
      <contour>
        <pt x="265" y="723" on="1"/>
        <pt x="269" y="703" on="0"/>
        <pt x="280" y="658" on="0"/>
        <pt x="285" y="636" on="1"/>
        <pt x="295" y="601" on="0"/>
        <pt x="323" y="514" on="0"/>
        <pt x="357" y="425" on="0"/>
        <pt x="391" y="347" on="0"/>
        <pt x="407" y="321" on="1"/>
        <pt x="433" y="279" on="0"/>
        <pt x="498" y="188" on="0"/>
        <pt x="533" y="154" on="1"/>
        <pt x="470" y="103" on="1"/>
        <pt x="441" y="136" on="0"/>
        <pt x="386" y="211" on="0"/>
        <pt x="358" y="259" on="1"/>
        <pt x="340" y="287" on="0"/>
        <pt x="301" y="368" on="0"/>
        <pt x="264" y="463" on="0"/>
        <pt x="229" y="562" on="0"/>
        <pt x="215" y="608" on="1"/>
        <pt x="208" y="632" on="0"/>
        <pt x="192" y="678" on="0"/>
        <pt x="183" y="697" on="1"/>
      </contour>
    </TTGlyph>
    <TTGlyph name="glyph02451" xMin="101" yMin="-38" xMax="864" yMax="783">
      <contour>
        <pt x="444" y="778" on="1"/>
        <pt x="440" y="758" on="0"/>
        <pt x="434" y="726" on="0"/>
        <pt x="432" y="709" on="1"/>
        <pt x="428" y="682" on="0"/>
        <pt x="417" y="600" on="0"/>
        <pt x="404" y="501" on="0"/>
        <pt x="392" y="398" on="0"/>
        <pt x="381" y="300" on="0"/>
        <pt x="374" y="219" on="0"/>
        <pt x="374" y="192" on="1"/>
        <pt x="374" y="121" on="0"/>
        <pt x="455" y="40" on="0"/>
        <pt x="539" y="40" on="1"/>
        <pt x="614" y="40" on="0"/>
        <pt x="723" y="81" on="0"/>
        <pt x="782" y="155" on="0"/>
        <pt x="782" y="206" on="1"/>
        <pt x="782" y="255" on="0"/>
        <pt x="730" y="360" on="0"/>
        <pt x="675" y="405" on="1"/>
        <pt x="763" y="423" on="1"/>
        <pt x="813" y="368" on="0"/>
        <pt x="864" y="260" on="0"/>
        <pt x="864" y="197" on="1"/>
        <pt x="864" y="123" on="0"/>
        <pt x="782" y="18" on="0"/>
        <pt x="636" y="-38" on="0"/>
        <pt x="539" y="-38" on="1"/>
        <pt x="473" y="-38" on="0"/>
        <pt x="363" y="4" on="0"/>
        <pt x="298" y="101" on="0"/>
        <pt x="298" y="181" on="1"/>
        <pt x="298" y="212" on="0"/>
        <pt x="307" y="314" on="0"/>
        <pt x="322" y="435" on="0"/>
        <pt x="338" y="561" on="0"/>
        <pt x="351" y="673" on="0"/>
        <pt x="354" y="714" on="1"/>
        <pt x="356" y="739" on="0"/>
        <pt x="357" y="770" on="0"/>
        <pt x="355" y="783" on="1"/>
      </contour>
      <contour>
        <pt x="130" y="648" on="1"/>
        <pt x="171" y="635" on="0"/>
        <pt x="271" y="618" on="0"/>
        <pt x="373" y="609" on="0"/>
        <pt x="416" y="609" on="1"/>
        <pt x="473" y="609" on="0"/>
        <pt x="574" y="616" on="0"/>
        <pt x="616" y="621" on="1"/>
        <pt x="614" y="547" on="1"/>
        <pt x="568" y="543" on="0"/>
        <pt x="475" y="537" on="0"/>
        <pt x="415" y="537" on="1"/>
        <pt x="372" y="537" on="0"/>
        <pt x="270" y="547" on="0"/>
        <pt x="168" y="565" on="0"/>
        <pt x="125" y="576" on="1"/>
      </contour>
      <contour>
        <pt x="105" y="405" on="1"/>
        <pt x="153" y="388" on="0"/>
        <pt x="257" y="370" on="0"/>
        <pt x="360" y="362" on="0"/>
        <pt x="405" y="362" on="1"/>
        <pt x="456" y="362" on="0"/>
        <pt x="558" y="367" on="0"/>
        <pt x="609" y="374" on="1"/>
        <pt x="608" y="298" on="1"/>
        <pt x="559" y="293" on="0"/>
        <pt x="466" y="289" on="0"/>
        <pt x="416" y="289" on="1"/>
        <pt x="336" y="289" on="0"/>
        <pt x="169" y="308" on="0"/>
        <pt x="101" y="328" on="1"/>
      </contour>
    </TTGlyph>
    <TTGlyph name="glyph02453" xMin="68" yMin="-44" xMax="905" yMax="799">
      <contour>
        <pt x="553" y="629" on="1"/>
        <pt x="534" y="648" on="0"/>
        <pt x="483" y="696" on="0"/>
        <pt x="430" y="742" on="0"/>
        <pt x="409" y="758" on="1"/>
        <pt x="466" y="799" on="1"/>
        <pt x="482" y="787" on="0"/>
        <pt x="536" y="743" on="0"/>
        <pt x="591" y="694" on="0"/>
        <pt x="609" y="675" on="1"/>
      </contour>
      <contour>
        <pt x="242" y="715" on="1"/>
        <pt x="247" y="707" on="0"/>
        <pt x="259" y="683" on="0"/>
        <pt x="273" y="658" on="0"/>
        <pt x="278" y="649" on="1"/>
        <pt x="306" y="597" on="0"/>
        <pt x="372" y="458" on="0"/>
        <pt x="402" y="391" on="1"/>
        <pt x="422" y="346" on="0"/>
        <pt x="465" y="236" on="0"/>
        <pt x="505" y="123" on="0"/>
        <pt x="538" y="20" on="0"/>
        <pt x="551" y="-21" on="1"/>
        <pt x="465" y="-44" on="1"/>
        <pt x="450" y="14" on="0"/>
        <pt x="409" y="152" on="0"/>
        <pt x="360" y="294" on="0"/>
        <pt x="331" y="358" on="1"/>
        <pt x="297" y="436" on="0"/>
        <pt x="234" y="570" on="0"/>
        <pt x="208" y="612" on="1"/>
        <pt x="200" y="627" on="0"/>
        <pt x="173" y="668" on="0"/>
        <pt x="161" y="682" on="1"/>
      </contour>
      <contour>
        <pt x="68" y="429" on="1"/>
        <pt x="89" y="434" on="0"/>
        <pt x="135" y="450" on="0"/>
        <pt x="149" y="455" on="1"/>
        <pt x="190" y="471" on="0"/>
        <pt x="292" y="518" on="0"/>
        <pt x="406" y="569" on="0"/>
        <pt x="524" y="613" on="0"/>
        <pt x="637" y="641" on="0"/>
        <pt x="686" y="641" on="1"/>
        <pt x="754" y="641" on="0"/>
        <pt x="852" y="593" on="0"/>
        <pt x="905" y="510" on="0"/>
        <pt x="905" y="457" on="1"/>
        <pt x="905" y="401" on="0"/>
        <pt x="857" y="309" on="0"/>
        <pt x="757" y="257" on="0"/>
        <pt x="679" y="257" on="1"/>
        <pt x="638" y="257" on="0"/>
        <pt x="560" y="274" on="0"/>
        <pt x="532" y="284" on="1"/>
        <pt x="535" y="364" on="1"/>
        <pt x="563" y="350" on="0"/>
        <pt x="635" y="331" on="0"/>
        <pt x="674" y="331" on="1"/>
        <pt x="728" y="331" on="0"/>
        <pt x="794" y="366" on="0"/>
        <pt x="825" y="425" on="0"/>
        <pt x="825" y="460" on="1"/>
        <pt x="825" y="489" on="0"/>
        <pt x="795" y="540" on="0"/>
        <pt x="732" y="571" on="0"/>
        <pt x="684" y="571" on="1"/>
        <pt x="634" y="571" on="0"/>
        <pt x="511" y="536" on="0"/>
        <pt x="379" y="481" on="0"/>
        <pt x="252" y="419" on="0"/>
        <pt x="144" y="364" on="0"/>
        <pt x="106" y="348" on="1"/>
      </contour>
    </TTGlyph>
    <TTGlyph name="glyph02457" xMin="148" yMin="-38" xMax="863" yMax="778">
      <contour>
        <pt x="555" y="778" on="1"/>
        <pt x="554" y="767" on="0"/>
        <pt x="551" y="733" on="0"/>
        <pt x="548" y="696" on="0"/>
        <pt x="548" y="681" on="1"/>
        <pt x="547" y="648" on="0"/>
        <pt x="547" y="552" on="0"/>
        <pt x="547" y="501" on="1"/>
        <pt x="547" y="473" on="0"/>
        <pt x="550" y="395" on="0"/>
        <pt x="555" y="304" on="0"/>
        <pt x="558" y="215" on="0"/>
        <pt x="561" y="137" on="0"/>
        <pt x="561" y="112" on="1"/>
        <pt x="561" y="82" on="0"/>
        <pt x="542" y="28" on="0"/>
        <pt x="501" y="-13" on="0"/>
        <pt x="433" y="-38" on="0"/>
        <pt x="383" y="-38" on="1"/>
        <pt x="316" y="-38" on="0"/>
        <pt x="209" y="-7" on="0"/>
        <pt x="148" y="62" on="0"/>
        <pt x="148" y="118" on="1"/>
        <pt x="148" y="163" on="0"/>
        <pt x="201" y="236" on="0"/>
        <pt x="310" y="279" on="0"/>
        <pt x="395" y="279" on="1"/>
        <pt x="468" y="279" on="0"/>
        <pt x="604" y="246" on="0"/>
        <pt x="725" y="191" on="0"/>
        <pt x="826" y="124" on="0"/>
        <pt x="863" y="90" on="1"/>
        <pt x="816" y="15" on="1"/>
        <pt x="767" y="64" on="0"/>
        <pt x="631" y="153" on="0"/>
        <pt x="472" y="209" on="0"/>
        <pt x="386" y="209" on="1"/>
        <pt x="310" y="209" on="0"/>
        <pt x="227" y="162" on="0"/>
        <pt x="227" y="121" on="1"/>
        <pt x="227" y="80" on="0"/>
        <pt x="305" y="37" on="0"/>
        <pt x="376" y="37" on="1"/>
        <pt x="430" y="37" on="0"/>
        <pt x="484" y="88" on="0"/>
        <pt x="484" y="138" on="1"/>
        <pt x="484" y="160" on="0"/>
        <pt x="482" y="230" on="0"/>
        <pt x="478" y="314" on="0"/>
        <pt x="474" y="401" on="0"/>
        <pt x="472" y="481" on="0"/>
        <pt x="472" y="511" on="1"/>
        <pt x="472" y="537" on="0"/>
        <pt x="472" y="600" on="0"/>
        <pt x="471" y="660" on="0"/>
        <pt x="470" y="681" on="1"/>
        <pt x="470" y="698" on="0"/>
        <pt x="468" y="737" on="0"/>
        <pt x="465" y="769" on="0"/>
        <pt x="463" y="778" on="1"/>
      </contour>
      <contour>
        <pt x="505" y="581" on="1"/>
        <pt x="530" y="581" on="0"/>
        <pt x="610" y="583" on="0"/>
        <pt x="704" y="587" on="0"/>
        <pt x="798" y="595" on="0"/>
        <pt x="839" y="599" on="1"/>
        <pt x="841" y="525" on="1"/>
        <pt x="802" y="521" on="0"/>
        <pt x="707" y="514" on="0"/>
        <pt x="612" y="510" on="0"/>
        <pt x="532" y="508" on="0"/>
        <pt x="505" y="508" on="1"/>
      </contour>
    </TTGlyph>
    <TTGlyph name="glyph02458" xMin="184" yMin="-37" xMax="846" yMax="778">
      <contour>
        <pt x="339" y="778" on="1"/>
        <pt x="370" y="768" on="0"/>
        <pt x="471" y="745" on="0"/>
        <pt x="584" y="722" on="0"/>
        <pt x="685" y="706" on="0"/>
        <pt x="718" y="702" on="1"/>
        <pt x="699" y="626" on="1"/>
        <pt x="664" y="631" on="0"/>
        <pt x="559" y="650" on="0"/>
        <pt x="445" y="673" on="0"/>
        <pt x="346" y="695" on="0"/>
        <pt x="319" y="702" on="1"/>
      </contour>
      <contour>
        <pt x="318" y="599" on="1"/>
        <pt x="313" y="573" on="0"/>
        <pt x="302" y="500" on="0"/>
        <pt x="290" y="420" on="0"/>
        <pt x="280" y="347" on="0"/>
        <pt x="276" y="323" on="1"/>
        <pt x="347" y="386" on="0"/>
        <pt x="507" y="444" on="0"/>
        <pt x="595" y="444" on="1"/>
        <pt x="671" y="444" on="0"/>
        <pt x="784" y="389" on="0"/>
        <pt x="846" y="296" on="0"/>
        <pt x="846" y="238" on="1"/>
        <pt x="846" y="173" on="0"/>
        <pt x="786" y="66" on="0"/>
        <pt x="660" y="-8" on="0"/>
        <pt x="463" y="-37" on="0"/>
        <pt x="326" y="-26" on="1"/>
        <pt x="303" y="55" on="1"/>
        <pt x="457" y="36" on="0"/>
        <pt x="661" y="77" on="0"/>
        <pt x="763" y="174" on="0"/>
        <pt x="763" y="241" on="1"/>
        <pt x="763" y="279" on="0"/>
        <pt x="718" y="339" on="0"/>
        <pt x="640" y="374" on="0"/>
        <pt x="590" y="374" on="1"/>
        <pt x="494" y="374" on="0"/>
        <pt x="339" y="305" on="0"/>
        <pt x="287" y="243" on="1"/>
        <pt x="276" y="230" on="0"/>
        <pt x="262" y="206" on="0"/>
        <pt x="258" y="194" on="1"/>
        <pt x="184" y="212" on="1"/>
        <pt x="190" y="239" on="0"/>
        <pt x="202" y="316" on="0"/>
        <pt x="214" y="405" on="0"/>
        <pt x="224" y="497" on="0"/>
        <pt x="232" y="578" on="0"/>
        <pt x="234" y="609" on="1"/>
      </contour>
    </TTGlyph>
    <TTGlyph name="glyph02459" xMin="225" yMin="-41" xMax="795" yMax="785">
      <contour>
        <pt x="350" y="781" on="1"/>
        <pt x="343" y="754" on="0"/>
        <pt x="328" y="682" on="0"/>
        <pt x="316" y="605" on="0"/>
        <pt x="307" y="535" on="0"/>
        <pt x="305" y="509" on="1"/>
        <pt x="320" y="546" on="0"/>
        <pt x="371" y="625" on="0"/>
        <pt x="441" y="691" on="0"/>
        <pt x="524" y="732" on="0"/>
        <pt x="571" y="732" on="1"/>
        <pt x="636" y="732" on="0"/>
        <pt x="737" y="650" on="0"/>
        <pt x="795" y="498" on="0"/>
        <pt x="795" y="395" on="1"/>
        <pt x="795" y="293" on="0"/>
        <pt x="734" y="143" on="0"/>
        <pt x="623" y="39" on="0"/>
        <pt x="471" y="-25" on="0"/>
        <pt x="381" y="-41" on="1"/>
        <pt x="334" y="30" on="1"/>
        <pt x="414" y="42" on="0"/>
        <pt x="552" y="90" on="0"/>
        <pt x="655" y="173" on="0"/>
        <pt x="713" y="301" on="0"/>
        <pt x="713" y="394" on="1"/>
        <pt x="713" y="472" on="0"/>
        <pt x="678" y="592" on="0"/>
        <pt x="609" y="660" on="0"/>
        <pt x="558" y="660" on="1"/>
        <pt x="512" y="660" on="0"/>
        <pt x="427" y="601" on="0"/>
        <pt x="358" y="508" on="0"/>
        <pt x="315" y="402" on="0"/>
        <pt x="310" y="354" on="1"/>
        <pt x="307" y="325" on="0"/>
        <pt x="308" y="270" on="0"/>
        <pt x="312" y="233" on="1"/>
        <pt x="235" y="228" on="1"/>
        <pt x="232" y="255" on="0"/>
        <pt x="225" y="336" on="0"/>
        <pt x="225" y="383" on="1"/>
        <pt x="225" y="418" on="0"/>
        <pt x="231" y="503" on="0"/>
        <pt x="240" y="591" on="0"/>
        <pt x="251" y="670" on="0"/>
        <pt x="255" y="700" on="1"/>
        <pt x="258" y="723" on="0"/>
        <pt x="262" y="765" on="0"/>
        <pt x="263" y="785" on="1"/>
      </contour>
    </TTGlyph>
    <TTGlyph name="glyph02460" xMin="116" yMin="-36" xMax="848" yMax="748">
      <contour>
        <pt x="241" y="731" on="1"/>
        <pt x="258" y="729" on="0"/>
        <pt x="296" y="727" on="0"/>
        <pt x="310" y="727" on="1"/>
        <pt x="326" y="727" on="0"/>
        <pt x="393" y="729" on="0"/>
        <pt x="478" y="731" on="0"/>
        <pt x="564" y="735" on="0"/>
        <pt x="631" y="738" on="0"/>
        <pt x="647" y="739" on="1"/>
        <pt x="669" y="742" on="0"/>
        <pt x="692" y="745" on="0"/>
        <pt x="700" y="748" on="1"/>
        <pt x="745" y="689" on="1"/>
        <pt x="732" y="680" on="0"/>
        <pt x="704" y="661" on="0"/>
        <pt x="690" y="650" on="1"/>
        <pt x="672" y="636" on="0"/>
        <pt x="609" y="583" on="0"/>
        <pt x="534" y="521" on="0"/>
        <pt x="460" y="459" on="0"/>
        <pt x="432" y="435" on="1"/>
        <pt x="466" y="447" on="0"/>
        <pt x="535" y="457" on="0"/>
        <pt x="568" y="457" on="1"/>
        <pt x="650" y="457" on="0"/>
        <pt x="776" y="396" on="0"/>
        <pt x="848" y="292" on="0"/>
        <pt x="848" y="226" on="1"/>
        <pt x="848" y="147" on="0"/>
        <pt x="766" y="28" on="0"/>
        <pt x="614" y="-36" on="0"/>
        <pt x="510" y="-36" on="1"/>
        <pt x="443" y="-36" on="0"/>
        <pt x="347" y="0" on="0"/>
        <pt x="295" y="64" on="0"/>
        <pt x="295" y="104" on="1"/>
        <pt x="295" y="138" on="0"/>
        <pt x="333" y="196" on="0"/>
        <pt x="400" y="232" on="0"/>
        <pt x="446" y="232" on="1"/>
        <pt x="511" y="232" on="0"/>
        <pt x="599" y="178" on="0"/>
        <pt x="647" y="91" on="0"/>
        <pt x="650" y="41" on="1"/>
        <pt x="577" y="29" on="1"/>
        <pt x="573" y="92" on="0"/>
        <pt x="504" y="172" on="0"/>
        <pt x="446" y="172" on="1"/>
        <pt x="412" y="172" on="0"/>
        <pt x="367" y="136" on="0"/>
        <pt x="367" y="111" on="1"/>
        <pt x="367" y="75" on="0"/>
        <pt x="440" y="35" on="0"/>
        <pt x="498" y="35" on="1"/>
        <pt x="581" y="35" on="0"/>
        <pt x="703" y="79" on="0"/>
        <pt x="769" y="165" on="0"/>
        <pt x="769" y="226" on="1"/>
        <pt x="769" y="274" on="0"/>
        <pt x="712" y="350" on="0"/>
        <pt x="613" y="394" on="0"/>
        <pt x="548" y="394" on="1"/>
        <pt x="487" y="394" on="0"/>
        <pt x="390" y="369" on="0"/>
        <pt x="304" y="319" on="0"/>
        <pt x="220" y="246" on="0"/>
        <pt x="174" y="199" on="1"/>
        <pt x="116" y="257" on="1"/>
        <pt x="147" y="282" on="0"/>
        <pt x="220" y="343" on="0"/>
        <pt x="294" y="404" on="0"/>
        <pt x="358" y="458" on="0"/>
        <pt x="379" y="476" on="1"/>
        <pt x="400" y="493" on="0"/>
        <pt x="461" y="544" on="0"/>
        <pt x="528" y="600" on="0"/>
        <pt x="587" y="651" on="0"/>
        <pt x="606" y="667" on="1"/>
        <pt x="590" y="667" on="0"/>
        <pt x="530" y="664" on="0"/>
        <pt x="457" y="660" on="0"/>
        <pt x="384" y="657" on="0"/>
        <pt x="324" y="654" on="0"/>
        <pt x="309" y="654" on="1"/>
        <pt x="292" y="653" on="0"/>
        <pt x="260" y="650" on="0"/>
        <pt x="243" y="648" on="1"/>
      </contour>
    </TTGlyph>
    <TTGlyph name="glyph02461" xMin="62" yMin="-29" xMax="965" yMax="787">
      <contour>
        <pt x="965" y="83" on="1"/>
        <pt x="926" y="44" on="0"/>
        <pt x="835" y="1" on="0"/>
        <pt x="785" y="1" on="1"/>
        <pt x="736" y="1" on="0"/>
        <pt x="675" y="65" on="0"/>
        <pt x="675" y="125" on="1"/>
        <pt x="675" y="166" on="0"/>
        <pt x="686" y="263" on="0"/>
        <pt x="701" y="363" on="0"/>
        <pt x="712" y="455" on="0"/>
        <pt x="712" y="490" on="1"/>
        <pt x="712" y="533" on="0"/>
        <pt x="671" y="571" on="0"/>
        <pt x="634" y="571" on="1"/>
        <pt x="599" y="571" on="0"/>
        <pt x="514" y="531" on="0"/>
        <pt x="426" y="463" on="0"/>
        <pt x="341" y="380" on="0"/>
        <pt x="307" y="338" on="1"/>
        <pt x="308" y="436" on="1"/>
        <pt x="327" y="456" on="0"/>
        <pt x="385" y="510" on="0"/>
        <pt x="457" y="566" on="0"/>
        <pt x="537" y="614" on="0"/>
        <pt x="617" y="645" on="0"/>
        <pt x="653" y="645" on="1"/>
        <pt x="721" y="645" on="0"/>
        <pt x="790" y="573" on="0"/>
        <pt x="790" y="512" on="1"/>
        <pt x="790" y="475" on="0"/>
        <pt x="779" y="380" on="0"/>
        <pt x="764" y="279" on="0"/>
        <pt x="753" y="184" on="0"/>
        <pt x="753" y="146" on="1"/>
        <pt x="753" y="122" on="0"/>
        <pt x="778" y="87" on="0"/>
        <pt x="804" y="87" on="1"/>
        <pt x="875" y="87" on="0"/>
        <pt x="952" y="168" on="1"/>
      </contour>
      <contour>
        <pt x="306" y="551" on="1"/>
        <pt x="294" y="550" on="0"/>
        <pt x="246" y="543" on="0"/>
        <pt x="185" y="536" on="0"/>
        <pt x="122" y="527" on="0"/>
        <pt x="94" y="523" on="1"/>
        <pt x="87" y="604" on="1"/>
        <pt x="103" y="603" on="0"/>
        <pt x="133" y="604" on="0"/>
        <pt x="151" y="605" on="1"/>
        <pt x="171" y="606" on="0"/>
        <pt x="230" y="612" on="0"/>
        <pt x="297" y="621" on="0"/>
        <pt x="354" y="632" on="0"/>
        <pt x="371" y="638" on="1"/>
        <pt x="399" y="604" on="1"/>
        <pt x="391" y="592" on="0"/>
        <pt x="369" y="557" on="0"/>
        <pt x="348" y="523" on="0"/>
        <pt x="340" y="509" on="1"/>
        <pt x="310" y="374" on="1"/>
        <pt x="292" y="348" on="0"/>
        <pt x="245" y="277" on="0"/>
        <pt x="189" y="197" on="0"/>
        <pt x="135" y="119" on="0"/>
        <pt x="112" y="87" on="1"/>
        <pt x="62" y="155" on="1"/>
        <pt x="80" y="178" on="0"/>
        <pt x="131" y="244" on="0"/>
        <pt x="187" y="320" on="0"/>
        <pt x="240" y="393" on="0"/>
        <pt x="283" y="456" on="0"/>
        <pt x="294" y="476" on="1"/>
        <pt x="298" y="526" on="1"/>
      </contour>
      <contour>
        <pt x="296" y="714" on="1"/>
        <pt x="296" y="731" on="0"/>
        <pt x="295" y="769" on="0"/>
        <pt x="292" y="787" on="1"/>
        <pt x="385" y="784" on="1"/>
        <pt x="381" y="764" on="0"/>
        <pt x="370" y="681" on="0"/>
        <pt x="359" y="568" on="0"/>
        <pt x="349" y="442" on="0"/>
        <pt x="342" y="320" on="0"/>
        <pt x="342" y="268" on="1"/>
        <pt x="342" y="224" on="0"/>
        <pt x="343" y="148" on="0"/>
        <pt x="344" y="75" on="0"/>
        <pt x="346" y="31" on="1"/>
        <pt x="347" y="18" on="0"/>
        <pt x="350" y="-15" on="0"/>
        <pt x="351" y="-29" on="1"/>
        <pt x="265" y="-29" on="1"/>
        <pt x="266" y="-15" on="0"/>
        <pt x="267" y="17" on="0"/>
        <pt x="267" y="29" on="1"/>
        <pt x="268" y="77" on="0"/>
        <pt x="269" y="149" on="0"/>
        <pt x="270" y="227" on="0"/>
        <pt x="271" y="281" on="1"/>
        <pt x="271" y="303" on="0"/>
        <pt x="275" y="377" on="0"/>
        <pt x="281" y="469" on="0"/>
        <pt x="287" y="563" on="0"/>
        <pt x="292" y="647" on="0"/>
        <pt x="296" y="705" on="0"/>
      </contour>
    </TTGlyph>
    <TTGlyph name="glyph02463" xMin="63" yMin="-29" xMax="922" yMax="787">
      <contour>
        <pt x="528" y="79" on="1"/>
        <pt x="590" y="89" on="0"/>
        <pt x="703" y="128" on="0"/>
        <pt x="790" y="193" on="0"/>
        <pt x="841" y="286" on="0"/>
        <pt x="840" y="349" on="1"/>
        <pt x="840" y="378" on="0"/>
        <pt x="818" y="438" on="0"/>
        <pt x="771" y="491" on="0"/>
        <pt x="700" y="523" on="0"/>
        <pt x="652" y="523" on="1"/>
        <pt x="558" y="523" on="0"/>
        <pt x="389" y="429" on="0"/>
        <pt x="317" y="355" on="1"/>
        <pt x="318" y="443" on="1"/>
        <pt x="406" y="527" on="0"/>
        <pt x="586" y="595" on="0"/>
        <pt x="664" y="595" on="1"/>
        <pt x="732" y="595" on="0"/>
        <pt x="849" y="535" on="0"/>
        <pt x="921" y="424" on="0"/>
        <pt x="921" y="347" on="1"/>
        <pt x="922" y="274" on="0"/>
        <pt x="870" y="159" on="0"/>
        <pt x="775" y="76" on="0"/>
        <pt x="644" y="20" on="0"/>
        <pt x="563" y="5" on="1"/>
      </contour>
      <contour>
        <pt x="306" y="551" on="1"/>
        <pt x="294" y="550" on="0"/>
        <pt x="247" y="543" on="0"/>
        <pt x="186" y="536" on="0"/>
        <pt x="122" y="527" on="0"/>
        <pt x="95" y="523" on="1"/>
        <pt x="87" y="604" on="1"/>
        <pt x="103" y="603" on="0"/>
        <pt x="133" y="604" on="0"/>
        <pt x="151" y="605" on="1"/>
        <pt x="171" y="606" on="0"/>
        <pt x="230" y="612" on="0"/>
        <pt x="297" y="621" on="0"/>
        <pt x="354" y="632" on="0"/>
        <pt x="371" y="638" on="1"/>
        <pt x="399" y="604" on="1"/>
        <pt x="391" y="592" on="0"/>
        <pt x="369" y="557" on="0"/>
        <pt x="349" y="523" on="0"/>
        <pt x="340" y="509" on="1"/>
        <pt x="310" y="375" on="1"/>
        <pt x="293" y="349" on="0"/>
        <pt x="245" y="277" on="0"/>
        <pt x="190" y="197" on="0"/>
        <pt x="135" y="119" on="0"/>
        <pt x="112" y="87" on="1"/>
        <pt x="63" y="155" on="1"/>
        <pt x="81" y="178" on="0"/>
        <pt x="132" y="244" on="0"/>
        <pt x="187" y="320" on="0"/>
        <pt x="240" y="393" on="0"/>
        <pt x="283" y="456" on="0"/>
        <pt x="294" y="476" on="1"/>
        <pt x="298" y="526" on="1"/>
      </contour>
      <contour>
        <pt x="296" y="714" on="1"/>
        <pt x="296" y="731" on="0"/>
        <pt x="296" y="769" on="0"/>
        <pt x="293" y="787" on="1"/>
        <pt x="386" y="784" on="1"/>
        <pt x="382" y="764" on="0"/>
        <pt x="371" y="681" on="0"/>
        <pt x="359" y="568" on="0"/>
        <pt x="349" y="442" on="0"/>
        <pt x="342" y="320" on="0"/>
        <pt x="342" y="268" on="1"/>
        <pt x="342" y="224" on="0"/>
        <pt x="343" y="148" on="0"/>
        <pt x="344" y="75" on="0"/>
        <pt x="346" y="31" on="1"/>
        <pt x="347" y="18" on="0"/>
        <pt x="350" y="-15" on="0"/>
        <pt x="351" y="-29" on="1"/>
        <pt x="265" y="-29" on="1"/>
        <pt x="266" y="-18" on="0"/>
        <pt x="267" y="17" on="0"/>
        <pt x="267" y="29" on="1"/>
        <pt x="268" y="77" on="0"/>
        <pt x="269" y="149" on="0"/>
        <pt x="270" y="227" on="0"/>
        <pt x="271" y="281" on="1"/>
        <pt x="271" y="303" on="0"/>
        <pt x="275" y="377" on="0"/>
        <pt x="281" y="469" on="0"/>
        <pt x="287" y="563" on="0"/>
        <pt x="292" y="647" on="0"/>
        <pt x="296" y="705" on="0"/>
      </contour>
    </TTGlyph>
    <TTGlyph name="glyph02464" xMin="112" yMin="-36" xMax="885" yMax="790">
      <contour>
        <pt x="473" y="783" on="1"/>
        <pt x="467" y="754" on="0"/>
        <pt x="447" y="675" on="0"/>
        <pt x="428" y="625" on="1"/>
        <pt x="410" y="581" on="0"/>
        <pt x="357" y="486" on="0"/>
        <pt x="327" y="448" on="1"/>
        <pt x="356" y="465" on="0"/>
        <pt x="432" y="484" on="0"/>
        <pt x="463" y="484" on="1"/>
        <pt x="520" y="484" on="0"/>
        <pt x="599" y="420" on="0"/>
        <pt x="599" y="360" on="1"/>
        <pt x="599" y="341" on="0"/>
        <pt x="599" y="284" on="0"/>
        <pt x="600" y="219" on="0"/>
        <pt x="602" y="159" on="0"/>
        <pt x="602" y="136" on="1"/>
        <pt x="526" y="136" on="1"/>
        <pt x="527" y="156" on="0"/>
        <pt x="529" y="209" on="0"/>
        <pt x="530" y="267" on="0"/>
        <pt x="530" y="320" on="0"/>
        <pt x="530" y="339" on="1"/>
        <pt x="530" y="368" on="0"/>
        <pt x="505" y="405" on="0"/>
        <pt x="464" y="423" on="0"/>
        <pt x="438" y="423" on="1"/>
        <pt x="392" y="423" on="0"/>
        <pt x="303" y="382" on="0"/>
        <pt x="270" y="351" on="1"/>
        <pt x="249" y="331" on="0"/>
        <pt x="206" y="279" on="0"/>
        <pt x="181" y="248" on="1"/>
        <pt x="112" y="298" on="1"/>
        <pt x="183" y="366" on="0"/>
        <pt x="278" y="486" on="0"/>
        <pt x="336" y="589" on="0"/>
        <pt x="353" y="631" on="1"/>
        <pt x="369" y="671" on="0"/>
        <pt x="389" y="755" on="0"/>
        <pt x="391" y="790" on="1"/>
      </contour>
      <contour>
        <pt x="136" y="678" on="1"/>
        <pt x="175" y="673" on="0"/>
        <pt x="268" y="667" on="0"/>
        <pt x="302" y="667" on="1"/>
        <pt x="368" y="667" on="0"/>
        <pt x="519" y="674" on="0"/>
        <pt x="673" y="689" on="0"/>
        <pt x="742" y="700" on="1"/>
        <pt x="741" y="627" on="1"/>
        <pt x="690" y="619" on="0"/>
        <pt x="574" y="608" on="0"/>
        <pt x="456" y="601" on="0"/>
        <pt x="344" y="598" on="0"/>
        <pt x="297" y="598" on="1"/>
        <pt x="276" y="598" on="0"/>
        <pt x="222" y="599" on="0"/>
        <pt x="163" y="602" on="0"/>
        <pt x="136" y="603" on="1"/>
      </contour>
      <contour>
        <pt x="885" y="439" on="1"/>
        <pt x="866" y="434" on="0"/>
        <pt x="818" y="416" on="0"/>
        <pt x="798" y="408" on="1"/>
        <pt x="747" y="388" on="0"/>
        <pt x="612" y="331" on="0"/>
        <pt x="541" y="294" on="1"/>
        <pt x="492" y="269" on="0"/>
        <pt x="417" y="217" on="0"/>
        <pt x="375" y="158" on="0"/>
        <pt x="375" y="124" on="1"/>
        <pt x="375" y="87" on="0"/>
        <pt x="421" y="49" on="0"/>
        <pt x="501" y="36" on="0"/>
        <pt x="552" y="36" on="1"/>
        <pt x="609" y="36" on="0"/>
        <pt x="756" y="49" on="0"/>
        <pt x="820" y="60" on="1"/>
        <pt x="817" y="-19" on="1"/>
        <pt x="780" y="-24" on="0"/>
        <pt x="687" y="-32" on="0"/>
        <pt x="592" y="-36" on="0"/>
        <pt x="549" y="-36" on="1"/>
        <pt x="478" y="-36" on="0"/>
        <pt x="363" y="-11" on="0"/>
        <pt x="296" y="54" on="0"/>
        <pt x="296" y="113" on="1"/>
        <pt x="296" y="158" on="0"/>
        <pt x="337" y="232" on="0"/>
        <pt x="406" y="293" on="0"/>
        <pt x="491" y="344" on="0"/>
        <pt x="534" y="367" on="1"/>
        <pt x="581" y="391" on="0"/>
        <pt x="664" y="429" on="0"/>
        <pt x="739" y="461" on="0"/>
        <pt x="771" y="476" on="1"/>
        <pt x="794" y="486" on="0"/>
        <pt x="832" y="504" on="0"/>
        <pt x="852" y="514" on="1"/>
      </contour>
    </TTGlyph>
    <TTGlyph name="glyph02465" xMin="83" yMin="-24" xMax="940" yMax="775">
      <contour>
        <pt x="547" y="740" on="1"/>
        <pt x="541" y="732" on="0"/>
        <pt x="524" y="706" on="0"/>
        <pt x="516" y="692" on="1"/>
        <pt x="499" y="667" on="0"/>
        <pt x="453" y="586" on="0"/>
        <pt x="400" y="493" on="0"/>
        <pt x="350" y="403" on="0"/>
        <pt x="331" y="367" on="1"/>
        <pt x="366" y="399" on="0"/>
        <pt x="441" y="427" on="0"/>
        <pt x="476" y="427" on="1"/>
        <pt x="526" y="427" on="0"/>
        <pt x="590" y="366" on="0"/>
        <pt x="592" y="308" on="1"/>
        <pt x="593" y="279" on="0"/>
        <pt x="594" y="213" on="0"/>
        <pt x="594" y="151" on="0"/>
        <pt x="596" y="127" on="1"/>
        <pt x="598" y="91" on="0"/>
        <pt x="643" y="58" on="0"/>
        <pt x="674" y="58" on="1"/>
        <pt x="715" y="58" on="0"/>
        <pt x="781" y="103" on="0"/>
        <pt x="829" y="174" on="0"/>
        <pt x="863" y="258" on="0"/>
        <pt x="872" y="297" on="1"/>
        <pt x="940" y="244" on="1"/>
        <pt x="914" y="165" on="0"/>
        <pt x="839" y="44" on="0"/>
        <pt x="734" y="-24" on="0"/>
        <pt x="662" y="-24" on="1"/>
        <pt x="610" y="-24" on="0"/>
        <pt x="549" y="14" on="0"/>
        <pt x="522" y="72" on="0"/>
        <pt x="520" y="100" on="1"/>
        <pt x="519" y="129" on="0"/>
        <pt x="518" y="195" on="0"/>
        <pt x="518" y="260" on="0"/>
        <pt x="516" y="287" on="1"/>
        <pt x="514" y="319" on="0"/>
        <pt x="477" y="355" on="0"/>
        <pt x="444" y="355" on="1"/>
        <pt x="405" y="355" on="0"/>
        <pt x="332" y="309" on="0"/>
        <pt x="273" y="237" on="0"/>
        <pt x="254" y="198" on="1"/>
        <pt x="242" y="176" on="0"/>
        <pt x="217" y="115" on="0"/>
        <pt x="193" y="51" on="0"/>
        <pt x="174" y="-6" on="0"/>
        <pt x="169" y="-24" on="1"/>
        <pt x="83" y="4" on="1"/>
        <pt x="101" y="54" on="0"/>
        <pt x="158" y="181" on="0"/>
        <pt x="226" y="321" on="0"/>
        <pt x="296" y="460" on="0"/>
        <pt x="360" y="583" on="0"/>
        <pt x="410" y="675" on="0"/>
        <pt x="423" y="699" on="1"/>
        <pt x="432" y="717" on="0"/>
        <pt x="451" y="754" on="0"/>
        <pt x="459" y="775" on="1"/>
      </contour>
    </TTGlyph>
    <TTGlyph name="glyph02468" xMin="140" yMin="-26" xMax="924" yMax="715">
      <contour>
        <pt x="924" y="666" on="1"/>
        <pt x="918" y="659" on="0"/>
        <pt x="902" y="640" on="0"/>
        <pt x="897" y="632" on="1"/>
        <pt x="878" y="599" on="0"/>
        <pt x="806" y="502" on="0"/>
        <pt x="711" y="402" on="0"/>
        <pt x="656" y="364" on="1"/>
        <pt x="591" y="416" on="1"/>
        <pt x="624" y="435" on="0"/>
        <pt x="690" y="490" on="0"/>
        <pt x="747" y="552" on="0"/>
        <pt x="791" y="610" on="0"/>
        <pt x="802" y="632" on="1"/>
        <pt x="788" y="632" on="0"/>
        <pt x="719" y="632" on="0"/>
        <pt x="625" y="632" on="0"/>
        <pt x="518" y="632" on="0"/>
        <pt x="413" y="632" on="0"/>
        <pt x="322" y="632" on="0"/>
        <pt x="260" y="632" on="0"/>
        <pt x="250" y="632" on="1"/>
        <pt x="223" y="632" on="0"/>
        <pt x="169" y="630" on="0"/>
        <pt x="140" y="627" on="1"/>
        <pt x="140" y="715" on="1"/>
        <pt x="165" y="712" on="0"/>
        <pt x="223" y="707" on="0"/>
        <pt x="250" y="707" on="1"/>
        <pt x="260" y="707" on="0"/>
        <pt x="324" y="707" on="0"/>
        <pt x="417" y="707" on="0"/>
        <pt x="524" y="707" on="0"/>
        <pt x="633" y="707" on="0"/>
        <pt x="728" y="707" on="0"/>
        <pt x="796" y="707" on="0"/>
        <pt x="808" y="707" on="1"/>
        <pt x="817" y="707" on="0"/>
        <pt x="843" y="708" on="0"/>
        <pt x="869" y="711" on="0"/>
        <pt x="875" y="713" on="1"/>
      </contour>
      <contour>
        <pt x="535" y="538" on="1"/>
        <pt x="535" y="460" on="0"/>
        <pt x="526" y="322" on="0"/>
        <pt x="496" y="202" on="0"/>
        <pt x="437" y="99" on="0"/>
        <pt x="339" y="11" on="0"/>
        <pt x="265" y="-26" on="1"/>
        <pt x="194" y="33" on="1"/>
        <pt x="215" y="39" on="0"/>
        <pt x="261" y="63" on="0"/>
        <pt x="281" y="76" on="1"/>
        <pt x="338" y="111" on="0"/>
        <pt x="405" y="196" on="0"/>
        <pt x="441" y="296" on="0"/>
        <pt x="452" y="408" on="0"/>
        <pt x="452" y="468" on="1"/>
        <pt x="452" y="502" on="0"/>
        <pt x="448" y="538" on="1"/>
      </contour>
    </TTGlyph>
    <TTGlyph name="glyph02469" xMin="280" yMin="69" xMax="892" yMax="709">
      <contour>
        <pt x="280" y="379" on="1"/>
        <pt x="342" y="395" on="0"/>
        <pt x="466" y="442" on="0"/>
        <pt x="574" y="496" on="0"/>
        <pt x="613" y="520" on="1"/>
        <pt x="657" y="548" on="0"/>
        <pt x="739" y="612" on="0"/>
        <pt x="809" y="679" on="0"/>
        <pt x="833" y="709" on="1"/>
        <pt x="892" y="652" on="1"/>
        <pt x="865" y="623" on="0"/>
        <pt x="786" y="553" on="0"/>
        <pt x="693" y="484" on="0"/>
        <pt x="646" y="456" on="1"/>
        <pt x="617" y="438" on="0"/>
        <pt x="542" y="400" on="0"/>
        <pt x="457" y="362" on="0"/>
        <pt x="364" y="326" on="0"/>
        <pt x="317" y="311" on="1"/>
      </contour>
      <contour>
        <pt x="605" y="476" on="1"/>
        <pt x="683" y="496" on="1"/>
        <pt x="683" y="150" on="1"/>
        <pt x="683" y="136" on="0"/>
        <pt x="684" y="104" on="0"/>
        <pt x="686" y="76" on="0"/>
        <pt x="687" y="69" on="1"/>
        <pt x="600" y="69" on="1"/>
        <pt x="602" y="76" on="0"/>
        <pt x="603" y="104" on="0"/>
        <pt x="605" y="136" on="0"/>
        <pt x="605" y="150" on="1"/>
      </contour>
    </TTGlyph>
</ttFont>
